<?xml version="1.0" standalone="no"?>
<!DOCTYPE svg PUBLIC "-//W3C//DTD SVG 1.1//EN" "http://www.w3.org/Graphics/SVG/1.1/DTD/svg11.dtd" >
<svg>
<metadata>
Created by FontForge 20120731 at Fri Mar 16 13:22:17 2018
 By www-data
Copyright c 2016 Renault Samsung Motors. All right reserved.
</metadata>
<defs>
<font id="RenaultSamsungMotorsLight" horiz-adv-x="900" >
  <font-face 
    font-family="RenaultSamsungMotors Light"
    font-weight="300"
    font-stretch="normal"
    units-per-em="1000"
    panose-1="2 11 6 0 0 1 1 1 1 1"
    ascent="800"
    descent="-200"
    x-height="483"
    cap-height="589"
    bbox="-45 -228 1198 816"
    underline-thickness="50"
    underline-position="-50"
    unicode-range="U+0001-FFE6"
  />
<missing-glyph horiz-adv-x="500" 
d="M12 672h476v-672h-476v672zM250 380l162 244h-324zM60 92l162 244l-162 244v-488zM278 336l162 -244v488zM250 292l-162 -244h324z" />
    <glyph glyph-name=".notdef" horiz-adv-x="500" 
d="M12 672h476v-672h-476v672zM250 380l162 244h-324zM60 92l162 244l-162 244v-488zM278 336l162 -244v488zM250 292l-162 -244h324z" />
    <glyph glyph-name="uni0001" horiz-adv-x="224" 
 />
    <glyph glyph-name="uni0001" unicode="&#xa0;" horiz-adv-x="224" 
 />
    <glyph glyph-name="uni0001" unicode=" " horiz-adv-x="224" 
 />
    <glyph glyph-name="uni0001" horiz-adv-x="224" 
 />
    <glyph glyph-name="uni0001" horiz-adv-x="224" 
 />
    <glyph glyph-name="uni0001" horiz-adv-x="224" 
 />
    <glyph glyph-name="uni0001" horiz-adv-x="224" 
 />
    <glyph glyph-name="uni0001" horiz-adv-x="224" 
 />
    <glyph glyph-name="uni0001" horiz-adv-x="224" 
 />
    <glyph glyph-name="uni0001" horiz-adv-x="224" 
 />
    <glyph glyph-name="uni0001" horiz-adv-x="224" 
 />
    <glyph glyph-name="uni0001" horiz-adv-x="224" 
 />
    <glyph glyph-name="uni0001" horiz-adv-x="224" 
 />
    <glyph glyph-name="uni0001" horiz-adv-x="224" 
 />
    <glyph glyph-name="uni0001" horiz-adv-x="224" 
 />
    <glyph glyph-name="uni0001" horiz-adv-x="224" 
 />
    <glyph glyph-name="uni0001" horiz-adv-x="224" 
 />
    <glyph glyph-name="uni0001" horiz-adv-x="224" 
 />
    <glyph glyph-name="uni0001" horiz-adv-x="224" 
 />
    <glyph glyph-name="uni0001" horiz-adv-x="224" 
 />
    <glyph glyph-name="uni0001" horiz-adv-x="224" 
 />
    <glyph glyph-name="uni0001" unicode="&#xd;" horiz-adv-x="224" 
 />
    <glyph glyph-name="uni0001" horiz-adv-x="224" 
 />
    <glyph glyph-name="uni0001" horiz-adv-x="224" 
 />
    <glyph glyph-name="uni0001" unicode="&#xa;" horiz-adv-x="224" 
 />
    <glyph glyph-name="uni0001" unicode="&#x9;" horiz-adv-x="224" 
 />
    <glyph glyph-name="uni0001" horiz-adv-x="224" 
 />
    <glyph glyph-name="uni0001" horiz-adv-x="224" 
 />
    <glyph glyph-name="uni0001" horiz-adv-x="224" 
 />
    <glyph glyph-name="uni0001" horiz-adv-x="224" 
 />
    <glyph glyph-name="uni0001" horiz-adv-x="224" 
 />
    <glyph glyph-name="uni0001" horiz-adv-x="224" 
 />
    <glyph glyph-name="uni0001" horiz-adv-x="224" 
 />
    <glyph glyph-name="uni0001" horiz-adv-x="224" 
 />
    <glyph glyph-name="exclam" unicode="!" horiz-adv-x="236" 
d="M93 672h50l-4 -474h-43zM80 28q0 38 38 38t38 -38q0 -37 -38 -37t-38 37z" />
    <glyph glyph-name="quotedbl" unicode="&#x22;" horiz-adv-x="407" 
d="M131 463h-42v209h42v-209zM318 463h-42v209h42v-209z" />
    <glyph glyph-name="numbersign" unicode="#" horiz-adv-x="646" 
d="M161 188h-132v37h136l28 222h-132v37h136l24 188h39l-23 -188h209l23 188h40l-24 -188h132v-37h-136l-28 -222h132v-37h-137l-23 -188h-39l23 188h-209l-24 -188h-39zM204 225h210l28 222h-210z" />
    <glyph glyph-name="dollar" unicode="$" horiz-adv-x="537" 
d="M246 20q-99 1 -183 30v42q96 -32 194 -32q95 0 135 30t40 97q0 48 -27.5 73t-69.5 39.5t-90 24.5t-90 27.5t-69.5 49t-27.5 88.5q0 81 44 119t144 43v165h44v-164q88 -1 163 -24v-42q-87 26 -174 26q-92 0 -131.5 -28.5t-39.5 -94.5q0 -46 27.5 -70t69.5 -37.5t90 -23.5
t90 -28t69.5 -51t27.5 -92q0 -81 -45 -121t-147 -45v-165h-44v164z" />
    <glyph glyph-name="percent" unicode="%" horiz-adv-x="864" 
d="M50 504q0 96 37 138t121 42t121 -42t37 -138t-37 -138t-121 -42t-121 42t-37 138zM90 504q0 -78 27.5 -111.5t90.5 -33.5t90.5 33.5t27.5 111.5t-27.5 111.5t-90.5 33.5t-90.5 -33.5t-27.5 -111.5zM565 672h36l-302 -672h-36zM498 168q0 96 37 138t121 42t121 -42
t37 -138t-37 -138t-121 -42t-121 42t-37 138zM538 168q0 -78 27.5 -111.5t90.5 -33.5t90.5 33.5t27.5 111.5t-27.5 111.5t-90.5 33.5t-90.5 -33.5t-27.5 -111.5z" />
    <glyph glyph-name="ampersand" unicode="&#x26;" horiz-adv-x="665" 
d="M496 98q-35 -57 -90.5 -83.5t-124.5 -26.5q-224 0 -224 184q0 66 38 117t123 89q-54 48 -75.5 85.5t-21.5 79.5q0 70 40.5 105.5t125.5 35.5q82 0 120.5 -33.5t38.5 -102.5q0 -55 -37.5 -97.5t-122.5 -84.5l204 -202q14 34 18.5 74t4.5 85h45q-1 -57 -8.5 -105.5
t-26.5 -87.5l129 -130h-58zM103 175q0 -148 178 -148q122 0 185 103l-221 219q-73 -33 -107.5 -76.5t-34.5 -97.5zM287 646q-63 0 -92 -25t-29 -79q0 -35 21 -68.5t71 -77.5q75 35 108.5 70t33.5 80q0 51 -26.5 75.5t-86.5 24.5z" />
    <glyph glyph-name="quotesingle" unicode="'" horiz-adv-x="220" 
d="M131 463h-42v209h42v-209z" />
    <glyph glyph-name="parenleft" unicode="(" horiz-adv-x="300" 
d="M81 288q0 121 34.5 226t101.5 190h50q-69 -85 -105 -190.5t-36 -225.5t36 -225.5t105 -190.5h-50q-67 85 -101.5 190t-34.5 226z" />
    <glyph glyph-name="parenright" unicode=")" horiz-adv-x="300" 
d="M219 288q0 -121 -35 -226t-102 -190h-49q69 85 104.5 190.5t35.5 225.5t-35.5 225.5t-104.5 190.5h49q67 -85 102 -190t35 -226z" />
    <glyph glyph-name="asterisk" unicode="*" horiz-adv-x="460" 
d="M248 502l161 53l12 -35l-162 -52l100 -138l-30 -22l-99 139l-100 -139l-29 22l99 138l-161 52l11 35l162 -53v170h36v-170z" />
    <glyph glyph-name="plus" unicode="+" horiz-adv-x="576" 
d="M77 309h190v190h42v-190h190v-42h-190v-190h-42v190h-190v42z" />
    <glyph glyph-name="comma" unicode="," horiz-adv-x="220" 
d="M80 -144h-41l58 209h53z" />
    <glyph glyph-name="hyphen" unicode="-" horiz-adv-x="320" 
d="M29 265h262v-39h-262v39z" />
    <glyph glyph-name="period" unicode="." horiz-adv-x="220" 
d="M72 29q0 20 8.5 28.5t29.5 8.5q20 0 29 -8.5t9 -28.5q0 -38 -38 -38q-21 0 -29.5 9t-8.5 29z" />
    <glyph glyph-name="slash" unicode="/" horiz-adv-x="384" 
d="M320 704h44l-300 -832h-44z" />
    <glyph glyph-name="zero" unicode="0" horiz-adv-x="630" 
d="M65 336q0 92 14.5 158t44.5 108t77.5 62t113.5 20t113 -20t77.5 -62t45 -108t14.5 -158t-14.5 -158t-45 -108t-77.5 -62t-113 -20t-113.5 20t-77.5 62t-44.5 108t-14.5 158zM113 336q0 -81 11.5 -139.5t36 -95.5t62.5 -54.5t92 -17.5t92 17.5t62 54.5t35.5 95t11.5 140
t-11.5 140t-35.5 95t-62 54.5t-92 17.5t-92 -17.5t-62.5 -54.5t-36 -95t-11.5 -140z" />
    <glyph glyph-name="one" unicode="1" horiz-adv-x="380" 
d="M222 628l-185 -77v41l194 80h39v-672h-48v628z" />
    <glyph glyph-name="two" unicode="2" horiz-adv-x="515" 
d="M29 38l278 274q49 49 71.5 91.5t22.5 90.5q0 79 -40.5 114t-133.5 35q-46 0 -88.5 -7.5t-87.5 -22.5v43q45 15 89 21.5t93 6.5q114 0 165.5 -44.5t51.5 -141.5q0 -54 -24.5 -103t-78.5 -103l-253 -251h362v-41h-427v38z" />
    <glyph glyph-name="three" unicode="3" horiz-adv-x="515" 
d="M426 637l-214 -263q129 -3 187.5 -48t58.5 -142q0 -103 -62.5 -149.5t-202.5 -46.5q-88 0 -164 24v42q81 -26 161 -26q117 0 168 36.5t51 120.5q0 82 -54.5 118t-178.5 36h-21v31l213 263h-331v39h389v-35z" />
    <glyph glyph-name="four" unicode="4" horiz-adv-x="585" 
d="M390 154h-353v38l347 480h51v-479h106v-39h-106v-154h-45v154zM390 193v420l-303 -420h303z" />
    <glyph glyph-name="five" unicode="5" horiz-adv-x="531" 
d="M448 633h-323v-252q26 2 51 3t50 1q134 0 194 -47t60 -150q0 -104 -61 -152t-197 -48q-88 0 -164 24v42q81 -26 161 -26q113 0 163 37.5t50 123.5q0 84 -51.5 121t-169.5 37q-61 0 -131 -6v331h368v-39z" />
    <glyph glyph-name="six" unicode="6" horiz-adv-x="579" 
d="M64 304q0 100 16 172t51 118t89.5 68t132.5 22q73 0 142 -20v-42q-69 22 -139 22q-68 0 -114.5 -19t-75 -59.5t-41.5 -103t-13 -148.5q16 57 64 83t138 26q113 0 163.5 -51.5t50.5 -163.5q0 -115 -54.5 -167.5t-176.5 -52.5q-62 0 -106 17.5t-72.5 56t-41.5 98.5t-13 144
zM121 224q0 -196 175 -196q99 0 142.5 42.5t43.5 137.5q0 93 -40 134t-132 41q-100 0 -144.5 -37.5t-44.5 -121.5z" />
    <glyph glyph-name="seven" unicode="7" horiz-adv-x="473" 
d="M451 636l-291 -636h-49l289 631h-386v41h437v-36z" />
    <glyph glyph-name="eight" unicode="8" horiz-adv-x="582" 
d="M291 365q93 10 132.5 43.5t39.5 101.5q0 73 -40 104t-132 31t-132 -31t-40 -104q0 -68 39.5 -101.5t132.5 -43.5zM57 168q0 41 8.5 71t28 51t51 34t76.5 20q-78 13 -113 53t-35 115q0 91 51 131.5t167 40.5q115 0 166.5 -40.5t51.5 -131.5q0 -75 -35 -115t-113 -53
q45 -7 76 -20t50.5 -34t28.5 -51t9 -71q0 -95 -55.5 -137.5t-178.5 -42.5q-124 0 -179 42.5t-55 137.5zM291 323q-53 -5 -88.5 -15.5t-57.5 -28.5t-31.5 -45t-9.5 -64q0 -77 43.5 -110t143.5 -33t143.5 33t43.5 110q0 37 -9.5 64t-31.5 45t-58 28.5t-88 15.5z" />
    <glyph glyph-name="nine" unicode="9" horiz-adv-x="579" 
d="M514 368q0 -100 -16 -172t-51 -118t-89.5 -68t-132.5 -22q-73 0 -142 20v42q69 -22 139 -22q67 0 114 19t75.5 59.5t41.5 103t13 148.5q-16 -57 -64 -83t-138 -26q-113 0 -163.5 51t-50.5 164q0 115 54.5 167.5t176.5 52.5q62 0 106 -17.5t72.5 -56t41.5 -98.5t13 -144z
M457 448q0 196 -175 196q-99 0 -142.5 -42.5t-43.5 -137.5q0 -93 40 -134t132 -41q100 0 144.5 37.5t44.5 121.5z" />
    <glyph glyph-name="colon" unicode=":" horiz-adv-x="236" 
d="M80 29q0 20 8.5 28.5t29.5 8.5q20 0 29 -8.5t9 -28.5q0 -38 -38 -38q-21 0 -29.5 9t-8.5 29zM80 454q0 20 8.5 28.5t29.5 8.5q20 0 29 -8.5t9 -28.5q0 -38 -38 -38q-21 0 -29.5 9t-8.5 29z" />
    <glyph glyph-name="semicolon" unicode=";" horiz-adv-x="236" 
d="M88 -144h-41l58 209h53zM80 454q0 20 8.5 28.5t29.5 8.5q20 0 29 -8.5t9 -28.5q0 -38 -38 -38q-21 0 -29.5 9t-8.5 29z" />
    <glyph glyph-name="less" unicode="&#x3c;" horiz-adv-x="576" 
d="M77 264v48l422 180v-46l-372 -158l372 -158v-46z" />
    <glyph glyph-name="equal" unicode="=" horiz-adv-x="576" 
d="M77 215h422v-42h-422v42zM77 403h422v-42h-422v42z" />
    <glyph glyph-name="greater" unicode="&#x3e;" horiz-adv-x="576" 
d="M499 312v-48l-422 -180v46l372 158l-372 158v46z" />
    <glyph glyph-name="question" unicode="?" horiz-adv-x="438" 
d="M158 198v11q0 41 13.5 70.5t33.5 52.5t44 42.5t44 40.5t33.5 45.5t13.5 58.5q0 67 -36 96t-121 29q-75 0 -147 -28v42q37 14 75 20t76 6q107 0 154.5 -38t47.5 -124q0 -41 -14 -70.5t-35 -53t-45.5 -43.5t-45.5 -41.5t-35 -47t-14 -60.5v-8h-42zM141 28q0 38 38 38
t38 -38q0 -37 -38 -37t-38 37z" />
    <glyph glyph-name="at" unicode="@" horiz-adv-x="969" 
d="M65 241q0 118 24.5 202.5t76.5 138.5t133.5 79.5t194.5 25.5q108 0 185.5 -23t127.5 -71t73.5 -123t23.5 -179q0 -136 -39 -203t-129 -67t-109 67q-20 -35 -57 -51t-97 -16q-97 0 -139 52t-42 168t42 168t139 52q58 0 94 -15.5t55 -49.5l2 53h40v-308q0 -42 18 -61.5
t60 -19.5q66 0 92.5 55.5t26.5 172.5q0 96 -21 164t-65.5 111.5t-114.5 64t-168 20.5q-102 0 -175 -23t-119.5 -72t-68 -126.5t-21.5 -185.5t22.5 -185.5t71.5 -126.5t125.5 -72t183.5 -23q139 0 274 44v-40q-129 -42 -275 -42q-118 0 -202 25.5t-138 79.5t-79.5 138
t-25.5 202zM339 241q0 -96 33.5 -138t109.5 -42q73 0 104.5 30.5t31.5 99.5v101q0 69 -31.5 99.5t-104.5 30.5q-76 0 -109.5 -42.5t-33.5 -138.5z" />
    <glyph glyph-name="A" unicode="A" horiz-adv-x="636" 
d="M551 0q-14 45 -29.5 94t-33.5 100h-341q-17 -51 -33 -100t-29 -94h-49q49 170 114 341t140 331h56q75 -160 140 -331t114 -341h-49zM318 625q-18 -38 -37.5 -83.5t-40 -96t-40.5 -104.5t-39 -108h314q-19 54 -39 108t-40.5 104.5t-40 96t-37.5 83.5z" />
    <glyph glyph-name="B" unicode="B" horiz-adv-x="633" 
d="M143 39h221q88 0 125.5 33.5t37.5 108.5t-37.5 108.5t-125.5 33.5h-221v-284zM143 361h205q84 0 120 32.5t36 103.5q0 70 -36 103t-120 33h-205v-272zM94 628q0 7 -6 9l-33 12l4 23h297q105 0 150.5 -41t45.5 -132q0 -63 -23 -100.5t-74 -53.5q63 -11 92 -51t29 -115
q0 -92 -48 -135.5t-156 -43.5h-278v628z" />
    <glyph glyph-name="C" unicode="C" horiz-adv-x="598" 
d="M57 336q0 92 17.5 158t55 108t95.5 62t139 20q51 0 99.5 -6.5t88.5 -18.5l-8 -42q-35 11 -80.5 18.5t-93.5 7.5q-70 0 -119.5 -17.5t-81.5 -54.5t-47 -95t-15 -140t15 -140t47 -95t81.5 -54.5t119.5 -17.5q48 0 90.5 6.5t87.5 19.5v-43q-45 -12 -89 -18t-95 -6
q-81 0 -139 20t-95.5 62t-55 108t-17.5 158z" />
    <glyph glyph-name="D" unicode="D" horiz-adv-x="697" 
d="M94 628q0 7 -6 9l-33 12l4 23h234q91 0 157 -19.5t108 -60t62 -104.5t20 -152q0 -89 -20 -152.5t-62 -104t-108 -60t-157 -19.5h-199v628zM143 41h147q80 0 137 16.5t93 52.5t53 92t17 134t-17 134t-53 92t-93 52.5t-137 16.5h-147v-590z" />
    <glyph glyph-name="E" unicode="E" horiz-adv-x="582" 
d="M94 628q0 7 -6 9l-33 12l4 23h465v-41h-381v-269h309v-40h-309v-281h389v-41h-438v628z" />
    <glyph glyph-name="F" unicode="F" horiz-adv-x="566" 
d="M524 672v-41h-381v-269h309v-40h-309v-322h-49v628q0 7 -6 9l-33 12l4 23h465z" />
    <glyph glyph-name="G" unicode="G" horiz-adv-x="665" 
d="M593 14q-109 -26 -221 -26q-83 0 -142.5 20t-98 62t-56.5 108t-18 158t18.5 158t58 108t100.5 62t146 20q57 0 106 -6.5t91 -18.5l-8 -42q-35 11 -85 18.5t-98 7.5q-74 0 -127.5 -17.5t-87.5 -54.5t-50 -95t-16 -140t15.5 -140t48.5 -95t84.5 -54.5t123.5 -17.5
q43 0 85.5 5t84.5 14v254h-182v38h228v-326z" />
    <glyph glyph-name="H" unicode="H" horiz-adv-x="729" 
d="M143 362h443v310h49v-672h-49v322h-443v-322h-49v628q0 7 -6 9l-33 12l4 23h75q9 0 9 -10v-300z" />
    <glyph glyph-name="I" unicode="I" horiz-adv-x="237" 
d="M94 628q0 7 -6 9l-33 12l4 23h75q9 0 9 -10v-662h-49v628z" />
    <glyph glyph-name="J" unicode="J" horiz-adv-x="428" 
d="M334 181q0 -101 -46 -147t-148 -46q-58 0 -109 12v43q56 -14 104 -14q81 0 115.5 35.5t34.5 117.5v490h49v-491z" />
    <glyph glyph-name="K" unicode="K" horiz-adv-x="590" 
d="M94 628q0 7 -6 9l-33 12l4 23h75q9 0 9 -10v-348l349 358h61l-303 -311l311 -361h-60l-283 329l-75 -77v-252h-49v628z" />
    <glyph glyph-name="L" unicode="L" horiz-adv-x="505" 
d="M143 41h339v-41h-388v628q0 7 -6 9l-33 12l4 23h75q9 0 9 -10v-621z" />
    <glyph glyph-name="M" unicode="M" horiz-adv-x="809" 
d="M416 212q-12 0 -18.5 0.5t-11 3t-8.5 8t-11 16.5l-227 356v-596h-46v628q0 7 -6 9l-33 12l4 23h65q14 0 19.5 -4.5t16.5 -20.5l244 -385l262 410h49v-672h-47v597l-246 -385h-6z" />
    <glyph glyph-name="N" unicode="N" horiz-adv-x="729" 
d="M588 70v602h47v-672h-50l-445 602v-602h-46v628q0 7 -6 9l-33 12l4 23h66q15 0 19.5 -4t15.5 -19z" />
    <glyph glyph-name="O" unicode="O" horiz-adv-x="729" 
d="M57 336q0 92 17.5 158t55 108t95.5 62t139 20t139.5 -20t96 -62t55 -108t17.5 -158t-17.5 -158t-55 -108t-96 -62t-139.5 -20t-139 20t-95.5 62t-55 108t-17.5 158zM107 336q0 -82 14.5 -140t45.5 -95t79.5 -54.5t117.5 -17.5t117.5 17.5t80 54.5t46 95t14.5 140
t-14.5 140t-46 95t-80 54.5t-117.5 17.5t-117.5 -17.5t-79.5 -54.5t-45.5 -95t-14.5 -140z" />
    <glyph glyph-name="P" unicode="P" horiz-adv-x="617" 
d="M143 314h196q96 0 138 37t42 122q0 84 -42 121t-138 37h-196v-317zM342 672q119 0 172.5 -47t53.5 -152t-54 -152t-172 -47h-199v-274h-49v628q0 7 -6 9l-33 12l4 23h283z" />
    <glyph glyph-name="Q" unicode="Q" horiz-adv-x="729" 
d="M483 1q-48 -13 -119 -13q-81 0 -139 20t-95.5 62t-55 108t-17.5 158t17.5 158t55 108t95.5 62t139 20t139.5 -20t96 -62t55 -108t17.5 -158q0 -131 -35 -208t-111 -111l91 -142h-52zM105 336q0 -82 14.5 -140.5t46 -95.5t80.5 -54.5t118 -17.5q57 0 96 10l-61 96h52
l51 -80q63 30 92 98.5t29 183.5q0 82 -14.5 140t-46 95t-80.5 54.5t-118 17.5t-118 -17.5t-80.5 -54.5t-46 -95t-14.5 -140z" />
    <glyph glyph-name="R" unicode="R" horiz-adv-x="633" 
d="M143 329h202q94 0 134 35t40 117t-40 116t-134 34h-202v-302zM143 290v-290h-49v628q0 7 -6 9l-33 12l4 23h291q115 0 166.5 -45t51.5 -146q0 -93 -42.5 -137t-136.5 -50l190 -294h-56l-185 290h-195z" />
    <glyph glyph-name="S" unicode="S" horiz-adv-x="582" 
d="M61 505q0 94 60 137t178 42q55 0 105 -8t92 -21l-8 -41q-37 14 -87.5 22t-98.5 8q-104 0 -148.5 -32.5t-44.5 -106.5q0 -38 18 -62.5t47 -40t66.5 -25.5t76.5 -20t76.5 -22t66.5 -32.5t47 -52t18 -79.5q0 -97 -58 -140t-184 -43q-57 0 -111 7.5t-106 24.5v42
q105 -34 214 -34q105 0 151 33t46 110q0 40 -18 65t-47 41t-66.5 26.5t-76.5 20t-76.5 22t-66.5 32t-47 50t-18 77.5z" />
    <glyph glyph-name="T" unicode="T" horiz-adv-x="585" 
d="M268 631h-245v41h539v-41h-245v-631h-49v631z" />
    <glyph glyph-name="U" unicode="U" horiz-adv-x="729" 
d="M143 255q0 -60 12.5 -103t39 -70.5t68.5 -40t101 -12.5q118 0 170 52.5t52 173.5v417h49v-420q0 -140 -64 -202t-207 -62q-71 0 -122 15t-84 47t-48.5 82t-15.5 120v376q0 7 -6 9l-33 12l4 23h75q9 0 9 -10v-407z" />
    <glyph glyph-name="V" unicode="V" horiz-adv-x="636" 
d="M318 47q27 58 58.5 135.5t63 161.5t60.5 169t51 159h49q-49 -170 -114 -341.5t-140 -330.5h-56q-75 159 -140 330.5t-114 341.5h49q22 -74 51 -159t60.5 -169t63 -161.5t58.5 -135.5z" />
    <glyph glyph-name="W" unicode="W" horiz-adv-x="937" 
d="M468 596q-8 -38 -23 -105.5t-36 -145.5q-9 -36 -22 -79.5t-27.5 -89t-30 -91t-29.5 -85.5h-63q-25 69 -52 155t-53 176.5t-49 178.5t-40 162h50q15 -64 35.5 -141t40.5 -152q13 -47 26.5 -94t27 -90t25.5 -80.5t22 -65.5h1q10 28 22 65.5t25 80.5t26.5 90t26.5 94
q19 72 38 145t34 136h51q15 -63 34 -136t38 -145q13 -47 26.5 -94t26.5 -90t25 -80.5t22 -65.5h1q10 28 22 65.5t25.5 80.5t27 90t26.5 94q20 75 40.5 152t35.5 141h50q-17 -74 -40 -162t-49 -178.5t-53 -176.5t-52 -155h-63q-14 40 -29.5 85.5t-30 91t-27.5 89t-22 79.5
q-21 78 -36 145.5t-23 105.5h-1z" />
    <glyph glyph-name="X" unicode="X" horiz-adv-x="636" 
d="M287 343l-241 329h56l218 -298l215 298h55l-243 -331l251 -341h-57l-225 310l-223 -310h-55z" />
    <glyph glyph-name="Y" unicode="Y" horiz-adv-x="588" 
d="M269 295l-247 377h57l215 -332l215 332h57l-248 -377v-295h-49v295z" />
    <glyph glyph-name="Z" unicode="Z" horiz-adv-x="614" 
d="M50 37l443 595h-435v41h498v-36l-443 -595h451v-41h-514v36z" />
    <glyph glyph-name="bracketleft" unicode="[" horiz-adv-x="300" 
d="M103 704h167v-39h-122v-754h122v-39h-167v832z" />
    <glyph glyph-name="backslash" unicode="\" horiz-adv-x="937" 
d="M29 392h99l-30 111q-11 43 -20.5 82t-17.5 74h48q7 -31 15.5 -65t18.5 -71l35 -131h202q8 30 16 61t16 63q10 35 18 68t15 63h49q7 -30 15 -63t17 -68l33 -124h201l36 131q10 37 18.5 71t15.5 65h48q-17 -71 -39 -156q-14 -56 -30 -111h98v-39h-109l-6 -21
q-24 -88 -50 -170t-50 -149h-61q-13 39 -28 82.5t-29.5 87.5t-26.5 85.5t-20 76.5l-2 8h-111l-2 -8q-8 -35 -20.5 -76.5t-26.5 -85.5t-29 -87.5t-28 -82.5h-61q-24 67 -50 149t-51 170l-6 21h-110v39zM749 353h-180l18 -66q20 -67 38 -126.5t33 -100.5h1q15 41 33.5 100.5
t38.5 126.5zM349 287l19 66h-181q5 -17 9.5 -33t9.5 -33q20 -67 38.5 -126.5t33.5 -100.5h1l21 63l24 77zM468 586l-22 -102l-22 -92h89q-7 25 -12 47.5t-10 44.5l-22 102h-1z" />
    <glyph glyph-name="bracketright" unicode="]" horiz-adv-x="300" 
d="M196 -128h-167v39h122v754h-122v39h167v-832z" />
    <glyph glyph-name="asciicircum" unicode="^" horiz-adv-x="576" 
d="M262 672h52l196 -422h-48l-174 373l-174 -373h-48z" />
    <glyph glyph-name="underscore" unicode="_" horiz-adv-x="480" 
d="M0 -108h480v-40h-480v40z" />
    <glyph glyph-name="grave" unicode="`" horiz-adv-x="240" 
d="M-17 704h55l120 -134h-47z" />
    <glyph glyph-name="a" unicode="a" horiz-adv-x="523" 
d="M238 25q84 0 120.5 29.5t36.5 93.5v55q-67 26 -149 26q-79 0 -114 -22.5t-35 -79.5q0 -54 34 -78t107 -24zM401 55q-42 -67 -170 -67q-94 0 -137.5 33.5t-43.5 105.5t45 104.5t145 32.5q45 0 83.5 -6.5t71.5 -18.5v85q0 71 -36 101.5t-120 30.5q-75 0 -147 -24v41
q69 22 151 22q105 0 151.5 -41t46.5 -133v-275q0 -8 6 -9l34 -13l-4 -24h-65q-5 0 -7 1t-2 8z" />
    <glyph glyph-name="b" unicode="b" horiz-adv-x="556" 
d="M128 78q71 -50 161 -50t129.5 49.5t39.5 163.5q0 115 -39.5 164.5t-129.5 49.5q-86 0 -123.5 -35.5t-37.5 -116.5v-225zM80 658q0 7 -6 9l-34 13l4 24h75q9 0 9 -10v-270q23 37 63.5 54t106.5 17q109 0 158.5 -59.5t49.5 -194.5q0 -134 -49.5 -193.5t-158.5 -59.5
q-68 0 -108.5 16.5t-67.5 39.5l-3 -44h-39v658z" />
    <glyph glyph-name="c" unicode="c" horiz-adv-x="457" 
d="M50 241q0 134 54 194t174 60q48 0 82.5 -6t57.5 -14l-9 -40q-62 20 -125 20q-99 0 -142 -50t-43 -164q0 -113 43 -163t142 -50q67 0 129 20v-42q-60 -18 -135 -18q-120 0 -174 59.5t-54 193.5z" />
    <glyph glyph-name="d" unicode="d" horiz-adv-x="562" 
d="M428 303q0 81 -37.5 116.5t-123.5 35.5q-90 0 -129 -49.5t-39 -164.5q0 -114 39 -163.5t129 -49.5t161 50v225zM435 45q-27 -24 -68 -40.5t-109 -16.5q-55 0 -94 14.5t-64.5 45t-37.5 78.5t-12 115t12 115.5t37.5 79t64.5 45t94 14.5q65 0 104.5 -16t65.5 -53v278h48
v-658q0 -8 6 -9l34 -13l-4 -24h-66q-5 0 -7 1.5t-2 7.5z" />
    <glyph glyph-name="e" unicode="e" horiz-adv-x="523" 
d="M50 241q0 134 52.5 194t169.5 60q105 0 151.5 -58t46.5 -188v-21h-373q2 -107 50 -154t156 -47q76 0 150 24v-41q-67 -22 -153 -22q-131 0 -190.5 59.5t-59.5 193.5zM272 458q-91 0 -132 -46t-43 -149h327q-2 105 -36.5 150t-115.5 45z" />
    <glyph glyph-name="f" unicode="f" horiz-adv-x="305" 
d="M94 436q0 8 -8 10l-62 11l4 26h66v80q0 81 36 117t117 36q20 0 41 -2.5t40 -8.5l-8 -41q-12 5 -32 8.5t-37 3.5q-60 0 -84.5 -26t-24.5 -86v-81h155v-39h-155v-444h-48v436z" />
    <glyph glyph-name="g" unicode="g" horiz-adv-x="554" 
d="M476 -13q0 -54 -10 -93t-33.5 -64.5t-61.5 -37.5t-94 -12q-61 0 -95 9v40q16 -5 41.5 -7.5t51.5 -2.5q51 0 81 12.5t46 34.5t21 53t5 69v71q-23 -37 -63.5 -54t-106.5 -17q-55 0 -94 14.5t-64.5 45t-37.5 78.5t-12 115t12 115.5t37.5 79t64.5 45t94 14.5
q68 0 108.5 -16.5t67.5 -39.5l3 44h39v-496zM428 405q-71 50 -161 50t-129 -49.5t-39 -163.5q0 -115 39 -164.5t129 -49.5q86 0 123.5 35.5t37.5 116.5v225z" />
    <glyph glyph-name="h" unicode="h" horiz-adv-x="559" 
d="M429 308q0 78 -32 112t-107 34q-57 0 -98 -15.5t-64 -31.5v-407h-48v658q0 7 -6 9l-34 13l4 24h75q9 0 9 -10v-253q29 25 69 39.5t100 14.5q95 0 137.5 -43.5t42.5 -142.5v-263q0 -8 6 -9l34 -13l-4 -24h-75q-9 0 -9 10v298z" />
    <glyph glyph-name="i" unicode="i" horiz-adv-x="221" 
d="M75 637q0 35 36 35t36 -35t-36 -35t-36 35zM127 483q9 0 9 -8v-475h-48v437q0 7 -6 9l-34 13l4 24h75z" />
    <glyph glyph-name="j" unicode="j" horiz-adv-x="221" 
d="M75 637q0 35 36 35t36 -35t-36 -35t-36 35zM136 -69q0 -78 -33 -114.5t-109 -36.5q-9 0 -20 0.5t-19 1.5v38q6 -1 15 -1.5t16 -0.5q57 0 79.5 26.5t22.5 84.5v508q0 7 -6 9l-34 13l4 24h75q9 0 9 -8v-544z" />
    <glyph glyph-name="k" unicode="k" horiz-adv-x="461" 
d="M128 234l245 249h58l-212 -217l216 -266h-57l-190 235l-60 -60v-175h-48v658q0 7 -6 9l-34 13l4 24h75q9 0 9 -10v-460z" />
    <glyph glyph-name="l" unicode="l" horiz-adv-x="218" 
d="M84 658q0 7 -6 9l-34 13l4 24h75q9 0 9 -10v-648q0 -8 6 -9l34 -13l-4 -24h-75q-9 0 -9 10v648z" />
    <glyph glyph-name="m" unicode="m" horiz-adv-x="868" 
d="M132 441q23 20 60 37t99 17q60 0 93.5 -17t50.5 -45q31 30 73 46t110 16q88 0 128 -41t40 -134v-274q0 -8 6 -9l34 -13l-4 -24h-75q-9 0 -9 10v309q0 72 -29.5 103.5t-98.5 31.5q-46 0 -87.5 -10.5t-75.5 -36.5q5 -14 8.5 -33.5t3.5 -52.5v-321h-48v319q0 72 -29.5 103.5
t-98.5 31.5q-46 0 -82 -13t-69 -34v-407h-48v437q0 7 -6 9l-34 13l4 24h75q9 0 9 -10v-32z" />
    <glyph glyph-name="n" unicode="n" horiz-adv-x="563" 
d="M433 308q0 78 -32 112t-107 34q-57 0 -98 -15.5t-64 -31.5v-407h-48v437q0 7 -6 9l-34 13l4 24h75q9 0 9 -10v-32q29 25 69 39.5t100 14.5q95 0 137.5 -43.5t42.5 -142.5v-263q0 -8 6 -9l34 -13l-4 -24h-75q-9 0 -9 10v298z" />
    <glyph glyph-name="o" unicode="o" horiz-adv-x="553" 
d="M49 241q0 134 54 194t174 60q119 0 173 -60t54 -194t-54 -193.5t-173 -59.5q-120 0 -174 59.5t-54 193.5zM97 241q0 -113 42.5 -163t137.5 -50t137 50t42 163q0 114 -42 164t-137 50t-137.5 -50t-42.5 -164z" />
    <glyph glyph-name="p" unicode="p" horiz-adv-x="560" 
d="M132 78q71 -50 161 -50t129.5 49.5t39.5 163.5q0 115 -39.5 164.5t-129.5 49.5q-86 0 -123.5 -35.5t-37.5 -116.5v-225zM132 424q23 37 64 54t107 17q109 0 158 -60t49 -194t-49.5 -193.5t-158.5 -59.5q-68 0 -107.5 16t-62.5 35v-247h-48v645q0 7 -6 9l-34 13l4 24h75
q9 0 9 -10v-49z" />
    <glyph glyph-name="q" unicode="q" horiz-adv-x="554" 
d="M428 303q0 81 -37.5 116.5t-123.5 35.5q-90 0 -129 -49.5t-39 -164.5q0 -114 39 -163.5t129 -49.5t161 50v225zM258 495q69 0 111 -18t65 -56l3 62h39v-686l-48 -10v252q-23 -19 -62.5 -35t-107.5 -16q-55 0 -94 14.5t-64.5 45t-37.5 78.5t-12 115t12 115.5t37.5 79
t64.5 45t94 14.5z" />
    <glyph glyph-name="r" unicode="r" horiz-adv-x="350" 
d="M327 451q-15 3 -33 3q-29 0 -54 -7t-45.5 -17.5t-36 -23.5t-26.5 -26v-380h-48v437q0 7 -6 9l-34 13l4 24h75q9 0 9 -10v-54q31 38 69.5 57t99.5 19q9 0 18.5 -1t16.5 -3z" />
    <glyph glyph-name="s" unicode="s" horiz-adv-x="457" 
d="M54 363q0 66 47 99t135 33q43 0 81 -5.5t67 -15.5l-9 -40q-30 11 -65 16.5t-71 5.5q-138 0 -138 -92q0 -38 22.5 -57t56.5 -29t73.5 -17t73.5 -21t56.5 -40.5t22.5 -75.5q0 -67 -47.5 -101.5t-138.5 -34.5q-88 0 -160 24v41q76 -26 157 -26q143 0 143 96q0 39 -22.5 58.5
t-56.5 30t-74 17.5t-74 20.5t-56.5 39.5t-22.5 74z" />
    <glyph glyph-name="t" unicode="t" horiz-adv-x="361" 
d="M92 436q0 8 -8 10l-62 11l4 26h66v148h48v-148h175v-39h-175v-310q0 -57 23 -81.5t80 -24.5q39 0 72 10v-42q-17 -4 -36 -6t-42 -2q-78 0 -111.5 33.5t-33.5 111.5v303z" />
    <glyph glyph-name="u" unicode="u" horiz-adv-x="556" 
d="M130 183q0 -83 35 -119t116 -36q80 0 115 35.5t35 119.5v300h48v-303q0 -102 -46.5 -147t-151.5 -45t-152 45.5t-47 146.5v257q0 7 -6 9l-34 13l4 24h75q9 0 9 -10v-290z" />
    <glyph glyph-name="v" unicode="v" horiz-adv-x="494" 
d="M247 46q19 37 43.5 94t48.5 119t44 121.5t31 102.5h49q-14 -50 -35 -111t-46.5 -125t-53.5 -128t-56 -119h-50q-29 55 -57 118.5t-53.5 128t-46 125.5t-34.5 111h49q10 -43 30.5 -102.5t44.5 -121.5t48.5 -119t43.5 -94z" />
    <glyph glyph-name="w" unicode="w" horiz-adv-x="762" 
d="M381 418q-13 -49 -28.5 -103.5t-32 -109.5t-34.5 -107.5t-36 -97.5h-56q-27 72 -49.5 135.5t-41.5 122t-35.5 114t-31.5 111.5h46q13 -48 31 -107.5t36 -119.5q18 -57 36.5 -109.5t36.5 -100.5h1q17 48 34 100.5t35 109.5q17 57 34.5 115t29.5 103h49q12 -45 30 -103
t35 -115q18 -57 35 -109.5t34 -100.5h1q18 48 36.5 100.5t36.5 109.5q18 60 36 119.5t31 107.5h46q-15 -56 -31.5 -111.5t-35.5 -114t-41.5 -122t-49.5 -135.5h-56q-18 45 -36 97.5t-34.5 107.5t-32 109.5t-28.5 103.5z" />
    <glyph glyph-name="x" unicode="x" horiz-adv-x="494" 
d="M217 245l-172 238h54l148 -206l149 206h53l-172 -238l178 -245h-54l-154 214l-154 -214h-54z" />
    <glyph glyph-name="y" unicode="y" horiz-adv-x="474" 
d="M247 -64q-16 -43 -32 -72.5t-36 -48t-44.5 -27t-57.5 -8.5q-7 0 -17.5 0.5t-15.5 1.5v37q5 -1 9 -1h8h13q23 0 41 6.5t33 21.5t28.5 39t26.5 60l20 54l-210 484h53l180 -423l156 423h51z" />
    <glyph glyph-name="z" unicode="z" horiz-adv-x="457" 
d="M42 35l304 409h-296v39h356v-35l-303 -409h311v-39h-372v35z" />
    <glyph glyph-name="braceleft" unicode="{" horiz-adv-x="300" 
d="M13 308h10q51 0 73.5 22t22.5 74v166q0 70 32 102t104 32h15v-39h-9q-52 0 -74.5 -22.5t-22.5 -74.5v-167q0 -43 -15 -72t-48 -41q33 -12 48 -41t15 -72v-167q0 -54 22.5 -75.5t74.5 -21.5h9v-39h-15q-72 0 -104 32t-32 102v166q0 52 -22.5 74t-73.5 22h-10v40z" />
    <glyph glyph-name="bar" unicode="|" horiz-adv-x="240" 
d="M99 736h42v-960h-42v960z" />
    <glyph glyph-name="braceright" unicode="}" horiz-adv-x="300" 
d="M286 268h-9q-52 0 -74.5 -22t-22.5 -74v-166q0 -70 -32 -102t-104 -32h-15v39h10q51 0 73.5 22.5t22.5 74.5v167q0 43 15.5 72t48.5 41q-33 12 -48.5 41t-15.5 72v167q0 54 -22.5 75.5t-73.5 21.5h-10v39h15q72 0 104 -32t32 -102v-166q0 -52 22.5 -74t74.5 -22h9v-40z
" />
    <glyph glyph-name="asciitilde" unicode="~" horiz-adv-x="576" 
d="M179 371q39 0 66.5 -19t50 -42.5t45.5 -42.5t53 -19q45 0 64.5 26.5t21.5 86.5h42q-2 -81 -30.5 -118.5t-94.5 -37.5q-39 0 -66.5 19t-50 42.5t-45.5 42.5t-53 19q-45 0 -64.5 -26.5t-21.5 -86.5h-42q2 81 30.5 118.5t94.5 37.5z" />
    <glyph glyph-name="uni20A9" unicode="&#x20a9;" horiz-adv-x="937" 
d="M29 392h99l-30 111q-11 43 -20.5 82t-17.5 74h48q7 -31 15.5 -65t18.5 -71l35 -131h202q8 30 16 61t16 63q10 35 18 68t15 63h49q7 -30 15 -63t17 -68l33 -124h201l36 131q10 37 18.5 71t15.5 65h48q-17 -71 -39 -156q-14 -56 -30 -111h98v-39h-109l-6 -21
q-24 -88 -50 -170t-50 -149h-61q-13 39 -28 82.5t-29.5 87.5t-26.5 85.5t-20 76.5l-2 8h-111l-2 -8q-8 -35 -20.5 -76.5t-26.5 -85.5t-29 -87.5t-28 -82.5h-61q-24 67 -50 149t-51 170l-6 21h-110v39zM749 353h-180l18 -66q20 -67 38 -126.5t33 -100.5h1q15 41 33.5 100.5
t38.5 126.5zM349 287l19 66h-181q5 -17 9.5 -33t9.5 -33q20 -67 38.5 -126.5t33.5 -100.5h1l21 63l24 77zM468 586l-22 -102l-22 -92h89q-7 25 -12 47.5t-10 44.5l-22 102h-1z" />
    <glyph glyph-name="uni2010" unicode="&#x2010;" horiz-adv-x="320" 
d="M30 265h260v-39h-260v39z" />
    <glyph glyph-name="copyright" unicode="&#xa9;" horiz-adv-x="832" 
d="M45 336q0 96 21.5 165.5t66.5 114.5t115 66.5t168 21.5q97 0 167.5 -21.5t115.5 -66.5t66.5 -114.5t21.5 -165.5t-21.5 -165.5t-66.5 -114.5t-115.5 -66.5t-167.5 -21.5q-98 0 -168 21.5t-115 66.5t-66.5 114.5t-21.5 165.5zM78 336q0 -90 19.5 -154t60.5 -105t105 -60
t153 -19t153 19t105 60t60.5 105t19.5 154t-19 154t-60 105t-105 60t-154 19t-154 -19t-105 -60t-60 -105t-19 -154zM234 336q0 114 46 165t148 51q63 0 117 -16v-35q-28 8 -55.5 13t-56.5 5q-86 0 -122.5 -42.5t-36.5 -140.5t36.5 -140.5t122.5 -42.5q29 0 56.5 5t55.5 13
v-35q-54 -16 -117 -16q-102 0 -148 51t-46 165z" />
    <glyph glyph-name="glyph99" horiz-adv-x="916" 
d="M457 672h39l156 -248l158 248h39v-416h-37v357l-147 -229h-28l-143 229v-357h-37v416zM175 639h-150v33h340v-33h-151v-383h-39v383z" />
    <glyph glyph-name="glyph100" horiz-adv-x="732" 
d="M70 49q0 20 8.5 28.5t29.5 8.5q20 0 29 -8.5t9 -28.5q0 -38 -38 -38q-21 0 -29.5 9t-8.5 29zM328 49q0 20 8.5 28.5t29.5 8.5q20 0 29 -8.5t9 -28.5q0 -38 -38 -38q-21 0 -29.5 9t-8.5 29zM586 49q0 20 8.5 28.5t29.5 8.5q20 0 29 -8.5t9 -28.5q0 -38 -38 -38
q-21 0 -29.5 9t-8.5 29z" />
    <glyph glyph-name="uni3000" unicode="&#x3000;" horiz-adv-x="850" 
 />
    <glyph glyph-name="uni3000" unicode="&#x3164;" horiz-adv-x="850" 
 />
    <glyph glyph-name="uni3001" unicode="&#x3001;" horiz-adv-x="850" 
d="M251 -66v-109l-211 156v41z" />
    <glyph glyph-name="uni3002" unicode="&#x3002;" horiz-adv-x="850" 
d="M160 60q23 0 43 -8.5t35 -23.5t23.5 -35t8.5 -43t-8.5 -43t-23.5 -35t-35 -23.5t-43 -8.5t-43 8.5t-35 23.5t-23.5 35t-8.5 43t8.5 43t23.5 35t35 23.5t43 8.5zM160 -113q25 0 43.5 19t18.5 44t-18.5 44t-43.5 19t-43.5 -19t-18.5 -44t18.5 -44t43.5 -19z" />
    <glyph glyph-name="periodcentered" unicode="&#xb7;" horiz-adv-x="216" 
d="M70 317q0 20 8.5 28.5t29.5 8.5q20 0 29 -8.5t9 -28.5q0 -38 -38 -38q-21 0 -29.5 9t-8.5 29z" />
    <glyph glyph-name="periodcentered" unicode="&#x30fb;" horiz-adv-x="216" 
d="M70 317q0 20 8.5 28.5t29.5 8.5q20 0 29 -8.5t9 -28.5q0 -38 -38 -38q-21 0 -29.5 9t-8.5 29z" />
    <glyph glyph-name="twodotenleader" unicode="&#x2025;" horiz-adv-x="474" 
d="M70 317q0 20 8.5 28.5t29.5 8.5q20 0 29 -8.5t9 -28.5q0 -38 -38 -38q-21 0 -29.5 9t-8.5 29zM328 317q0 20 8.5 28.5t29.5 8.5q20 0 29 -8.5t9 -28.5q0 -38 -38 -38q-21 0 -29.5 9t-8.5 29z" />
    <glyph glyph-name="ellipsis" unicode="&#x2026;" horiz-adv-x="732" 
d="M70 317q0 20 8.5 28.5t29.5 8.5q20 0 29 -8.5t9 -28.5q0 -38 -38 -38q-21 0 -29.5 9t-8.5 29zM328 317q0 20 8.5 28.5t29.5 8.5q20 0 29 -8.5t9 -28.5q0 -38 -38 -38q-21 0 -29.5 9t-8.5 29zM586 317q0 20 8.5 28.5t29.5 8.5q20 0 29 -8.5t9 -28.5q0 -38 -38 -38
q-21 0 -29.5 9t-8.5 29z" />
    <glyph glyph-name="ellipsis" unicode="&#x22ef;" horiz-adv-x="732" 
d="M70 317q0 20 8.5 28.5t29.5 8.5q20 0 29 -8.5t9 -28.5q0 -38 -38 -38q-21 0 -29.5 9t-8.5 29zM328 317q0 20 8.5 28.5t29.5 8.5q20 0 29 -8.5t9 -28.5q0 -38 -38 -38q-21 0 -29.5 9t-8.5 29zM586 317q0 20 8.5 28.5t29.5 8.5q20 0 29 -8.5t9 -28.5q0 -38 -38 -38
q-21 0 -29.5 9t-8.5 29z" />
    <glyph glyph-name="dieresis" unicode="&#xa8;" horiz-adv-x="408" 
d="M263 637q0 35 35 35t35 -35q0 -34 -35 -34t-35 34zM75 637q0 35 35 35t35 -35q0 -34 -35 -34t-35 34z" />
    <glyph glyph-name="uni3003" unicode="&#x3003;" horiz-adv-x="850" 
d="M639 446l-204 -309h-44l132 309h116zM459 446l-204 -309h-44l132 309h116z" />
    <glyph glyph-name="uni00AD" unicode="&#xad;" horiz-adv-x="320" 
d="M30 265h260v-39h-260v39z" />
    <glyph glyph-name="uni00AD" unicode="&#x2013;" horiz-adv-x="320" 
d="M30 265h260v-39h-260v39z" />
    <glyph glyph-name="emdash" unicode="&#x2014;" horiz-adv-x="864" 
d="M29 265h806v-39h-806v39z" />
    <glyph glyph-name="emdash" unicode="&#x2015;" horiz-adv-x="864" 
d="M29 265h806v-39h-806v39z" />
    <glyph glyph-name="uni2016" unicode="&#x2016;" horiz-adv-x="850" 
d="M543 -171h-70v912h70v-912zM377 -171h-70v912h70v-912z" />
    <glyph glyph-name="uniFF3C" unicode="&#xff3c;" horiz-adv-x="850" 
d="M816 -94l-41 -41l-741 818l40 43z" />
    <glyph glyph-name="similar" unicode="&#x223c;" horiz-adv-x="576" 
d="M179 371q39 0 66.5 -19t50 -42.5t45.5 -42.5t53 -19q45 0 64.5 26.5t21.5 86.5h42q-2 -81 -30.5 -118.5t-94.5 -37.5q-39 0 -66.5 19t-50 42.5t-45.5 42.5t-53 19q-45 0 -64.5 -26.5t-21.5 -86.5h-42q2 81 30.5 118.5t94.5 37.5z" />
    <glyph glyph-name="similar" unicode="&#xff5e;" horiz-adv-x="576" 
d="M179 371q39 0 66.5 -19t50 -42.5t45.5 -42.5t53 -19q45 0 64.5 26.5t21.5 86.5h42q-2 -81 -30.5 -118.5t-94.5 -37.5q-39 0 -66.5 19t-50 42.5t-45.5 42.5t-53 19q-45 0 -64.5 -26.5t-21.5 -86.5h-42q2 81 30.5 118.5t94.5 37.5z" />
    <glyph glyph-name="similar" unicode="&#x301c;" horiz-adv-x="576" 
d="M179 371q39 0 66.5 -19t50 -42.5t45.5 -42.5t53 -19q45 0 64.5 26.5t21.5 86.5h42q-2 -81 -30.5 -118.5t-94.5 -37.5q-39 0 -66.5 19t-50 42.5t-45.5 42.5t-53 19q-45 0 -64.5 -26.5t-21.5 -86.5h-42q2 81 30.5 118.5t94.5 37.5z" />
    <glyph glyph-name="quoteleft" unicode="&#x2018;" horiz-adv-x="220" 
d="M124 672h40l-57 -209h-53z" />
    <glyph glyph-name="quoteright" unicode="&#x2019;" horiz-adv-x="220" 
d="M96 463h-41l58 209h53z" />
    <glyph glyph-name="quotedblleft" unicode="&#x201c;" horiz-adv-x="407" 
d="M124 672h40l-57 -209h-53zM312 672h40l-57 -209h-53z" />
    <glyph glyph-name="quotedblright" unicode="&#x201d;" horiz-adv-x="407" 
d="M96 463h-41l58 209h53zM284 463h-41l58 209h53z" />
    <glyph glyph-name="uni3014" unicode="&#x3014;" horiz-adv-x="328" 
d="M284 -78l-18 -31l-222 123v579l221 123l19 -31l-206 -114v-535z" />
    <glyph glyph-name="uni3015" unicode="&#x3015;" horiz-adv-x="328" 
d="M283 14l-220 -123l-18 31l205 114v535l-205 114l18 31l220 -123v-579z" />
    <glyph glyph-name="uni3008" unicode="&#x3008;" horiz-adv-x="411" 
d="M375 -89l-19 -17l-320 409l320 409l19 -17l-307 -392z" />
    <glyph glyph-name="uni3009" unicode="&#x3009;" horiz-adv-x="411" 
d="M375 303l-319 -409l-20 17l307 392l-307 392l19 17z" />
    <glyph glyph-name="uni300A" unicode="&#x300a;" horiz-adv-x="408" 
d="M384 -109l-21 -14l-247 426l247 426l21 -13l-237 -413zM293 -109l-23 -14l-246 426l246 426l23 -13l-237 -413z" />
    <glyph glyph-name="uni300B" unicode="&#x300b;" horiz-adv-x="408" 
d="M384 303l-247 -426l-21 14l237 412l-237 413l21 13zM291 303l-245 -426l-22 14l237 412l-237 413l22 13z" />
    <glyph glyph-name="uni300C" unicode="&#x300c;" horiz-adv-x="301" 
d="M283 721h-229v-338h-36v369h265v-31z" />
    <glyph glyph-name="uni300D" unicode="&#x300d;" horiz-adv-x="301" 
d="M284 -157h-267v31h229v338h38v-369z" />
    <glyph glyph-name="uni300E" unicode="&#x300e;" horiz-adv-x="287" 
d="M266 663h-143v-280h-102v379h245v-99zM244 685v55h-198v-335h52v280h146z" />
    <glyph glyph-name="uni300F" unicode="&#x300f;" horiz-adv-x="287" 
d="M266 -166h-245v99h142v280h103v-379zM241 -143v335h-53v-281h-145v-54h198z" />
    <glyph glyph-name="uni3010" unicode="&#x3010;" horiz-adv-x="360" 
d="M334 712q-50 -33 -91 -77t-70.5 -96.5t-45 -112t-15.5 -123.5q1 -128 58 -233.5t163 -174.5h-307v817h308z" />
    <glyph glyph-name="uni3011" unicode="&#x3011;" horiz-adv-x="360" 
d="M333 -105h-305q105 69 162 174.5t58 233.5q0 64 -15.5 123.5t-44.5 112t-70 96.5t-91 77h306v-817z" />
    <glyph glyph-name="plusminus" unicode="&#xb1;" horiz-adv-x="576" 
d="M77 42h422v-42h-422v42zM77 385h190v189h42v-189h190v-42h-190v-190h-42v190h-190v42z" />
    <glyph glyph-name="multiply" unicode="&#xd7;" horiz-adv-x="576" 
d="M102 131l157 157l-157 157l29 29l157 -157l157 157l29 -29l-157 -157l157 -157l-29 -29l-157 157l-157 -157z" />
    <glyph glyph-name="divide" unicode="&#xf7;" horiz-adv-x="576" 
d="M77 308h422v-40h-422v40zM254 464q0 33 34 33t34 -33t-34 -33t-34 33zM254 112q0 33 34 33t34 -33t-34 -33t-34 33z" />
    <glyph glyph-name="notequal" unicode="&#x2260;" horiz-adv-x="576" 
d="M77 215h164l49 146h-213v42h227l57 173h46l-58 -173h150v-42h-165l-48 -146h213v-42h-227l-57 -173h-46l58 173h-150v42z" />
    <glyph glyph-name="lessequal" unicode="&#x2264;" horiz-adv-x="576" 
d="M77 42h422v-42h-422v42zM77 339v49l422 176v-45l-372 -155l372 -156v-45z" />
    <glyph glyph-name="greaterequal" unicode="&#x2265;" horiz-adv-x="576" 
d="M77 42h422v-42h-422v42zM499 388v-49l-422 -176v45l372 156l-372 155v45z" />
    <glyph glyph-name="infinity" unicode="&#x221e;" horiz-adv-x="777" 
d="M42 288q0 97 38.5 140.5t123.5 43.5q33 0 59.5 -7.5t48 -25t40 -45.5t36.5 -70q18 42 36.5 70t40 45.5t48 25t59.5 7.5q87 0 124.5 -43.5t37.5 -140.5t-37.5 -140.5t-124.5 -43.5q-33 0 -59.5 7.5t-48 25t-40 45.5t-36.5 70q-18 -42 -36.5 -70t-40 -45.5t-48 -25
t-59.5 -7.5q-85 0 -123.5 43.5t-38.5 140.5zM87 288q0 -78 28 -111t94 -33q28 0 49 6.5t39 23t34 44.5t33 70q-17 42 -33 69.5t-34 44t-39.5 23.5t-48.5 7q-66 0 -94 -33t-28 -111zM690 288q0 78 -28 111t-94 33q-28 0 -49.5 -7t-39.5 -23.5t-34 -44t-33 -69.5
q17 -42 33 -70t34 -44.5t39.5 -23t49.5 -6.5q66 0 94 33t28 111z" />
    <glyph glyph-name="therefore" unicode="&#x2234;" horiz-adv-x="850" 
d="M472 468q0 -17 -12 -31.5t-35 -14.5q-22 0 -33.5 13t-12.5 30q-2 18 9.5 34t36.5 16q24 0 35.5 -15t11.5 -32zM701 78q-2 -15 -13.5 -26.5t-32.5 -11.5q-23 0 -34.5 13.5t-11.5 30.5q-1 18 10.5 33t35.5 15q26 0 37.5 -17t8.5 -37zM242 84q0 -17 -11.5 -30.5t-34.5 -13.5
q-24 0 -36 15t-11 32q0 17 12 31t35 14q24 0 35.5 -15t10.5 -33z" />
    <glyph glyph-name="degree" unicode="&#xb0;" horiz-adv-x="332" 
d="M52 567q0 55 29.5 84.5t84.5 29.5t84.5 -29.5t29.5 -84.5q0 -54 -29.5 -83.5t-84.5 -29.5q-57 0 -85.5 29.5t-28.5 83.5zM84 567q0 -82 82 -82t82 82q0 83 -82 83t-82 -83z" />
    <glyph glyph-name="minute" unicode="&#x2032;" horiz-adv-x="499" 
d="M346 744l-163 -247h-30l97 247h96z" />
    <glyph glyph-name="second" unicode="&#x2033;" horiz-adv-x="504" 
d="M434 744l-163 -247h-31l97 247h97zM263 744l-162 -247h-31l97 247h96z" />
    <glyph glyph-name="uni2103" unicode="&#x2103;" horiz-adv-x="730" 
d="M690 234q-7 -50 -28.5 -87.5t-53 -63t-70.5 -38.5t-81 -13q-71 0 -122 25.5t-83.5 67.5t-48 96.5t-15.5 113.5q0 61 19 116t54.5 96.5t85 66t110.5 24.5q20 0 45.5 -5t51 -18.5t47.5 -37.5t35 -62v112h50v-203h-50q-17 88 -62.5 127.5t-114.5 39.5q-60 0 -102 -24.5
t-68.5 -61.5t-38.5 -80.5t-12 -82.5q0 -53 10 -100.5t35 -83.5t67.5 -57.5t107.5 -21.5q30 0 59.5 9.5t54.5 28.5t42.5 48t23.5 69h52zM70 615q0 -32 20.5 -51.5t52.5 -19.5t52.5 19.5t20.5 51.5t-20.5 51.5t-52.5 19.5t-52.5 -19.5t-20.5 -51.5zM43 615q0 42 27.5 70.5
t72.5 28.5t72.5 -28.5t27.5 -70.5t-27.5 -70.5t-72.5 -28.5t-72.5 28.5t-27.5 70.5z" />
    <glyph glyph-name="uni212B" unicode="&#x212b;" horiz-adv-x="717" 
d="M488 -98v38h77l-41 106h-346l-42 -106h79v-38h-175v38h49l226 527h90l213 -527h59v-38h-189zM376 430h-30l-144 -341h306zM287 586q0 -32 20.5 -51.5t52.5 -19.5t52.5 19.5t20.5 51.5t-20.5 51.5t-52.5 19.5t-52.5 -19.5t-20.5 -51.5zM260 586q0 42 27.5 70.5t72.5 28.5
t72.5 -28.5t27.5 -70.5t-27.5 -70.5t-72.5 -28.5t-72.5 28.5t-27.5 70.5z" />
    <glyph glyph-name="cent" unicode="&#xa2;" horiz-adv-x="850" 
d="M281 50q-54 42 -79 109t-25 142q0 61 16 116t49 96.5t83.5 66t120.5 24.5q15 0 33 -2.5t37 -9.5l49 112l38 -15l-50 -115q22 -14 41 -36.5t31 -56.5v112h50v-203h-50q-11 56 -33.5 91.5t-55.5 54.5l-203 -467q23 -11 51 -17.5t63 -6.5q30 0 59.5 8.5t54 27.5t42.5 48.5
t24 70.5h52q-7 -50 -28.5 -87.5t-53 -63t-70.5 -38.5t-81 -13q-39 0 -71.5 8t-59.5 22l-59 -137l-36 18zM227 308q0 -66 15.5 -122.5t56.5 -92.5l199 458q-23 6 -50 6q-67 0 -110 -24.5t-67.5 -61.5t-34 -80.5t-9.5 -82.5z" />
    <glyph glyph-name="cent" unicode="&#xffe0;" horiz-adv-x="850" 
d="M281 50q-54 42 -79 109t-25 142q0 61 16 116t49 96.5t83.5 66t120.5 24.5q15 0 33 -2.5t37 -9.5l49 112l38 -15l-50 -115q22 -14 41 -36.5t31 -56.5v112h50v-203h-50q-11 56 -33.5 91.5t-55.5 54.5l-203 -467q23 -11 51 -17.5t63 -6.5q30 0 59.5 8.5t54 27.5t42.5 48.5
t24 70.5h52q-7 -50 -28.5 -87.5t-53 -63t-70.5 -38.5t-81 -13q-39 0 -71.5 8t-59.5 22l-59 -137l-36 18zM227 308q0 -66 15.5 -122.5t56.5 -92.5l199 458q-23 6 -50 6q-67 0 -110 -24.5t-67.5 -61.5t-34 -80.5t-9.5 -82.5z" />
    <glyph glyph-name="sterling" unicode="&#xa3;" horiz-adv-x="489" 
d="M43 40h93v282h-77v40h77v117q0 108 48.5 156.5t156.5 48.5q56 0 110 -14v-42q-51 15 -104 15q-87 0 -124 -38.5t-37 -126.5v-116h211v-40h-211v-282h273v-40h-416v40z" />
    <glyph glyph-name="sterling" unicode="&#xffe1;" horiz-adv-x="489" 
d="M43 40h93v282h-77v40h77v117q0 108 48.5 156.5t156.5 48.5q56 0 110 -14v-42q-51 15 -104 15q-87 0 -124 -38.5t-37 -126.5v-116h211v-40h-211v-282h273v-40h-416v40z" />
    <glyph glyph-name="yen" unicode="&#xa5;" horiz-adv-x="556" 
d="M253 148h-173v34h173v113h-173v34h159l-225 343h56l208 -322l208 322h56l-225 -343h159v-34h-173v-113h173v-34h-173v-148h-50v148z" />
    <glyph glyph-name="yen" unicode="&#xffe5;" horiz-adv-x="556" 
d="M253 148h-173v34h173v113h-173v34h159l-225 343h56l208 -322l208 322h56l-225 -343h159v-34h-173v-113h173v-34h-173v-148h-50v148z" />
    <glyph glyph-name="male" unicode="&#x2642;" horiz-adv-x="553" 
d="M503 396l-29 -23l-181 233v-399l10.5 -2t26.5 -8t34.5 -16.5t34 -28.5t26 -43.5t10.5 -61.5t-13.5 -66t-35.5 -51t-50 -32.5t-57 -12.5q-32 -1 -61.5 10.5t-52 32t-36.5 49t-15 60.5q-1 28 5 51t16 40t23 29.5t27 21.5q33 20 74 27v400l-180 -229l-29 21l226 286zM399 44
q0 31 -9.5 54.5t-26 39.5t-39.5 24.5t-50 8.5q-26 0 -49 -10t-40 -27.5t-26.5 -42t-7.5 -53.5q1 -26 12 -47.5t28.5 -37.5t40 -24.5t46.5 -7.5q19 0 40.5 8.5t39.5 24t29.5 38t11.5 52.5z" />
    <glyph glyph-name="female" unicode="&#x2640;" horiz-adv-x="656" 
d="M606 204h-263v-316h-34v316h-259v36h259v119q-41 7 -73 27q-14 9 -27 21t-23 29.5t-16 40t-6 51.5q0 31 13 59.5t35.5 50.5t52.5 35t65 12q30 -1 58.5 -13t51 -33t36.5 -50.5t14 -64.5q0 -38 -11 -65t-27 -45.5t-35 -29t-35.5 -16t-27.5 -7l-11 -1.5v-120h263v-36z
M454 526q-2 28 -14 51t-30 39t-40 24.5t-43 8.5q-22 0 -43.5 -9.5t-39.5 -25t-30 -37.5t-13 -47q-2 -29 8.5 -53.5t28 -42.5t39.5 -28.5t45 -11.5q27 -1 51.5 8t43 26.5t28.5 42.5t9 55z" />
    <glyph glyph-name="angle" unicode="&#x2220;" horiz-adv-x="850" 
d="M710 28h-533h-7h-11t-11 1.5t-6 4.5q-3 4 -0.5 9.5t6 10.5t7.5 9l6 6l500 478l24 -23l-488 -463h513v-33z" />
    <glyph glyph-name="perpendicular" unicode="&#x22a5;" horiz-adv-x="850" 
d="M714 28h-578v33h272v495h34v-495h272v-33z" />
    <glyph glyph-name="uni2312" unicode="&#x2312;" horiz-adv-x="850" 
d="M684 301q-5 32 -24.5 70.5t-52.5 72t-78.5 56t-102.5 22.5q-58 0 -104.5 -25t-80 -60t-53 -73t-23.5 -63h-45q8 51 35 98t68 83t93 57.5t109 21.5q58 0 109.5 -19.5t92 -54t67.5 -82t36 -104.5h-46z" />
    <glyph glyph-name="partialdiff" unicode="&#x2202;" horiz-adv-x="390" 
d="M330 250q-10 -34 -32 -62.5t-49.5 -48.5t-58 -31t-58 -10.5t-49.5 13t-31 40.5q-4 12 -0.5 31t18.5 39.5t44 39.5t77 30q46 11 64 15t20 4v10t-2 24t-7 30t-16 28t-28.5 17.5t-43.5 -0.5q-19 -5 -34 -15.5t-27 -21t-20.5 -17t-14.5 -3.5t3.5 18t29 31.5t47.5 28.5t60 9
q33 -3 58.5 -19t40.5 -42t18 -61t-9 -77zM269 279l-13 -0.5t-31 -3.5t-39 -10.5t-37 -21.5q-30 -26 -40.5 -56t5.5 -48q10 -11 24 -12.5t28 4t27.5 16t23.5 24.5q12 17 21.5 36t16.5 35q8 18 14 37z" />
    <glyph glyph-name="gradient" unicode="&#x2207;" horiz-adv-x="850" 
d="M786 570l-361 -559l-361 559h722zM670 508h-490l245 -379z" />
    <glyph glyph-name="equivalence" unicode="&#x2261;" horiz-adv-x="712" 
d="M662 407h-612v32h612v-32zM662 267h-612v32h612v-32zM662 128h-612v32h612v-32z" />
    <glyph glyph-name="uni2252" unicode="&#x2252;" horiz-adv-x="712" 
d="M662 354h-612v33h612v-33zM229 501q-1 -19 -14 -34.5t-39 -15.5t-39 15t-15 35q-2 21 11 39t41 18q29 1 42.5 -17.5t12.5 -39.5zM585 75q1 -20 -12 -37.5t-41 -18.5t-41.5 17t-12.5 39q1 20 13.5 35.5t38.5 15.5t40 -15.5t15 -35.5zM662 194h-612v33h612v-33z" />
    <glyph glyph-name="section" unicode="&#xa7;" horiz-adv-x="550" 
d="M76 521q0 87 50.5 125t164.5 38q95 0 173 -24v-42q-84 26 -170 26q-91 0 -129.5 -28.5t-38.5 -94.5q0 -45 27 -68.5t68 -37.5t88.5 -24t88.5 -28.5t68 -51t27 -91.5q0 -76 -46 -118q14 -17 22 -39.5t8 -51.5q0 -87 -51 -127t-167 -40q-54 0 -101.5 8t-92.5 22v42
q93 -32 191 -32q93 0 132 30t39 97q0 47 -27 72t-68 39.5t-88.5 24.5t-88.5 28t-68 49t-27 88q0 77 48 118q-15 17 -23.5 39t-8.5 52zM109 313q0 -35 16 -57.5t41.5 -37t58 -23.5t66 -17.5t64.5 -20t54 -30.5q35 32 35 92q0 36 -15.5 59t-40.5 38t-57 24.5t-65 18.5
t-64 19.5t-55 28.5q-38 -29 -38 -94z" />
    <glyph glyph-name="uni203B" unicode="&#x203b;" horiz-adv-x="850" 
d="M734 33l-32 -34l-279 279l-276 -279l-31 33l277 279l-276 275l32 32l273 -278l276 279l36 -32l-280 -276zM718 312q2 -24 -13 -44.5t-47 -20.5q-30 0 -46 18t-16 41q-1 23 14.5 42.5t46.5 19.5q29 0 44.5 -17t17.5 -39h-1zM483 75q0 -23 -15 -41.5t-45 -18.5t-46 18.5
t-16 41.5t15 42t46 19q30 0 45.5 -19t15.5 -42zM483 540q0 -23 -15 -41.5t-45 -18.5q-32 0 -47 20t-14 43q1 22 16 40t44 18q30 0 45 -19t15 -42h1zM252 303q-2 -22 -16.5 -39t-43.5 -17q-31 0 -44.5 18t-12.5 41t14 42.5t42 19.5q32 0 47 -20.5t13 -44.5h1z" />
    <glyph glyph-name="uni2606" unicode="&#x2606;" horiz-adv-x="850" 
d="M818 403l-240 -178l100 -286l-252 176l-254 -176l100 286l-240 178h299l94 273l93 -273h300zM706 365h-214l-66 195l-67 -195h-215l174 -127l-71 -200l178 125l178 -125l-71 200z" />
    <glyph glyph-name="uni2605" unicode="&#x2605;" horiz-adv-x="850" 
d="M818 412l-240 -178l100 -286l-252 176l-254 -176l100 286l-240 178h299l94 273l93 -273h300z" />
    <glyph glyph-name="circle" unicode="&#x25cb;" horiz-adv-x="850" 
d="M556 301q0 28 -11 52.5t-30 42.5t-44 28.5t-53 9.5q-27 -1 -51 -11.5t-42 -28.5t-28.5 -42t-10.5 -51t10 -51.5t28 -42.5t42 -29t52 -12t53 9.5t44 28.5t30 43t11 54zM680 308q0 -55 -20.5 -102.5t-56.5 -82.5t-84.5 -54.5t-103.5 -17.5q-51 1 -96 22t-78.5 56t-52.5 81
t-18 98q1 51 20 96.5t52 79t77.5 53.5t95.5 22q54 1 102 -17.5t84 -52.5t57.5 -80.5t21.5 -100.5z" />
    <glyph glyph-name="H18533" unicode="&#x25cf;" horiz-adv-x="850" 
d="M680 308q0 -55 -20.5 -102.5t-56.5 -82.5t-84.5 -54.5t-103.5 -17.5q-51 1 -96 22t-78.5 56t-52.5 81t-18 98q1 51 20 96.5t52 79t77.5 53.5t95.5 22q54 1 102 -17.5t84 -52.5t57.5 -80.5t21.5 -100.5z" />
    <glyph glyph-name="uni25CE" unicode="&#x25ce;" horiz-adv-x="850" 
d="M816 313q1 -84 -30.5 -156.5t-87 -125.5t-129.5 -82.5t-157 -27.5q-80 2 -149.5 34t-120.5 85.5t-80.5 123.5t-27.5 149q1 79 31 148t81 121t119.5 83t146.5 33q81 3 154 -26t128.5 -81t88 -123.5t33.5 -154.5zM771 312q0 73 -29 136.5t-78.5 109.5t-114.5 71.5
t-137 23.5q-70 -2 -130.5 -29.5t-106 -73.5t-71.5 -107t-27 -131t24.5 -132.5t71 -109.5t107 -75.5t132.5 -30.5q74 -3 139.5 23t114.5 73.5t77 112t28 139.5zM676 311q0 -55 -20.5 -102.5t-56.5 -82.5t-84.5 -54.5t-103.5 -17.5q-51 1 -96 22t-78.5 56t-52.5 81t-18 98
q1 51 20 96.5t52 79t77.5 53.5t95.5 22q54 1 102 -17.5t84 -52.5t57.5 -80.5t21.5 -100.5zM636 309q0 46 -18 85.5t-49 68.5t-72 44.5t-86 14.5q-43 -2 -81 -19t-66 -45.5t-44.5 -67t-16.5 -81.5q0 -44 16 -82.5t44.5 -68t66 -47t81.5 -18.5q46 -1 87 15t72 45.5t48.5 69.5
t17.5 86z" />
    <glyph glyph-name="uni25C7" unicode="&#x25c7;" horiz-adv-x="850" 
d="M739 313l-314 -310l-314 310l313 313zM591 313l-167 164l-165 -164l164 -163z" />
    <glyph glyph-name="uni25C6" unicode="&#x25c6;" horiz-adv-x="850" 
d="M739 313l-314 -310l-314 310l313 313z" />
    <glyph glyph-name="H22073" unicode="&#x25a1;" horiz-adv-x="850" 
d="M768 -38h-686v680h686v-680zM702 28v548h-555v-548h555z" />
    <glyph glyph-name="filledbox" unicode="&#x25a0;" horiz-adv-x="850" 
d="M768 -38h-686v680h686v-680z" />
    <glyph glyph-name="uni25B3" unicode="&#x25b3;" horiz-adv-x="850" 
d="M807 9h-764l382 591zM717 57l-292 451l-292 -451h584z" />
    <glyph glyph-name="triagup" unicode="&#x25b2;" horiz-adv-x="850" 
d="M807 9h-764l382 591z" />
    <glyph glyph-name="uni25BD" unicode="&#x25bd;" horiz-adv-x="850" 
d="M807 585l-382 -591l-382 591h764zM717 537h-584l292 -452z" />
    <glyph glyph-name="triagdn" unicode="&#x25bc;" horiz-adv-x="850" 
d="M785 542l-360 -531l-360 531h720z" />
    <glyph glyph-name="arrowright" unicode="&#x2192;" horiz-adv-x="864" 
d="M726 310l-241 240h65l262 -262l-262 -262h-65l241 240h-668v44h668z" />
    <glyph glyph-name="arrowleft" unicode="&#x2190;" horiz-adv-x="864" 
d="M138 266l241 -240h-65l-262 262l262 262h65l-241 -240h668v-44h-668z" />
    <glyph glyph-name="arrowup" unicode="&#x2191;" horiz-adv-x="864" 
d="M410 582l-240 -241v65l262 262l262 -262v-65l-240 241v-668h-44v668z" />
    <glyph glyph-name="arrowdown" unicode="&#x2193;" horiz-adv-x="864" 
d="M454 -6l240 241v-65l-262 -262l-262 262v65l240 -241v668h44v-668z" />
    <glyph glyph-name="arrowboth" unicode="&#x2194;" horiz-adv-x="850" 
d="M836 324l-181 -163v120h-459v-120l-182 163l181 162v-120h459v120z" />
    <glyph glyph-name="uni3013" unicode="&#x3013;" horiz-adv-x="850" 
d="M731 376h-612v32h612v-32zM731 219h-612v32h612v-32z" />
    <glyph glyph-name="guillemotleft" unicode="&#xab;" horiz-adv-x="471" 
d="M92 241l135 -188h-47l-141 188l141 189h47zM296 241l134 -188h-46l-141 188l141 189h46z" />
    <glyph glyph-name="guillemotleft" unicode="&#x226a;" horiz-adv-x="471" 
d="M92 241l135 -188h-47l-141 188l141 189h47zM296 241l134 -188h-46l-141 188l141 189h46z" />
    <glyph glyph-name="guillemotright" unicode="&#xbb;" horiz-adv-x="471" 
d="M176 241l-135 189h46l141 -189l-141 -188h-46zM379 241l-135 189h47l141 -189l-141 -188h-47z" />
    <glyph glyph-name="guillemotright" unicode="&#x226b;" horiz-adv-x="471" 
d="M176 241l-135 189h46l141 -189l-141 -188h-46zM379 241l-135 189h47l141 -189l-141 -188h-47z" />
    <glyph glyph-name="radical" unicode="&#x221a;" horiz-adv-x="668" 
d="M369 -208h-51l-121 359l-182 -62v45l209 70l119 -352l242 820h43z" />
    <glyph glyph-name="uni223D" unicode="&#x223d;" horiz-adv-x="777" 
d="M739 381q13 -38 6.5 -76.5t-27.5 -70.5t-54.5 -53.5t-76.5 -24.5q-25 -2 -45.5 2.5t-35.5 10.5t-23.5 12l-8.5 6l14 27l9 -5t24 -10.5t34 -9t40.5 0t43.5 15.5t42 38q27 34 30 73t-13 73t-47 57t-73 25q-27 1 -49 -5.5t-40.5 -20.5t-35 -36t-33.5 -51q-6 -10 -15 -29.5
t-22.5 -42t-31 -45.5t-40.5 -41.5t-51.5 -29.5t-63.5 -9q-31 2 -60.5 14t-52.5 34.5t-37.5 55.5t-15.5 77q-1 25 11.5 53.5t35 53t54 40.5t68.5 16q24 -1 42.5 -5.5t32.5 -9.5q16 -6 28 -14l-16 -28q-11 8 -25 14q-12 5 -28.5 9t-36.5 3q-24 -2 -46 -11.5t-39.5 -26t-29 -39
t-14.5 -49.5q-3 -32 5.5 -59t26.5 -48t44.5 -33.5t58.5 -13.5q39 -2 69 16.5t51.5 45.5t37 56.5t26.5 50.5q14 26 32.5 52.5t42 46.5t52.5 32t64 10q60 -4 102.5 -37t59.5 -86z" />
    <glyph glyph-name="proportional" unicode="&#x221d;" horiz-adv-x="689" 
d="M642 440l-7.5 4.5t-20 8.5t-31 6t-40.5 -2q-36 -6 -62 -29t-43.5 -48t-25.5 -45l-8 -20l9.5 -21t29 -46.5t48 -47t65.5 -24.5q21 -2 36.5 1.5t26.5 8t17 8.5l6 4l14 -27l-6 -5t-18 -10.5t-31 -9t-46 -1.5q-44 4 -76 26.5t-52.5 48t-31 45.5l-10.5 20q-1 0 -6 -11
t-15 -27.5t-26 -36t-38 -35t-50.5 -24t-64.5 -4.5q-33 4 -62 19.5t-50 39.5t-32.5 54.5t-10.5 65.5q1 33 14 63t35.5 52.5t52 36.5t63.5 16t61 -7.5t48.5 -26t37 -36t25.5 -36.5t15 -28.5l5 -11.5q1 0 11.5 21.5t31.5 48t52.5 49t74.5 24.5q29 1 48.5 -3t31.5 -9
q14 -6 22 -14zM368 317l-4 11.5t-13 28.5t-22.5 36.5t-33 35.5t-45 25.5t-56.5 7.5q-24 -2 -47 -13.5t-41 -29.5t-29 -42.5t-12 -51.5q-1 -30 9 -55.5t27 -44t40 -30.5t48 -15q48 -6 81.5 14.5t55.5 47.5q26 32 42 75z" />
    <glyph glyph-name="uni2235" unicode="&#x2235;" horiz-adv-x="850" 
d="M680 507q3 -11 1 -23t-9 -22t-18 -16t-26 -6q-26 0 -39 15t-15 34q-2 21 11.5 39.5t42.5 18.5q23 0 35.5 -11.5t16.5 -28.5zM275 507q2 -22 -11.5 -41.5t-41.5 -19.5q-27 0 -40.5 17.5t-13.5 37.5t13.5 36.5t40.5 16.5q25 0 38 -14.5t15 -32.5zM473 153q3 -23 -10.5 -43
t-42.5 -20q-26 0 -38.5 15.5t-13.5 35.5q-2 20 11.5 38t40.5 18q24 0 37.5 -13.5t15.5 -30.5z" />
    <glyph glyph-name="integral" unicode="&#x222b;" horiz-adv-x="393" 
d="M94 575q0 75 33.5 108t105.5 33q34 0 63 -6v-42q-25 7 -56 7q-54 0 -77 -24t-23 -79q0 -34 12 -85t29.5 -111.5t38 -125t38 -125.5t29.5 -114t12 -90q0 -75 -33.5 -108t-105.5 -33q-35 0 -63 6v42q25 -7 56 -7q54 0 77 24t23 79q0 34 -12 85t-29.5 111.5t-38 125
t-38 125.5t-29.5 114t-12 90z" />
    <glyph glyph-name="uni222C" unicode="&#x222c;" horiz-adv-x="689" 
d="M94 575q0 75 33.5 108t105.5 33q34 0 63 -6v-42q-25 7 -56 7q-54 0 -77 -24t-23 -79q0 -34 12 -85t29.5 -111.5t38 -125t38 -125.5t29.5 -114t12 -90q0 -75 -33.5 -108t-105.5 -33q-35 0 -63 6v42q25 -7 56 -7q54 0 77 24t23 79q0 34 -12 85t-29.5 111.5t-38 125
t-38 125.5t-29.5 114t-12 90zM390 575q0 75 33.5 108t105.5 33q34 0 63 -6v-42q-25 7 -56 7q-54 0 -77 -24t-23 -79q0 -34 12 -85t29.5 -111.5t38 -125t38 -125.5t29.5 -114t12 -90q0 -75 -33.5 -108t-105.5 -33q-35 0 -63 6v42q25 -7 56 -7q54 0 77 24t23 79q0 34 -12 85
t-29.5 111.5t-38 125t-38 125.5t-29.5 114t-12 90z" />
    <glyph glyph-name="element" unicode="&#x2208;" horiz-adv-x="850" 
d="M750 75h-423q-3 0 -13 1.5t-24.5 5t-32.5 10.5t-37 18q-21 12 -42 31.5t-37.5 44.5t-28 55t-12.5 64q-3 80 31 137.5t94 94.5q16 10 35 16.5t36.5 10.5t30.5 6t16 2h405v-34h-400q-3 0 -16.5 -2t-31 -6t-36.5 -11t-33 -17q-36 -26 -55.5 -55t-28 -53.5t-9.5 -40.5l-1 -16
h612v-31h-612l1 -15.5t8.5 -39t24.5 -50.5t47 -49q21 -16 43 -24.5t40.5 -13t32 -5.5t18.5 -1h398v-33z" />
    <glyph glyph-name="suchthat" unicode="&#x220b;" horiz-adv-x="850" 
d="M750 305q-1 -34 -12 -64t-28 -55t-38 -44.5t-42 -31.5q-19 -11 -37 -18t-32 -10.5t-24 -5t-13 -1.5h-424v33h399q5 0 18.5 1t32 5.5t40 13t42.5 24.5q31 23 47.5 49.5t24.5 49.5q9 27 10 55h-613v31h613q-1 28 -11 57q-8 25 -27.5 53.5t-55.5 54.5q-14 10 -33 17
t-36.5 11.5t-31 6t-16.5 1.5h-400v34h405q3 0 16 -2t30 -6t36.5 -10.5t35.5 -16.5q60 -37 93.5 -94.5t30.5 -137.5z" />
    <glyph glyph-name="reflexsubset" unicode="&#x2286;" horiz-adv-x="850" 
d="M746 192h-423q-6 0 -32.5 2.5t-66.5 22.5q-21 10 -42 27t-38 39t-29 47.5t-15 53.5q-8 69 24.5 128t95.5 92q19 10 38.5 16t36 9.5t28.5 4.5t15 1h404v-29h-398q-3 0 -14.5 -1.5t-28 -5.5t-35 -10t-34.5 -16q-45 -26 -73.5 -68t-26.5 -99q2 -51 28 -90t61 -60
q26 -15 47 -22t37 -10t26.5 -2.5t14.5 0.5h400v-30zM757 41h-664v30h664v-30z" />
    <glyph glyph-name="reflexsuperset" unicode="&#x2287;" horiz-adv-x="850" 
d="M752 384q-3 -28 -15 -53.5t-29 -47.5t-38.5 -39t-42.5 -27q-41 -20 -67 -22.5t-31 -2.5h-425v30h399q4 0 14.5 -0.5t27 2t37.5 10t47 22.5q35 20 60.5 59.5t27.5 90.5q2 57 -25.5 99t-72.5 68q-17 10 -35.5 16t-34.5 10t-27.5 5.5t-14.5 1.5h-399v29h404q3 0 14.5 -1
t28.5 -4.5t37 -9.5t38 -16q62 -34 95.5 -93t26.5 -127zM757 41h-664v30h664v-30z" />
    <glyph glyph-name="propersubset" unicode="&#x2282;" horiz-adv-x="850" 
d="M749 84h-423q-7 0 -32.5 3.5t-65.5 25.5q-21 11 -42.5 29.5t-38.5 42.5t-29 52.5t-15 60.5q-8 76 25 140.5t96 102.5q19 12 38.5 18.5t36 10.5t28 5t15.5 1h403v-33h-397q-3 0 -15 -1.5t-28 -5t-34.5 -10.5t-35.5 -18q-46 -30 -73 -77.5t-25 -108.5q2 -55 27 -98.5
t61 -67.5q25 -18 46.5 -26t37 -11t26 -2.5t15.5 0.5h399v-33z" />
    <glyph glyph-name="propersuperset" unicode="&#x2283;" horiz-adv-x="850" 
d="M748 298q-3 -32 -15 -60.5t-29.5 -52.5t-38 -42.5t-41.5 -29.5q-41 -22 -66.5 -25.5t-31.5 -3.5h-425v33h400q4 0 15 -0.5t27 2.5t37 11t47 26q35 24 61 67.5t27 98.5q2 61 -25 108.5t-74 77.5q-17 11 -35 18t-34.5 10.5t-28 5t-14.5 1.5h-398v33h404q3 0 14.5 -1t28 -5
t36.5 -10.5t39 -18.5q63 -38 95.5 -102.5t24.5 -140.5z" />
    <glyph glyph-name="union" unicode="&#x222a;" horiz-adv-x="592" 
d="M542 229q0 -3 -1.5 -15t-5 -28.5t-10.5 -36t-18 -38.5q-19 -32 -45 -56t-57.5 -40t-67.5 -22.5t-73 -2.5q-32 3 -61 15t-53 29.5t-42.5 38t-29.5 41.5q-22 42 -25 67.5t-3 31.5v424h33v-399q0 -5 -0.5 -15.5t2 -26.5t10.5 -37t25 -47q24 -36 68 -61.5t100 -27.5
q61 -2 108.5 25.5t77.5 73.5q11 16 18 34.5t10.5 35t5 28t1.5 14.5v398h33v-403z" />
    <glyph glyph-name="intersection" unicode="&#x2229;" horiz-adv-x="592" 
d="M542 12h-33v398q0 3 -1.5 14.5t-5.5 27.5t-11 34.5t-17 34.5q-31 47 -78 74.5t-108 25.5q-56 -2 -100 -27.5t-68 -61.5q-17 -26 -25 -47t-10.5 -37t-2 -26.5t0.5 -15.5v-399h-33v424q0 6 3 31.5t25 67.5q11 21 29.5 41.5t42.5 38t53 29.5t61 15q75 7 140 -25.5t103 -95.5
q11 -19 18 -38.5t10.5 -36t5 -28.5t1.5 -15v-403z" />
    <glyph glyph-name="logicaland" unicode="&#x2227;" horiz-adv-x="850" 
d="M713 77l-30 -15l-258 509l-259 -513l-29 16l269 530q2 2 6.5 11.5t12.5 9.5t13 -10.5t8 -16.5z" />
    <glyph glyph-name="logicalor" unicode="&#x2228;" horiz-adv-x="850" 
d="M713 589l-267 -521q-3 -5 -8 -16.5t-13 -11.5t-12.5 10t-6.5 12l-269 529l29 16l259 -511l258 508z" />
    <glyph glyph-name="logicalnot" unicode="&#xac;" horiz-adv-x="576" 
d="M77 309h422v-232h-42v190h-380v42z" />
    <glyph glyph-name="logicalnot" unicode="&#xffe2;" horiz-adv-x="576" 
d="M77 309h422v-232h-42v190h-380v42z" />
    <glyph glyph-name="arrowdblright" unicode="&#x21d2;" horiz-adv-x="850" 
d="M613 43l-30 28l109 107h-692v39h729l67 66l-67 66h-729v38h692l-109 107l30 28l240 -239z" />
    <glyph glyph-name="arrowdblboth" unicode="&#x21d4;" horiz-adv-x="850" 
d="M612 43l-30 28l109 107h-531l108 -107l-30 -28l-240 240l240 239l30 -28l-108 -107h531l-109 107l30 28l240 -239zM728 349h-606l-67 -66l67 -66h606l67 66z" />
    <glyph glyph-name="universal" unicode="&#x2200;" horiz-adv-x="636" 
d="M600 672q-49 -170 -114 -341t-140 -331h-56q-75 160 -140 331t-114 341h49q13 -45 29 -94t33 -100h341q18 51 33.5 100t29.5 94h49zM318 47q18 38 37.5 83.5t40 96t40.5 104.5t39 108h-314q19 -54 39 -108t40.5 -104.5t40 -96t37.5 -83.5z" />
    <glyph glyph-name="existential" unicode="&#x2203;" horiz-adv-x="582" 
d="M493 44q0 -8 6 -9l33 -12l-4 -23h-465v41h381v269h-309v40h309v281h-389v41h438v-628z" />
    <glyph glyph-name="acute" unicode="&#xb4;" horiz-adv-x="240" 
d="M129 570h-47l120 134h55z" />
    <glyph glyph-name="tilde" unicode="&#x2dc;" horiz-adv-x="850" 
d="M646 665q-36 -33 -69 -50.5t-68 -17.5q-28 0 -50.5 8.5t-43.5 20.5q-20 11 -35.5 16.5t-38.5 5.5q-18 0 -32.5 -2t-27 -7t-25.5 -13t-29 -21l-23 25q36 32 69 49.5t68 17.5q28 0 51 -8.5t43 -20.5t35.5 -17t38.5 -5q18 0 32 2t27 7t26 13t29 21z" />
    <glyph glyph-name="caron" unicode="&#x2c7;" horiz-adv-x="240" 
d="M145 570h-50l-122 134h47l100 -103l100 103h47z" />
    <glyph glyph-name="breve" unicode="&#x2d8;" horiz-adv-x="240" 
d="M15 704q0 -57 24 -82t81 -25t81 25t24 82h37q0 -75 -33.5 -109t-108.5 -34t-108.5 34t-33.5 109h37z" />
    <glyph glyph-name="hungarumlaut" unicode="&#x2dd;" horiz-adv-x="240" 
d="M224 570h-49l121 134h55zM36 570h-48l120 134h56z" />
    <glyph glyph-name="ring" unicode="&#x2da;" horiz-adv-x="340" 
d="M280 568q0 -23 -8.5 -43t-23.5 -35t-35 -23.5t-43 -8.5t-43 8.5t-35 23.5t-23.5 35t-8.5 43t8.5 43t23.5 35t35 23.5t43 8.5t43 -8.5t35 -23.5t23.5 -35t8.5 -43zM232 568q0 25 -18.5 44t-43.5 19t-43.5 -19t-18.5 -44t18.5 -44t43.5 -19t43.5 19t18.5 44z" />
    <glyph glyph-name="dotaccent" unicode="&#x2d9;" horiz-adv-x="233" 
d="M173 553q-1 -21 -15 -38t-42 -17q-29 0 -43 18t-13 40q0 21 14 38t42 17q29 0 43.5 -18t13.5 -40z" />
    <glyph glyph-name="cedilla" unicode="&#xb8;" horiz-adv-x="240" 
d="M102 0h36v-70q45 -2 65 -20t20 -57q0 -42 -27.5 -61.5t-87.5 -19.5q-40 0 -82 11v32q20 -5 38.5 -8t38.5 -3q43 0 61.5 11t18.5 39q0 27 -16.5 38.5t-56.5 11.5h-8v96z" />
    <glyph glyph-name="ogonek" unicode="&#x2db;" horiz-adv-x="240" 
d="M144 0q-29 -26 -49.5 -46.5t-33 -37.5t-18 -31.5t-5.5 -27.5q0 -27 16 -39.5t51 -12.5q24 0 39 4v-33q-17 -4 -47 -4q-51 0 -74.5 19.5t-23.5 59.5q0 35 26 71t83 86z" />
    <glyph glyph-name="exclamdown" unicode="&#xa1;" horiz-adv-x="236" 
d="M143 -189h-50l3 474h43zM156 454q0 -37 -38 -37t-38 37q0 38 38 38t38 -38z" />
    <glyph glyph-name="questiondown" unicode="&#xbf;" horiz-adv-x="406" 
d="M280 285v-11q0 -41 -13.5 -70.5t-34 -52.5t-44 -42.5t-44 -40.5t-34 -46t-13.5 -58q0 -68 36.5 -96.5t121.5 -28.5q75 0 147 28v-42q-37 -14 -75 -20t-76 -6q-108 0 -155 38t-47 124q0 41 14 70.5t35 53t45.5 43.5t45.5 41.5t35 47t14 60.5v8h42zM297 454q0 -37 -38 -37
t-38 37q0 38 38 38t38 -38z" />
    <glyph glyph-name="uni02D0" unicode="&#x2d0;" horiz-adv-x="850" 
d="M300 471l-86 -90l-85 90h171zM300 96h-171l85 89z" />
    <glyph glyph-name="uni02D0" unicode="&#x2236;" horiz-adv-x="850" 
d="M300 471l-86 -90l-85 90h171zM300 96h-171l85 89z" />
    <glyph glyph-name="uni222E" unicode="&#x222e;" horiz-adv-x="850" 
d="M547 522q-8 17 -14.5 23.5t-18.5 6.5q-16 0 -29 -42t-22 -121q22 -4 40.5 -13.5t32 -25t20 -37t4.5 -48.5q-4 -51 -37.5 -82t-76.5 -39q-5 -43 -14 -74.5t-21 -60.5q-14 -33 -34.5 -53.5t-46.5 -20.5t-45 11t-34 40l47 28q8 -17 16 -25t19 -8q16 0 29.5 42t21.5 122
q-20 4 -37.5 14.5t-29.5 25.5t-18 35.5t-4 46.5q4 49 34 79t71 41q5 44 14.5 76.5t20.5 60.5q14 34 35 54t47 20t46.5 -11.5t35.5 -42.5zM506 267q3 29 -9 51.5t-38 30.5q-2 -20 -2.5 -39.5t-1.5 -42.5q-1 -22 -2 -42t-3 -40q23 9 38 30.5t18 51.5zM396 344
q-20 -11 -32.5 -31.5t-14.5 -47.5q-3 -29 7.5 -49.5t31.5 -29.5q2 19 2.5 39t1.5 42q1 20 1.5 39t2.5 38z" />
    <glyph glyph-name="summation" unicode="&#x2211;" horiz-adv-x="646" 
d="M49 -173l341 429l-325 413v35h537v-41h-474l309 -394v-26l-325 -410h506v-41h-569v35z" />
    <glyph glyph-name="product" unicode="&#x220f;" horiz-adv-x="777" 
d="M94 704h589v-912h-49v871h-491v-871h-49v912z" />
    <glyph glyph-name="currency" unicode="&#xa4;" horiz-adv-x="576" 
d="M107 336q0 79 32 120l-73 73l29 29l73 -73q44 32 120 32t120 -32l73 73l29 -29l-73 -73q32 -44 32 -120t-32 -120l73 -73l-29 -29l-73 73q-41 -32 -120 -32t-120 32l-73 -73l-29 29l73 73q-32 41 -32 120zM147 336q0 -75 33 -108t108 -33t108 33t33 108t-33 108t-108 33
t-108 -33t-33 -108z" />
    <glyph glyph-name="uni2109" unicode="&#x2109;" horiz-adv-x="850" 
d="M104 594q-2 -33 16.5 -52.5t51.5 -19.5t51.5 19.5t16.5 52.5q2 33 -16.5 52.5t-51.5 19.5t-51.5 -19.5t-16.5 -52.5zM820 646v-40h-366v-258h296v-38h-296v-310h-47v603q0 7 -6 9l-32 11l4 23h447zM67 594q0 48 28.5 78t76.5 30t76.5 -30t28.5 -78t-28.5 -78t-76.5 -30
t-76.5 30t-28.5 78z" />
    <glyph glyph-name="perthousand" unicode="&#x2030;" horiz-adv-x="1248" 
d="M50 504q0 96 37 138t121 42t121 -42t37 -138t-37 -138t-121 -42t-121 42t-37 138zM90 504q0 -78 27.5 -111.5t90.5 -33.5t90.5 33.5t27.5 111.5t-27.5 111.5t-90.5 33.5t-90.5 -33.5t-27.5 -111.5zM498 168q0 96 37 138t121 42t121 -42t37 -138t-37 -138t-121 -42
t-121 42t-37 138zM538 168q0 -78 27.5 -111.5t90.5 -33.5t90.5 33.5t27.5 111.5t-27.5 111.5t-90.5 33.5t-90.5 -33.5t-27.5 -111.5zM882 168q0 96 37 138t121 42t121 -42t37 -138t-37 -138t-121 -42t-121 42t-37 138zM922 168q0 -78 27.5 -111.5t90.5 -33.5t90.5 33.5
t27.5 111.5t-27.5 111.5t-90.5 33.5t-90.5 -33.5t-27.5 -111.5zM565 672h36l-302 -672h-36z" />
    <glyph glyph-name="uni25C1" unicode="&#x25c1;" horiz-adv-x="850" 
d="M721 -66l-592 381l592 382v-763zM672 21v583l-452 -292z" />
    <glyph glyph-name="uni25C0" unicode="&#x25c0;" horiz-adv-x="850" 
d="M721 -69l-592 381l592 382v-763z" />
    <glyph glyph-name="uni25B7" unicode="&#x25b7;" horiz-adv-x="850" 
d="M721 315l-592 -381v763zM630 315l-452 292v-583z" />
    <glyph glyph-name="uni25B6" unicode="&#x25b6;" horiz-adv-x="850" 
d="M721 318l-592 -381v763z" />
    <glyph glyph-name="uni2664" unicode="&#x2664;" horiz-adv-x="850" 
d="M702 75q-35 -30 -71 -34t-65.5 2.5t-49 17.5l-19.5 11l1.5 -13t7 -34t15.5 -47t28 -52q10 -15 4.5 -23.5t-23 -12t-43.5 -4t-56 -0.5h-60.5t-47 3.5t-25.5 11.5t3 25q18 30 28.5 56.5t15.5 46.5t6.5 31.5l1.5 11.5l-19.5 -11t-49 -17.5t-66 -2.5t-70.5 34
q-17 14 -31.5 38.5t-16.5 61t13 86.5t58 115q44 66 89 128.5t81.5 111t60 77.5l23.5 29l23.5 -29t60 -77.5t81.5 -111t89 -128.5q43 -65 58 -115t13 -86.5t-17 -61t-31 -38.5zM645 124q13 10 22 28t7.5 46t-15.5 65.5t-47 86.5q-34 51 -67 97.5t-59 82.5q-31 42 -59 79
q-29 -38 -61 -80q-27 -36 -60 -82.5t-66 -96.5t-47 -87.5t-15.5 -65t7.5 -45.5t22 -28q21 -16 41 -19t38 1.5t35 13.5t31 16.5t25.5 10.5t19.5 -4q8 -8 11 -22.5t2.5 -32.5t-3.5 -36.5t-7 -34.5q-2 -8 -5.5 -17.5t-7.5 -17.5q-4 -10 -9 -20h92l-1.5 5t-4.5 13.5t-6.5 18
t-5.5 18.5q-4 16 -7 34.5t-3.5 36.5t2.5 32.5t11 22.5q8 7 19.5 4t25.5 -10.5t31 -16.5t35 -13.5t38 -2t41 19.5z" />
    <glyph glyph-name="spade" unicode="&#x2660;" horiz-adv-x="850" 
d="M702 75q-35 -30 -71 -34t-65.5 2.5t-49 17.5l-19.5 11l1.5 -13t7 -34t15.5 -47t28 -52q10 -15 4.5 -23.5t-23 -12t-43.5 -4t-56 -0.5h-60.5t-47 3.5t-25.5 11.5t3 25q18 30 28.5 56.5t15.5 46.5t6.5 31.5l1.5 11.5l-19.5 -11t-49 -17.5t-66 -2.5t-70.5 34
q-17 14 -31.5 38.5t-16.5 61t13 86.5t58 115q44 66 89 128.5t81.5 111t60 77.5l23.5 29l23.5 -29t60 -77.5t81.5 -111t89 -128.5q43 -65 58 -115t13 -86.5t-17 -61t-31 -38.5z" />
    <glyph glyph-name="uni2661" unicode="&#x2661;" horiz-adv-x="850" 
d="M637 149q-42 -54 -78 -97t-63 -73t-45 -45.5t-24 -15.5q-7 1 -25.5 17.5t-46.5 46.5t-64 72.5t-78 96.5q-71 90 -100 165t-32 134q-2 41 8 79t32 67.5t54.5 49t75.5 24.5q48 5 81.5 -14.5t54.5 -46t31 -50t11 -26.5q1 2 4.5 13.5t12 28t21.5 34t32 32t44 22.5t57 5
q45 -5 75.5 -21t50.5 -42.5t30 -63t13 -82.5q4 -61 -26.5 -138t-105.5 -172zM684 442q2 35 -10 65.5t-33 50t-47.5 25.5t-53.5 -9q-22 -12 -33 -36.5t-20.5 -49.5t-22 -44t-36.5 -19q-23 0 -36 19t-24 44.5t-23 50.5t-34 37q-27 14 -53.5 8.5t-47.5 -25t-33 -50t-10 -64.5
q3 -52 20.5 -97.5t42.5 -86.5t55 -78t59 -73q40 -49 61 -68.5t22 -18.5q1 -1 20 17.5t59 67.5q29 36 59.5 73t55.5 77.5t42.5 86t20.5 97.5z" />
    <glyph glyph-name="heart" unicode="&#x2665;" horiz-adv-x="850" 
d="M637 149q-42 -54 -78 -97t-63 -73t-45 -45.5t-24 -15.5q-7 1 -25.5 17.5t-46.5 46.5t-64 72.5t-78 96.5q-71 90 -100 165t-32 134q-2 41 8 79t32 67.5t54.5 49t75.5 24.5q50 5 83.5 -15.5t54.5 -47.5q25 -32 40 -74l3.5 11t11.5 27.5t21 35t32 33t44.5 23t58.5 5.5
q45 -5 75.5 -21t50.5 -42.5t30 -63t13 -82.5q4 -61 -26.5 -138t-105.5 -172z" />
    <glyph glyph-name="uni2667" unicode="&#x2667;" horiz-adv-x="850" 
d="M734 43q-48 -28 -88 -24.5t-70.5 18.5t-49.5 32.5t-23 18.5q-2 1 -3.5 -7.5t1 -27.5t10.5 -50t26 -74q7 -17 1.5 -25.5t-20.5 -12.5t-39 -4h-54q-33 0 -57 0.5t-38.5 5t-19 13.5t2.5 26q18 43 26.5 74t11 50t1 27.5t-4.5 7.5q-4 -1 -23 -18.5t-49 -33t-70.5 -18.5
t-88.5 24q-47 27 -71.5 72t-25.5 94t23.5 94.5t76.5 73.5q41 22 77.5 19.5t64.5 -14t46 -22.5t22 -6q3 4 -6.5 14.5t-23.5 27.5t-29 39.5t-23.5 50.5t-7 60t20.5 69q25 48 69.5 71.5t93.5 24t93.5 -21t69.5 -64.5q22 -39 25 -73t-5 -63t-24 -52.5t-30.5 -41.5t-24 -29
t-6.5 -15q4 -5 22 6.5t46.5 22.5t65 13.5t77.5 -19.5q52 -27 76 -72.5t23.5 -94.5t-25.5 -94t-72 -72zM686 322q-25 10 -47 7t-41.5 -11.5t-36.5 -19t-33 -16.5t-31 -4.5t-30 17.5q-18 19 -19 37t8 34.5t24.5 33t30.5 33t25.5 34t10.5 36.5q-1 44 -17 72.5t-39.5 43.5
t-52 17.5t-54 -6.5t-45.5 -29t-27 -49q-8 -33 -2 -58.5t19 -47t28.5 -39t26.5 -35t13.5 -35.5t-10.5 -39q-12 -19 -26 -21.5t-30.5 3.5t-35 17.5t-39.5 20.5t-44 12t-48 -6q-26 -10 -44 -40.5t-21 -66.5t13 -69.5t58 -49.5q30 -12 55 -9t45.5 13.5t37 25t30.5 27t25.5 20
t21.5 2.5t14.5 -18.5t5.5 -33t-1.5 -43.5t-6.5 -50q-2 -11 -4.5 -23.5t-5 -23t-3.5 -17.5l-1 -7h83l-1 6.5t-3.5 17t-5 22t-3.5 22.5q-4 26 -6.5 50.5t-1.5 44t5.5 32.5t14.5 18t21.5 -2t25.5 -19.5t30.5 -27t37.5 -25t46 -13.5t55 9q42 16 58 49.5t13 69.5t-21.5 66.5
t-44.5 40.5z" />
    <glyph glyph-name="club" unicode="&#x2663;" horiz-adv-x="850" 
d="M734 43q-48 -28 -88 -24.5t-70.5 18.5t-49.5 32.5t-23 18.5q-2 1 -3.5 -7.5t1 -27.5t10.5 -50t26 -74q7 -17 1.5 -25.5t-20.5 -12.5t-39 -4h-54q-33 0 -57 0.5t-38.5 5t-19 13.5t2.5 26q18 43 26.5 74t11 50t1 27.5t-4.5 7.5q-4 -1 -23 -18.5t-49 -33t-70.5 -18.5
t-88.5 24q-47 27 -71.5 72t-25.5 94t23.5 94.5t76.5 73.5q41 22 77.5 19.5t64.5 -14t46 -22.5t22 -6q3 4 -6.5 14.5t-23.5 27.5t-29 39.5t-23.5 50.5t-7 60t20.5 69q25 48 69.5 71.5t93.5 24t93.5 -21t69.5 -64.5q22 -39 25 -73t-5 -63t-24 -52.5t-30.5 -41.5t-24 -29
t-6.5 -15q4 -5 22 6.5t46.5 22.5t65 13.5t77.5 -19.5q52 -27 76 -72.5t23.5 -94.5t-25.5 -94t-72 -72z" />
    <glyph glyph-name="uni2299" unicode="&#x2299;" horiz-adv-x="850" 
d="M792 310q1 -80 -28.5 -148t-80.5 -118t-120.5 -78t-147.5 -26q-75 2 -141 32t-114 80.5t-75.5 117t-26.5 140.5q1 75 29 140t76 114t112.5 78t139.5 31q76 2 144.5 -25t120 -76t81.5 -116.5t31 -145.5zM730 307q0 65 -25.5 121t-69 96.5t-101 63t-121.5 21.5
q-62 -2 -115.5 -26t-93.5 -64.5t-63 -95t-24 -116.5t22 -116.5t63.5 -96t94.5 -67t116 -27.5q66 -3 123.5 20t100.5 65t68 99t25 123zM540 308q0 -26 -10 -48.5t-27.5 -39t-41 -26t-50.5 -9.5q-24 0 -45 10t-37 27t-25 39t-9 47q0 24 9 45.5t25 38t37 26t45 10.5
q25 1 48.5 -8t41.5 -25.5t28.5 -39t10.5 -47.5z" />
    <glyph glyph-name="uni2299" unicode="&#x25c9;" horiz-adv-x="850" 
d="M792 310q1 -80 -28.5 -148t-80.5 -118t-120.5 -78t-147.5 -26q-75 2 -141 32t-114 80.5t-75.5 117t-26.5 140.5q1 75 29 140t76 114t112.5 78t139.5 31q76 2 144.5 -25t120 -76t81.5 -116.5t31 -145.5zM730 307q0 65 -25.5 121t-69 96.5t-101 63t-121.5 21.5
q-62 -2 -115.5 -26t-93.5 -64.5t-63 -95t-24 -116.5t22 -116.5t63.5 -96t94.5 -67t116 -27.5q66 -3 123.5 20t100.5 65t68 99t25 123zM540 308q0 -26 -10 -48.5t-27.5 -39t-41 -26t-50.5 -9.5q-24 0 -45 10t-37 27t-25 39t-9 47q0 24 9 45.5t25 38t37 26t45 10.5
q25 1 48.5 -8t41.5 -25.5t28.5 -39t10.5 -47.5z" />
    <glyph glyph-name="uni25C8" unicode="&#x25c8;" horiz-adv-x="850" 
d="M837 305l-412 -411l-412 410l411 412zM803 304l-378 377l-378 -377l377 -376zM667 303l-245 -243l-244 243l243 243z" />
    <glyph glyph-name="uni25A3" unicode="&#x25a3;" horiz-adv-x="850" 
d="M777 -41h-704v698h704v-698zM747 -12v640h-644v-640h644zM657 78h-465v456h465v-456z" />
    <glyph glyph-name="uni25D0" unicode="&#x25d0;" horiz-adv-x="850" 
d="M795 307q1 -79 -29 -147.5t-82.5 -119t-122.5 -78t-148 -25.5q-75 2 -141 32.5t-114 80.5t-75.5 116.5t-26.5 140.5q1 75 29 140t76 114t112.5 78.5t139.5 31.5q76 3 145 -24.5t121.5 -76.5t83.5 -117t32 -146zM766 306q-1 70 -28.5 131t-74 106.5t-108.5 71.5t-132 25
v-673q71 -1 134 26t109.5 74t73.5 109t26 130z" />
    <glyph glyph-name="uni25D1" unicode="&#x25d1;" horiz-adv-x="850" 
d="M794 303q1 -75 -26 -141.5t-76 -117t-114.5 -80.5t-140.5 -32q-78 -2 -148 25.5t-122.5 78t-82.5 119t-29 148.5q1 78 32 145t83 116t121 76t146 25q74 -2 138.5 -31t112.5 -78t76 -114t30 -139zM426 635q-70 1 -132 -25t-108.5 -71.5t-74 -106.5t-28.5 -131
q-1 -68 26 -130t73.5 -108.5t109.5 -74t134 -27.5v674z" />
    <glyph glyph-name="shade" unicode="&#x2592;" horiz-adv-x="850" 
d="M777 -41h-704v698h704v-698zM751 -16v646h-652v-646h652zM716 598q-6 0 -9 3.5t-3 8t3 8.5t9 4t8.5 -4t2.5 -8.5t-2.5 -8t-8.5 -3.5zM738 561q-6 0 -8.5 3.5t-2.5 8t2.5 8t8.5 3.5t8.5 -3.5t2.5 -8t-2.5 -8t-8.5 -3.5zM670 598q-6 0 -8.5 3.5t-2.5 8t2.5 8.5t8.5 4
t8.5 -4t2.5 -8.5t-2.5 -8t-8.5 -3.5zM692 561q-6 0 -8.5 3.5t-2.5 8t2.5 8t8.5 3.5t9 -3.5t3 -8t-3 -8t-9 -3.5zM716 526q-12 0 -12 11t12 11q11 0 11 -11t-11 -11zM738 488q-6 0 -8.5 3.5t-2.5 8t2.5 8t8.5 3.5t8.5 -3.5t2.5 -8t-2.5 -8t-8.5 -3.5zM626 598q-6 0 -8.5 3.5
t-2.5 8t2.5 8.5t8.5 4t9 -4t3 -8.5t-3 -8t-9 -3.5zM649 561q-6 0 -9 3.5t-3 8t3 8t9 3.5t8.5 -3.5t2.5 -8t-2.5 -8t-8.5 -3.5zM670 526q-11 0 -11 11t11 11t11 -11t-11 -11zM692 488q-6 0 -8.5 3.5t-2.5 8t2.5 8t8.5 3.5t9 -3.5t3 -8t-3 -8t-9 -3.5zM581 598q-6 0 -9 3.5
t-3 8t3 8.5t9 4t8.5 -4t2.5 -8.5t-2.5 -8t-8.5 -3.5zM603 561q-6 0 -8.5 3.5t-2.5 8t2.5 8t8.5 3.5t8.5 -3.5t2.5 -8t-2.5 -8t-8.5 -3.5zM716 449q-6 0 -9 3.5t-3 8t3 8t9 3.5t8.5 -3.5t2.5 -8t-2.5 -8t-8.5 -3.5zM626 526q-11 0 -11 11t11 11q12 0 12 -11t-12 -11zM738 411
q-6 0 -8.5 3.5t-2.5 8t2.5 8.5t8.5 4t8.5 -4t2.5 -8.5t-2.5 -8t-8.5 -3.5zM649 488q-6 0 -9 3.5t-3 8t3 8t9 3.5t8.5 -3.5t2.5 -8t-2.5 -8t-8.5 -3.5zM534 598q-6 0 -8.5 3.5t-2.5 8t2.5 8.5t8.5 4t8.5 -4t2.5 -8.5t-2.5 -8t-8.5 -3.5zM670 449q-6 0 -8.5 3.5t-2.5 8t2.5 8
t8.5 3.5t8.5 -3.5t2.5 -8t-2.5 -8t-8.5 -3.5zM556 561q-6 0 -9 3.5t-3 8t3 8t9 3.5t9 -3.5t3 -8t-3 -8t-9 -3.5zM581 526q-12 0 -12 11t12 11q11 0 11 -11t-11 -11zM692 411q-6 0 -8.5 3.5t-2.5 8t2.5 8.5t8.5 4t9 -4t3 -8.5t-3 -8t-9 -3.5zM603 488q-6 0 -8.5 3.5t-2.5 8
t2.5 8t8.5 3.5t8.5 -3.5t2.5 -8t-2.5 -8t-8.5 -3.5zM716 375q-6 0 -9 3.5t-3 8t3 8.5t9 4t8.5 -4t2.5 -8.5t-2.5 -8t-8.5 -3.5zM489 598q-6 0 -9 3.5t-3 8t3 8.5t9 4t9 -4t3 -8.5t-3 -8t-9 -3.5zM738 338q-6 0 -8.5 3.5t-2.5 8t2.5 8t8.5 3.5t8.5 -3.5t2.5 -8t-2.5 -8
t-8.5 -3.5zM626 449q-6 0 -8.5 3.5t-2.5 8t2.5 8t8.5 3.5t9 -3.5t3 -8t-3 -8t-9 -3.5zM511 561q-6 0 -8.5 3.5t-2.5 8t2.5 8t8.5 3.5t8.5 -3.5t2.5 -8t-2.5 -8t-8.5 -3.5zM534 526q-11 0 -11 11t11 11t11 -11t-11 -11zM649 411q-6 0 -9 3.5t-3 8t3 8.5t9 4t8.5 -4t2.5 -8.5
t-2.5 -8t-8.5 -3.5zM670 375q-6 0 -8.5 3.5t-2.5 8t2.5 8.5t8.5 4t8.5 -4t2.5 -8.5t-2.5 -8t-8.5 -3.5zM556 488q-6 0 -9 3.5t-3 8t3 8t9 3.5t9 -3.5t3 -8t-3 -8t-9 -3.5zM443 598q-6 0 -8.5 3.5t-2.5 8t2.5 8.5t8.5 4t8.5 -4t2.5 -8.5t-2.5 -8t-8.5 -3.5zM692 338
q-6 0 -8.5 3.5t-2.5 8t2.5 8t8.5 3.5t9 -3.5t3 -8t-3 -8t-9 -3.5zM581 449q-6 0 -9 3.5t-3 8t3 8t9 3.5t8.5 -3.5t2.5 -8t-2.5 -8t-8.5 -3.5zM465 561q-6 0 -8.5 3.5t-2.5 8t2.5 8t8.5 3.5t8.5 -3.5t2.5 -8t-2.5 -8t-8.5 -3.5zM489 526q-12 0 -12 11t12 11t12 -11t-12 -11z
M603 411q-6 0 -8.5 3.5t-2.5 8t2.5 8.5t8.5 4t8.5 -4t2.5 -8.5t-2.5 -8t-8.5 -3.5zM716 298q-6 0 -9 3.5t-3 8t3 8t9 3.5t8.5 -3.5t2.5 -8t-2.5 -8t-8.5 -3.5zM626 375q-6 0 -8.5 3.5t-2.5 8t2.5 8.5t8.5 4t9 -4t3 -8.5t-3 -8t-9 -3.5zM511 488q-6 0 -8.5 3.5t-2.5 8t2.5 8
t8.5 3.5t8.5 -3.5t2.5 -8t-2.5 -8t-8.5 -3.5zM738 260q-6 0 -8.5 3.5t-2.5 8t2.5 8t8.5 3.5t8.5 -3.5t2.5 -8t-2.5 -8t-8.5 -3.5zM398 598q-6 0 -8.5 3.5t-2.5 8t2.5 8.5t8.5 4t8.5 -4t2.5 -8.5t-2.5 -8t-8.5 -3.5zM649 338q-6 0 -9 3.5t-3 8t3 8t9 3.5t8.5 -3.5t2.5 -8
t-2.5 -8t-8.5 -3.5zM534 449q-6 0 -8.5 3.5t-2.5 8t2.5 8t8.5 3.5t8.5 -3.5t2.5 -8t-2.5 -8t-8.5 -3.5zM420 561q-6 0 -9 3.5t-3 8t3 8t9 3.5t9 -3.5t3 -8t-3 -8t-9 -3.5zM443 526q-11 0 -11 11t11 11t11 -11t-11 -11zM670 298q-6 0 -8.5 3.5t-2.5 8t2.5 8t8.5 3.5t8.5 -3.5
t2.5 -8t-2.5 -8t-8.5 -3.5zM556 411q-6 0 -9 3.5t-3 8t3 8.5t9 4t9 -4t3 -8.5t-3 -8t-9 -3.5zM581 375q-6 0 -9 3.5t-3 8t3 8.5t9 4t8.5 -4t2.5 -8.5t-2.5 -8t-8.5 -3.5zM465 488q-6 0 -8.5 3.5t-2.5 8t2.5 8t8.5 3.5t8.5 -3.5t2.5 -8t-2.5 -8t-8.5 -3.5zM692 260
q-6 0 -8.5 3.5t-2.5 8t2.5 8t8.5 3.5t9 -3.5t3 -8t-3 -8t-9 -3.5zM351 598q-6 0 -9.5 3.5t-3.5 8t3.5 8.5t9.5 4t8.5 -4t2.5 -8.5t-2.5 -8t-8.5 -3.5zM603 338q-6 0 -8.5 3.5t-2.5 8t2.5 8t8.5 3.5t8.5 -3.5t2.5 -8t-2.5 -8t-8.5 -3.5zM716 224q-6 0 -9 3.5t-3 8t3 8.5t9 4
t8.5 -4t2.5 -8.5t-2.5 -8t-8.5 -3.5zM489 449q-6 0 -9 3.5t-3 8t3 8t9 3.5t9 -3.5t3 -8t-3 -8t-9 -3.5zM372 561q-6 0 -8.5 3.5t-2.5 8t2.5 8t8.5 3.5t8.5 -3.5t2.5 -8t-2.5 -8t-8.5 -3.5zM738 187q-6 0 -8.5 3.5t-2.5 8t2.5 8t8.5 3.5t8.5 -3.5t2.5 -8t-2.5 -8t-8.5 -3.5z
M398 526q-11 0 -11 11t11 11t11 -11t-11 -11zM626 298q-6 0 -8.5 3.5t-2.5 8t2.5 8t8.5 3.5t9 -3.5t3 -8t-3 -8t-9 -3.5zM511 411q-6 0 -8.5 3.5t-2.5 8t2.5 8.5t8.5 4t8.5 -4t2.5 -8.5t-2.5 -8t-8.5 -3.5zM534 375q-6 0 -8.5 3.5t-2.5 8t2.5 8.5t8.5 4t8.5 -4t2.5 -8.5
t-2.5 -8t-8.5 -3.5zM420 488q-6 0 -9 3.5t-3 8t3 8t9 3.5t9 -3.5t3 -8t-3 -8t-9 -3.5zM649 260q-6 0 -9 3.5t-3 8t3 8t9 3.5t8.5 -3.5t2.5 -8t-2.5 -8t-8.5 -3.5zM306 598q-6 0 -8.5 3.5t-2.5 8t2.5 8.5t8.5 4t8.5 -4t2.5 -8.5t-2.5 -8t-8.5 -3.5zM670 224q-6 0 -8.5 3.5
t-2.5 8t2.5 8.5t8.5 4t8.5 -4t2.5 -8.5t-2.5 -8t-8.5 -3.5zM556 338q-6 0 -9 3.5t-3 8t3 8t9 3.5t9 -3.5t3 -8t-3 -8t-9 -3.5zM443 449q-6 0 -8.5 3.5t-2.5 8t2.5 8t8.5 3.5t8.5 -3.5t2.5 -8t-2.5 -8t-8.5 -3.5zM328 561q-6 0 -8.5 3.5t-2.5 8t2.5 8t8.5 3.5t8.5 -3.5
t2.5 -8t-2.5 -8t-8.5 -3.5zM692 187q-6 0 -8.5 3.5t-2.5 8t2.5 8t8.5 3.5t9 -3.5t3 -8t-3 -8t-9 -3.5zM581 298q-6 0 -9 3.5t-3 8t3 8t9 3.5t8.5 -3.5t2.5 -8t-2.5 -8t-8.5 -3.5zM465 411q-6 0 -8.5 3.5t-2.5 8t2.5 8.5t8.5 4t8.5 -4t2.5 -8.5t-2.5 -8t-8.5 -3.5zM351 526
q-13 0 -13 11t13 11q11 0 11 -11t-11 -11zM489 375q-6 0 -9 3.5t-3 8t3 8.5t9 4t9 -4t3 -8.5t-3 -8t-9 -3.5zM603 260q-6 0 -8.5 3.5t-2.5 8t2.5 8t8.5 3.5t8.5 -3.5t2.5 -8t-2.5 -8t-8.5 -3.5zM716 148q-6 0 -9 3.5t-3 8t3 8t9 3.5t8.5 -3.5t2.5 -8t-2.5 -8t-8.5 -3.5z
M264 598q-6 0 -9 3.5t-3 8t3 8.5t9 4t8.5 -4t2.5 -8.5t-2.5 -8t-8.5 -3.5zM372 488q-6 0 -8.5 3.5t-2.5 8t2.5 8t8.5 3.5t8.5 -3.5t2.5 -8t-2.5 -8t-8.5 -3.5zM626 224q-6 0 -8.5 3.5t-2.5 8t2.5 8.5t8.5 4t9 -4t3 -8.5t-3 -8t-9 -3.5zM511 338q-6 0 -8.5 3.5t-2.5 8t2.5 8
t8.5 3.5t8.5 -3.5t2.5 -8t-2.5 -8t-8.5 -3.5zM738 111q-11 0 -11 11t11 11t11 -11t-11 -11zM398 449q-6 0 -8.5 3.5t-2.5 8t2.5 8t8.5 3.5t8.5 -3.5t2.5 -8t-2.5 -8t-8.5 -3.5zM285 561q-6 0 -8.5 3.5t-2.5 8t2.5 8t8.5 3.5t8.5 -3.5t2.5 -8t-2.5 -8t-8.5 -3.5zM649 187
q-6 0 -9 3.5t-3 8t3 8t9 3.5t8.5 -3.5t2.5 -8t-2.5 -8t-8.5 -3.5zM534 298q-6 0 -8.5 3.5t-2.5 8t2.5 8t8.5 3.5t8.5 -3.5t2.5 -8t-2.5 -8t-8.5 -3.5zM306 526q-11 0 -11 11t11 11t11 -11t-11 -11zM420 411q-6 0 -9 3.5t-3 8t3 8.5t9 4t9 -4t3 -8.5t-3 -8t-9 -3.5zM220 598
q-6 0 -8.5 3.5t-2.5 8t2.5 8.5t8.5 4t8.5 -4t2.5 -8.5t-2.5 -8t-8.5 -3.5zM443 375q-6 0 -8.5 3.5t-2.5 8t2.5 8.5t8.5 4t8.5 -4t2.5 -8.5t-2.5 -8t-8.5 -3.5zM670 148q-6 0 -8.5 3.5t-2.5 8t2.5 8t8.5 3.5t8.5 -3.5t2.5 -8t-2.5 -8t-8.5 -3.5zM328 488q-6 0 -8.5 3.5
t-2.5 8t2.5 8t8.5 3.5t8.5 -3.5t2.5 -8t-2.5 -8t-8.5 -3.5zM556 260q-6 0 -9 3.5t-3 8t3 8t9 3.5t9 -3.5t3 -8t-3 -8t-9 -3.5zM581 224q-6 0 -9 3.5t-3 8t3 8.5t9 4t8.5 -4t2.5 -8.5t-2.5 -8t-8.5 -3.5zM465 338q-6 0 -8.5 3.5t-2.5 8t2.5 8t8.5 3.5t8.5 -3.5t2.5 -8
t-2.5 -8t-8.5 -3.5zM242 561q-6 0 -8.5 3.5t-2.5 8t2.5 8t8.5 3.5t9 -3.5t3 -8t-3 -8t-9 -3.5zM692 111q-11 0 -11 11t11 11q12 0 12 -11t-12 -11zM351 449q-6 0 -9.5 3.5t-3.5 8t3.5 8t9.5 3.5t8.5 -3.5t2.5 -8t-2.5 -8t-8.5 -3.5zM603 187q-6 0 -8.5 3.5t-2.5 8t2.5 8
t8.5 3.5t8.5 -3.5t2.5 -8t-2.5 -8t-8.5 -3.5zM716 75q-12 0 -12 11t12 11q11 0 11 -11t-11 -11zM264 526q-12 0 -12 11t12 11q11 0 11 -11t-11 -11zM489 298q-6 0 -9 3.5t-3 8t3 8t9 3.5t9 -3.5t3 -8t-3 -8t-9 -3.5zM372 411q-6 0 -8.5 3.5t-2.5 8t2.5 8.5t8.5 4t8.5 -4
t2.5 -8.5t-2.5 -8t-8.5 -3.5zM176 598q-6 0 -8.5 3.5t-2.5 8t2.5 8.5t8.5 4t8.5 -4t2.5 -8.5t-2.5 -8t-8.5 -3.5zM285 488q-6 0 -8.5 3.5t-2.5 8t2.5 8t8.5 3.5t8.5 -3.5t2.5 -8t-2.5 -8t-8.5 -3.5zM398 375q-6 0 -8.5 3.5t-2.5 8t2.5 8.5t8.5 4t8.5 -4t2.5 -8.5t-2.5 -8
t-8.5 -3.5zM626 148q-6 0 -8.5 3.5t-2.5 8t2.5 8t8.5 3.5t9 -3.5t3 -8t-3 -8t-9 -3.5zM511 260q-6 0 -8.5 3.5t-2.5 8t2.5 8t8.5 3.5t8.5 -3.5t2.5 -8t-2.5 -8t-8.5 -3.5zM738 31q-6 0 -8.5 3.5t-2.5 8t2.5 8t8.5 3.5t8.5 -3.5t2.5 -8t-2.5 -8t-8.5 -3.5zM198 561
q-6 0 -9 3.5t-3 8t3 8t9 3.5t9 -3.5t3 -8t-3 -8t-9 -3.5zM534 224q-6 0 -8.5 3.5t-2.5 8t2.5 8.5t8.5 4t8.5 -4t2.5 -8.5t-2.5 -8t-8.5 -3.5zM649 111q-12 0 -12 11t12 11q11 0 11 -11t-11 -11zM420 338q-6 0 -9 3.5t-3 8t3 8t9 3.5t9 -3.5t3 -8t-3 -8t-9 -3.5zM306 449
q-6 0 -8.5 3.5t-2.5 8t2.5 8t8.5 3.5t8.5 -3.5t2.5 -8t-2.5 -8t-8.5 -3.5zM220 526q-11 0 -11 11t11 11t11 -11t-11 -11zM670 75q-11 0 -11 11t11 11t11 -11t-11 -11zM556 187q-6 0 -9 3.5t-3 8t3 8t9 3.5t9 -3.5t3 -8t-3 -8t-9 -3.5zM443 298q-6 0 -8.5 3.5t-2.5 8t2.5 8
t8.5 3.5t8.5 -3.5t2.5 -8t-2.5 -8t-8.5 -3.5zM328 411q-6 0 -8.5 3.5t-2.5 8t2.5 8.5t8.5 4t8.5 -4t2.5 -8.5t-2.5 -8t-8.5 -3.5zM133 598q-6 0 -8.5 3.5t-2.5 8t2.5 8.5t8.5 4t8.5 -4t2.5 -8.5t-2.5 -8t-8.5 -3.5zM242 488q-6 0 -8.5 3.5t-2.5 8t2.5 8t8.5 3.5t9 -3.5t3 -8
t-3 -8t-9 -3.5zM581 148q-6 0 -9 3.5t-3 8t3 8t9 3.5t8.5 -3.5t2.5 -8t-2.5 -8t-8.5 -3.5zM351 375q-6 0 -9.5 3.5t-3.5 8t3.5 8.5t9.5 4t8.5 -4t2.5 -8.5t-2.5 -8t-8.5 -3.5zM465 260q-6 0 -8.5 3.5t-2.5 8t2.5 8t8.5 3.5t8.5 -3.5t2.5 -8t-2.5 -8t-8.5 -3.5zM692 31
q-6 0 -8.5 3.5t-2.5 8t2.5 8t8.5 3.5t9 -3.5t3 -8t-3 -8t-9 -3.5zM156 561q-6 0 -9 3.5t-3 8t3 8t9 3.5t8.5 -3.5t2.5 -8t-2.5 -8t-8.5 -3.5zM489 224q-6 0 -9 3.5t-3 8t3 8.5t9 4t9 -4t3 -8.5t-3 -8t-9 -3.5zM603 111q-11 0 -11 11t11 11t11 -11t-11 -11zM264 449
q-6 0 -9 3.5t-3 8t3 8t9 3.5t8.5 -3.5t2.5 -8t-2.5 -8t-8.5 -3.5zM372 338q-6 0 -8.5 3.5t-2.5 8t2.5 8t8.5 3.5t8.5 -3.5t2.5 -8t-2.5 -8t-8.5 -3.5zM716 -5q-6 0 -9 3.5t-3 8t3 8.5t9 4t8.5 -4t2.5 -8.5t-2.5 -8t-8.5 -3.5zM176 526q-11 0 -11 11t11 11t11 -11t-11 -11z
M626 75q-11 0 -11 11t11 11q12 0 12 -11t-12 -11zM511 187q-6 0 -8.5 3.5t-2.5 8t2.5 8t8.5 3.5t8.5 -3.5t2.5 -8t-2.5 -8t-8.5 -3.5zM285 411q-6 0 -8.5 3.5t-2.5 8t2.5 8.5t8.5 4t8.5 -4t2.5 -8.5t-2.5 -8t-8.5 -3.5zM398 298q-6 0 -8.5 3.5t-2.5 8t2.5 8t8.5 3.5
t8.5 -3.5t2.5 -8t-2.5 -8t-8.5 -3.5zM198 488q-6 0 -9 3.5t-3 8t3 8t9 3.5t9 -3.5t3 -8t-3 -8t-9 -3.5zM534 148q-6 0 -8.5 3.5t-2.5 8t2.5 8t8.5 3.5t8.5 -3.5t2.5 -8t-2.5 -8t-8.5 -3.5zM306 375q-6 0 -8.5 3.5t-2.5 8t2.5 8.5t8.5 4t8.5 -4t2.5 -8.5t-2.5 -8t-8.5 -3.5z
M420 260q-6 0 -9 3.5t-3 8t3 8t9 3.5t9 -3.5t3 -8t-3 -8t-9 -3.5zM649 31q-6 0 -9 3.5t-3 8t3 8t9 3.5t8.5 -3.5t2.5 -8t-2.5 -8t-8.5 -3.5zM111 561q-6 0 -8.5 3.5t-2.5 8t2.5 8t8.5 3.5t9 -3.5t3 -8t-3 -8t-9 -3.5zM220 449q-6 0 -8.5 3.5t-2.5 8t2.5 8t8.5 3.5t8.5 -3.5
t2.5 -8t-2.5 -8t-8.5 -3.5zM443 224q-6 0 -8.5 3.5t-2.5 8t2.5 8.5t8.5 4t8.5 -4t2.5 -8.5t-2.5 -8t-8.5 -3.5zM328 338q-6 0 -8.5 3.5t-2.5 8t2.5 8t8.5 3.5t8.5 -3.5t2.5 -8t-2.5 -8t-8.5 -3.5zM556 111q-12 0 -12 11t12 11t12 -11t-12 -11zM670 -5q-6 0 -8.5 3.5t-2.5 8
t2.5 8.5t8.5 4t8.5 -4t2.5 -8.5t-2.5 -8t-8.5 -3.5zM133 526q-11 0 -11 11t11 11t11 -11t-11 -11zM581 75q-12 0 -12 11t12 11q11 0 11 -11t-11 -11zM242 411q-6 0 -8.5 3.5t-2.5 8t2.5 8.5t8.5 4t9 -4t3 -8.5t-3 -8t-9 -3.5zM465 187q-6 0 -8.5 3.5t-2.5 8t2.5 8t8.5 3.5
t8.5 -3.5t2.5 -8t-2.5 -8t-8.5 -3.5zM351 298q-6 0 -9.5 3.5t-3.5 8t3.5 8t9.5 3.5t8.5 -3.5t2.5 -8t-2.5 -8t-8.5 -3.5zM156 488q-6 0 -9 3.5t-3 8t3 8t9 3.5t8.5 -3.5t2.5 -8t-2.5 -8t-8.5 -3.5zM264 375q-6 0 -9 3.5t-3 8t3 8.5t9 4t8.5 -4t2.5 -8.5t-2.5 -8t-8.5 -3.5z
M489 148q-6 0 -9 3.5t-3 8t3 8t9 3.5t9 -3.5t3 -8t-3 -8t-9 -3.5zM603 31q-6 0 -8.5 3.5t-2.5 8t2.5 8t8.5 3.5t8.5 -3.5t2.5 -8t-2.5 -8t-8.5 -3.5zM372 260q-6 0 -8.5 3.5t-2.5 8t2.5 8t8.5 3.5t8.5 -3.5t2.5 -8t-2.5 -8t-8.5 -3.5zM176 449q-6 0 -8.5 3.5t-2.5 8t2.5 8
t8.5 3.5t8.5 -3.5t2.5 -8t-2.5 -8t-8.5 -3.5zM285 338q-6 0 -8.5 3.5t-2.5 8t2.5 8t8.5 3.5t8.5 -3.5t2.5 -8t-2.5 -8t-8.5 -3.5zM398 224q-6 0 -8.5 3.5t-2.5 8t2.5 8.5t8.5 4t8.5 -4t2.5 -8.5t-2.5 -8t-8.5 -3.5zM511 111q-11 0 -11 11t11 11t11 -11t-11 -11zM626 -5
q-6 0 -8.5 3.5t-2.5 8t2.5 8.5t8.5 4t9 -4t3 -8.5t-3 -8t-9 -3.5zM198 411q-6 0 -9 3.5t-3 8t3 8.5t9 4t9 -4t3 -8.5t-3 -8t-9 -3.5zM534 75q-11 0 -11 11t11 11t11 -11t-11 -11zM420 187q-6 0 -9 3.5t-3 8t3 8t9 3.5t9 -3.5t3 -8t-3 -8t-9 -3.5zM306 298q-6 0 -8.5 3.5
t-2.5 8t2.5 8t8.5 3.5t8.5 -3.5t2.5 -8t-2.5 -8t-8.5 -3.5zM112 488q-6 0 -9 3.5t-3 8t3 8t9 3.5t9 -3.5t3 -8t-3 -8t-9 -3.5zM220 375q-6 0 -8.5 3.5t-2.5 8t2.5 8.5t8.5 4t8.5 -4t2.5 -8.5t-2.5 -8t-8.5 -3.5zM443 148q-6 0 -8.5 3.5t-2.5 8t2.5 8t8.5 3.5t8.5 -3.5
t2.5 -8t-2.5 -8t-8.5 -3.5zM328 260q-6 0 -8.5 3.5t-2.5 8t2.5 8t8.5 3.5t8.5 -3.5t2.5 -8t-2.5 -8t-8.5 -3.5zM556 31q-6 0 -9 3.5t-3 8t3 8t9 3.5t9 -3.5t3 -8t-3 -8t-9 -3.5zM133 449q-6 0 -8.5 3.5t-2.5 8t2.5 8t8.5 3.5t8.5 -3.5t2.5 -8t-2.5 -8t-8.5 -3.5zM242 338
q-6 0 -8.5 3.5t-2.5 8t2.5 8t8.5 3.5t9 -3.5t3 -8t-3 -8t-9 -3.5zM465 111q-11 0 -11 11t11 11t11 -11t-11 -11zM581 -5q-6 0 -9 3.5t-3 8t3 8.5t9 4t8.5 -4t2.5 -8.5t-2.5 -8t-8.5 -3.5zM351 224q-6 0 -9.5 3.5t-3.5 8t3.5 8.5t9.5 4t8.5 -4t2.5 -8.5t-2.5 -8t-8.5 -3.5z
M156 411q-6 0 -9 3.5t-3 8t3 8.5t9 4t8.5 -4t2.5 -8.5t-2.5 -8t-8.5 -3.5zM489 75q-12 0 -12 11t12 11t12 -11t-12 -11zM264 298q-6 0 -9 3.5t-3 8t3 8t9 3.5t8.5 -3.5t2.5 -8t-2.5 -8t-8.5 -3.5zM372 187q-6 0 -8.5 3.5t-2.5 8t2.5 8t8.5 3.5t8.5 -3.5t2.5 -8t-2.5 -8
t-8.5 -3.5zM176 375q-6 0 -8.5 3.5t-2.5 8t2.5 8.5t8.5 4t8.5 -4t2.5 -8.5t-2.5 -8t-8.5 -3.5zM398 148q-6 0 -8.5 3.5t-2.5 8t2.5 8t8.5 3.5t8.5 -3.5t2.5 -8t-2.5 -8t-8.5 -3.5zM285 260q-6 0 -8.5 3.5t-2.5 8t2.5 8t8.5 3.5t8.5 -3.5t2.5 -8t-2.5 -8t-8.5 -3.5zM511 31
q-6 0 -8.5 3.5t-2.5 8t2.5 8t8.5 3.5t8.5 -3.5t2.5 -8t-2.5 -8t-8.5 -3.5zM198 338q-6 0 -9 3.5t-3 8t3 8t9 3.5t9 -3.5t3 -8t-3 -8t-9 -3.5zM306 224q-6 0 -8.5 3.5t-2.5 8t2.5 8.5t8.5 4t8.5 -4t2.5 -8.5t-2.5 -8t-8.5 -3.5zM420 111q-12 0 -12 11t12 11t12 -11t-12 -11z
M534 -5q-6 0 -8.5 3.5t-2.5 8t2.5 8.5t8.5 4t8.5 -4t2.5 -8.5t-2.5 -8t-8.5 -3.5zM112 411q-6 0 -9 3.5t-3 8t3 8.5t9 4t9 -4t3 -8.5t-3 -8t-9 -3.5zM220 298q-6 0 -8.5 3.5t-2.5 8t2.5 8t8.5 3.5t8.5 -3.5t2.5 -8t-2.5 -8t-8.5 -3.5zM443 75q-11 0 -11 11t11 11t11 -11
t-11 -11zM328 187q-6 0 -8.5 3.5t-2.5 8t2.5 8t8.5 3.5t8.5 -3.5t2.5 -8t-2.5 -8t-8.5 -3.5zM133 375q-6 0 -8.5 3.5t-2.5 8t2.5 8.5t8.5 4t8.5 -4t2.5 -8.5t-2.5 -8t-8.5 -3.5zM242 260q-6 0 -8.5 3.5t-2.5 8t2.5 8t8.5 3.5t9 -3.5t3 -8t-3 -8t-9 -3.5zM351 148
q-6 0 -9.5 3.5t-3.5 8t3.5 8t9.5 3.5t8.5 -3.5t2.5 -8t-2.5 -8t-8.5 -3.5zM465 31q-6 0 -8.5 3.5t-2.5 8t2.5 8t8.5 3.5t8.5 -3.5t2.5 -8t-2.5 -8t-8.5 -3.5zM156 338q-6 0 -9 3.5t-3 8t3 8t9 3.5t8.5 -3.5t2.5 -8t-2.5 -8t-8.5 -3.5zM264 224q-6 0 -9 3.5t-3 8t3 8.5t9 4
t8.5 -4t2.5 -8.5t-2.5 -8t-8.5 -3.5zM489 -5q-6 0 -9 3.5t-3 8t3 8.5t9 4t9 -4t3 -8.5t-3 -8t-9 -3.5zM372 111q-11 0 -11 11t11 11t11 -11t-11 -11zM176 298q-6 0 -8.5 3.5t-2.5 8t2.5 8t8.5 3.5t8.5 -3.5t2.5 -8t-2.5 -8t-8.5 -3.5zM285 187q-6 0 -8.5 3.5t-2.5 8t2.5 8
t8.5 3.5t8.5 -3.5t2.5 -8t-2.5 -8t-8.5 -3.5zM398 75q-11 0 -11 11t11 11t11 -11t-11 -11zM198 260q-6 0 -9 3.5t-3 8t3 8t9 3.5t9 -3.5t3 -8t-3 -8t-9 -3.5zM306 148q-6 0 -8.5 3.5t-2.5 8t2.5 8t8.5 3.5t8.5 -3.5t2.5 -8t-2.5 -8t-8.5 -3.5zM112 340q-6 0 -9 3.5t-3 8t3 8
t9 3.5t9 -3.5t3 -8t-3 -8t-9 -3.5zM420 31q-6 0 -9 3.5t-3 8t3 8t9 3.5t9 -3.5t3 -8t-3 -8t-9 -3.5zM220 224q-6 0 -8.5 3.5t-2.5 8t2.5 8.5t8.5 4t8.5 -4t2.5 -8.5t-2.5 -8t-8.5 -3.5zM328 111q-11 0 -11 11t11 11t11 -11t-11 -11zM443 -5q-6 0 -8.5 3.5t-2.5 8t2.5 8.5
t8.5 4t8.5 -4t2.5 -8.5t-2.5 -8t-8.5 -3.5zM133 298q-6 0 -8.5 3.5t-2.5 8t2.5 8t8.5 3.5t8.5 -3.5t2.5 -8t-2.5 -8t-8.5 -3.5zM242 187q-6 0 -8.5 3.5t-2.5 8t2.5 8t8.5 3.5t9 -3.5t3 -8t-3 -8t-9 -3.5zM351 75q-13 0 -13 11t13 11q11 0 11 -11t-11 -11zM156 260
q-6 0 -9 3.5t-3 8t3 8t9 3.5t8.5 -3.5t2.5 -8t-2.5 -8t-8.5 -3.5zM264 148q-6 0 -9 3.5t-3 8t3 8t9 3.5t8.5 -3.5t2.5 -8t-2.5 -8t-8.5 -3.5zM372 31q-6 0 -8.5 3.5t-2.5 8t2.5 8t8.5 3.5t8.5 -3.5t2.5 -8t-2.5 -8t-8.5 -3.5zM176 224q-6 0 -8.5 3.5t-2.5 8t2.5 8.5t8.5 4
t8.5 -4t2.5 -8.5t-2.5 -8t-8.5 -3.5zM285 111q-11 0 -11 11t11 11t11 -11t-11 -11zM398 -5q-6 0 -8.5 3.5t-2.5 8t2.5 8.5t8.5 4t8.5 -4t2.5 -8.5t-2.5 -8t-8.5 -3.5zM198 187q-6 0 -9 3.5t-3 8t3 8t9 3.5t9 -3.5t3 -8t-3 -8t-9 -3.5zM306 75q-11 0 -11 11t11 11t11 -11
t-11 -11zM112 262q-6 0 -9 3.5t-3 8t3 8t9 3.5t9 -3.5t3 -8t-3 -8t-9 -3.5zM220 148q-6 0 -8.5 3.5t-2.5 8t2.5 8t8.5 3.5t8.5 -3.5t2.5 -8t-2.5 -8t-8.5 -3.5zM328 31q-6 0 -8.5 3.5t-2.5 8t2.5 8t8.5 3.5t8.5 -3.5t2.5 -8t-2.5 -8t-8.5 -3.5zM133 224q-6 0 -8.5 3.5
t-2.5 8t2.5 8.5t8.5 4t8.5 -4t2.5 -8.5t-2.5 -8t-8.5 -3.5zM242 111q-11 0 -11 11t11 11q12 0 12 -11t-12 -11zM351 -5q-6 0 -9.5 3.5t-3.5 8t3.5 8.5t9.5 4t8.5 -4t2.5 -8.5t-2.5 -8t-8.5 -3.5zM156 187q-6 0 -9 3.5t-3 8t3 8t9 3.5t8.5 -3.5t2.5 -8t-2.5 -8t-8.5 -3.5z
M264 75q-12 0 -12 11t12 11q11 0 11 -11t-11 -11zM176 148q-6 0 -8.5 3.5t-2.5 8t2.5 8t8.5 3.5t8.5 -3.5t2.5 -8t-2.5 -8t-8.5 -3.5zM285 31q-6 0 -8.5 3.5t-2.5 8t2.5 8t8.5 3.5t8.5 -3.5t2.5 -8t-2.5 -8t-8.5 -3.5zM198 111q-12 0 -12 11t12 11t12 -11t-12 -11zM306 -5
q-6 0 -8.5 3.5t-2.5 8t2.5 8.5t8.5 4t8.5 -4t2.5 -8.5t-2.5 -8t-8.5 -3.5zM112 188q-6 0 -9 3.5t-3 8t3 8.5t9 4t9 -4t3 -8.5t-3 -8t-9 -3.5zM220 75q-11 0 -11 11t11 11t11 -11t-11 -11zM133 148q-6 0 -8.5 3.5t-2.5 8t2.5 8t8.5 3.5t8.5 -3.5t2.5 -8t-2.5 -8t-8.5 -3.5z
M242 31q-6 0 -8.5 3.5t-2.5 8t2.5 8t8.5 3.5t9 -3.5t3 -8t-3 -8t-9 -3.5zM156 111q-12 0 -12 11t12 11q11 0 11 -11t-11 -11zM264 -5q-6 0 -9 3.5t-3 8t3 8.5t9 4t8.5 -4t2.5 -8.5t-2.5 -8t-8.5 -3.5zM176 75q-11 0 -11 11t11 11t11 -11t-11 -11zM198 31q-6 0 -9 3.5t-3 8
t3 8t9 3.5t9 -3.5t3 -8t-3 -8t-9 -3.5zM112 108q-6 0 -9 3.5t-3 8t3 8t9 3.5t9 -3.5t3 -8t-3 -8t-9 -3.5zM220 -5q-6 0 -8.5 3.5t-2.5 8t2.5 8.5t8.5 4t8.5 -4t2.5 -8.5t-2.5 -8t-8.5 -3.5zM133 75q-11 0 -11 11t11 11t11 -11t-11 -11zM156 31q-6 0 -9 3.5t-3 8t3 8t9 3.5
t8.5 -3.5t2.5 -8t-2.5 -8t-8.5 -3.5zM176 -5q-6 0 -8.5 3.5t-2.5 8t2.5 8.5t8.5 4t8.5 -4t2.5 -8.5t-2.5 -8t-8.5 -3.5zM112 29q-6 0 -9 3.5t-3 8t3 8t9 3.5t9 -3.5t3 -8t-3 -8t-9 -3.5zM133 -5q-6 0 -8.5 3.5t-2.5 8t2.5 8.5t8.5 4t8.5 -4t2.5 -8.5t-2.5 -8t-8.5 -3.5z" />
    <glyph glyph-name="uni25A4" unicode="&#x25a4;" horiz-adv-x="850" 
d="M777 -41h-704v698h704v-698zM746 561v67h-643v-67h643zM746 462v69h-643v-69h643zM746 370v62h-643v-62h643zM746 272v67h-643v-67h643zM746 174v68h-643v-68h643zM746 81v63h-643v-63h643zM746 -12v63h-643v-63h643z" />
    <glyph glyph-name="uni25A5" unicode="&#x25a5;" horiz-adv-x="850" 
d="M774 -48h-698v704h698v-704zM745 -18v644h-64v-644h64zM651 -18v644h-62v-644h62zM558 -18v644h-68v-644h68zM460 -18v644h-67v-644h67zM363 -18v644h-62v-644h62zM270 -18v644h-69v-644h69zM171 -18v644h-66v-644h66z" />
    <glyph glyph-name="uni25A8" unicode="&#x25a8;" horiz-adv-x="850" 
d="M778 -43h-706v699h706v-699zM744 180v119l-311 -313h119zM744 338v120l-472 -472h119zM744 -14v155l-155 -155h155zM722 626h-103l-517 -514v-105zM744 498v106l-620 -618h106zM414 626h-118l-194 -191v-123zM578 626h-120l-356 -355v-121zM251 626h-149v-155z" />
    <glyph glyph-name="uni25A7" unicode="&#x25a7;" horiz-adv-x="850" 
d="M778 -45h-706v699h706v-699zM744 469v155h-155zM744 311v120l-191 193h-120zM744 153v119l-352 352h-120zM744 7v105l-513 512h-107zM722 -15l-620 619v-105l516 -514h104zM578 -15l-476 475v-121l355 -354h121zM415 -15l-313 314v-123l193 -191h120zM252 -15l-150 154
v-154h150z" />
    <glyph glyph-name="uni25A6" unicode="&#x25a6;" horiz-adv-x="850" 
d="M777 -41h-704v698h704v-698zM746 561v67h-68v-67h68zM650 561v67h-65v-67h65zM746 460v73h-68v-73h68zM557 561v67h-70v-67h70zM650 460v73h-65v-73h65zM746 368v65h-68v-65h68zM557 460v73h-70v-73h70zM459 561v67h-71v-67h71zM650 368v65h-65v-65h65zM746 271v69h-68
v-69h68zM361 561v67h-64v-67h64zM557 368v65h-70v-65h70zM650 271v69h-65v-69h65zM746 173v71h-68v-71h68zM459 460v73h-71v-73h71zM269 561v67h-72v-67h72zM557 271v69h-70v-69h70zM361 460v73h-64v-73h64zM650 173v71h-65v-71h65zM746 80v66h-68v-66h68zM459 368v65h-71
v-65h71zM746 -12v65h-68v-65h68zM170 561v67h-67v-67h67zM557 173v71h-70v-71h70zM650 80v66h-65v-66h65zM269 460v73h-72v-73h72zM361 368v65h-64v-65h64zM459 271v69h-71v-69h71zM650 -12v65h-65v-65h65zM557 80v66h-70v-66h70zM361 271v69h-64v-69h64zM269 368v65h-72
v-65h72zM170 460v73h-67v-73h67zM459 173v71h-71v-71h71zM557 -12v65h-70v-65h70zM269 271v69h-72v-69h72zM361 173v71h-64v-71h64zM170 368v65h-67v-65h67zM459 80v66h-71v-66h71zM459 -12v65h-71v-65h71zM361 80v66h-64v-66h64zM170 271v69h-67v-69h67zM269 173v71h-72
v-71h72zM361 -12v65h-64v-65h64zM269 80v66h-72v-66h72zM170 173v71h-67v-71h67zM269 -12v65h-72v-65h72zM170 80v66h-67v-66h67zM170 -12v65h-67v-65h67z" />
    <glyph glyph-name="uni25A9" unicode="&#x25a9;" horiz-adv-x="850" 
d="M777 -45h-704v699h704v-699zM718 624h-129l65 -64zM744 469v132l-66 -66zM637 540l-60 59l-59 -59l59 -61zM717 458l-58 59l-60 -59l58 -59zM554 624h-121l61 -61zM744 312v127l-63 -64zM637 377l-58 59l-57 -58l57 -58zM716 300l-56 55l-58 -59l54 -56zM474 542l-56 55
l-60 -60l56 -56zM557 459l-60 60l-61 -61l61 -59zM744 153v129l-64 -64zM399 624h-126l63 -63zM476 379l-60 60l-52 -54l59 -59zM715 141l-56 56l-53 -53l56 -56zM394 461l-55 55l-53 -53l55 -55zM557 297l-58 59l-53 -53l58 -58zM636 219l-55 55l-53 -53l55 -55zM315 540
l-59 59l-54 -53l60 -59zM744 6v117l-58 -59zM233 624h-109l54 -55zM158 548l-55 56v-112zM722 -15l-58 58l-58 -58h116zM242 466l-61 60l-53 -53l61 -60zM483 224l-58 58l-52 -52l59 -58zM561 145l-55 55l-51 -51l55 -55zM640 66l-55 56l-51 -52l55 -56zM319 388l-55 54
l-52 -53l55 -54zM401 304l-58 60l-52 -53l58 -59zM579 -15l-66 65l-65 -65h131zM169 393l-66 66v-132zM412 150l-59 60l-60 -61l58 -58zM489 73l-55 55l-59 -60l55 -55zM247 315l-54 56l-61 -61l55 -56zM332 231l-61 61l-61 -60l62 -62zM167 235l-64 64v-129zM415 -15
l-62 61l-61 -61h123zM330 70l-58 59l-60 -61l58 -57zM249 152l-58 59l-62 -62l60 -58zM169 71l-66 67v-133zM254 -15l-62 62l-64 -62h126z" />
    <glyph glyph-name="uni2668" unicode="&#x2668;" horiz-adv-x="850" 
d="M616 302q3 -35 -4 -63t-18.5 -50.5t-24.5 -40.5t-21 -33t-12.5 -28t-7.5 -23t-6 -16.5t-8 -7.5q-3 -1 -6 9t-4 26t0.5 33.5t7.5 31.5q9 21 17.5 47.5t14 54.5t4.5 55.5t-11 51.5q-16 36 -21.5 66t-4 56t8.5 49.5t17 48.5q5 12 7.5 25.5t3.5 25t2 19.5t3 8t8 -9t10.5 -27
t6.5 -45.5t-4 -64.5q-5 -33 -0.5 -55t13 -42t17.5 -43.5t12 -58.5zM491 290q4 -21 -2 -46.5t-16 -50.5t-21.5 -46.5t-18.5 -34.5q-11 -21 -17 -35.5t-9 -24.5t-5 -14t-6 -4q-5 0 -9 10.5t-5.5 28t1.5 39.5t13 46q14 33 17 66t0 61t-8.5 48.5t-9.5 29.5q-19 44 -21.5 78
t3.5 61t17.5 49.5t20.5 42.5t13.5 38t6.5 32t2.5 22.5t1.5 8.5q6 0 13 -14t11 -38t2.5 -54t-11.5 -61q-12 -35 -10.5 -62.5t9.5 -54t19 -55.5t19 -66zM357 267q3 -29 -13.5 -71t-38.5 -85q-9 -18 -13.5 -31t-7 -21t-4.5 -11.5t-6 -3.5q-3 0 -7 8t-6.5 21.5t-2 32t7.5 38.5
q4 13 10 36.5t8.5 52t0.5 58t-13 55.5q-27 66 -17.5 124t38.5 112q5 10 9.5 21.5t7.5 21.5t5.5 16.5t3.5 6.5q4 0 8.5 -10t6 -28.5t-2 -46.5t-13.5 -65q-6 -21 -1.5 -46.5t12 -54.5t16.5 -62t12 -68zM801 115q3 -43 -27.5 -77.5t-80 -59.5t-110.5 -40.5t-117 -19.5
q-43 -3 -90.5 1.5t-93.5 15t-88.5 27t-74.5 36.5t-51.5 43.5t-19.5 48.5q-1 38 22.5 66.5t56 48.5t66 32.5t52.5 18.5q11 4 13 -4t-11 -13q-4 -2 -24.5 -12t-44 -27t-42 -40t-19.5 -51q-1 -24 27 -42.5t73 -30.5t101.5 -18t112.5 -6q48 0 102.5 8.5t101 23.5t78 36.5
t31.5 48.5q0 19 -13 37t-30.5 31.5t-36 23t-29.5 12.5t-8 9.5t12 5.5q8 0 33.5 -9t53.5 -26t50.5 -41.5t24.5 -56.5z" />
    <glyph glyph-name="uni260F" unicode="&#x260f;" horiz-adv-x="850" 
d="M839 351q-5 -8 -17 -11t-28 -2.5t-33.5 3.5t-33.5 8q-14 4 -31.5 10.5t-33 14t-25.5 16.5t-8 19q0 6 4 17t7 23t4.5 23.5t-2.5 19.5q-3 6 -12 11t-19 8t-17.5 4.5l-7.5 1.5v-14.5t0.5 -32.5t1 -34.5t1.5 -20.5q5 -24 17 -47t27.5 -45.5t33.5 -43t35 -39.5
q20 -22 30.5 -47t15 -46t5.5 -34.5l1 -13.5q11 -2 15.5 -10.5t5 -20.5t-2 -25t-5.5 -25q-2 -8 -11.5 -11t-21 -4.5t-20.5 -1t-10 0.5h-564q-11 0 -23.5 -1t-23 0t-18 4.5t-8.5 12.5t-2 22.5t0.5 25.5t6.5 20.5t16 9.5l0.5 17t6.5 42t20 54t41 53q15 13 28.5 25t24.5 26
t20.5 32.5t16.5 43.5q7 23 9.5 46t2.5 41.5t-1 29.5t-2 11l-7.5 -2.5t-16.5 -7.5t-17.5 -12.5t-10.5 -16.5q-1 -7 2 -17t7 -20.5t6.5 -21t1.5 -18.5q-4 -18 -29 -31.5t-55 -22.5q-18 -5 -38.5 -10t-38.5 -6.5t-32 1t-20 12.5t-7 28.5t2 40.5t11 44t22 40q23 31 63 52.5
t90.5 35.5t108 21.5t115.5 9.5q36 1 77 -2.5t83.5 -11t85 -19.5t82.5 -28q34 -14 58 -39.5t37.5 -55t14.5 -59t-11 -50.5zM497 460v51l-8 -1.5t-19 -3.5t-24.5 -3.5t-25.5 -1.5q-11 0 -23 2t-22 3.5t-17 3l-7 1.5v-51h146zM814 365q10 0 10.5 20.5t-9 48t-29.5 55t-51 41.5
q-34 15 -73.5 27t-80 20t-81 12t-77.5 4q-48 0 -99.5 -6t-97.5 -17t-83 -25.5t-57 -30.5q-27 -21 -40 -48t-17 -50t-1.5 -39.5t8.5 -16.5q17 -2 38 1t42 8.5t40 13t31 15.5q6 4 3 15t-7 25.5t-6 30t5 28.5q9 18 47 32t90 11q6 0 17.5 -2t25.5 -4t29.5 -3.5t30.5 -1.5
q31 -1 53.5 2.5t51.5 7.5q34 5 60 0.5t44 -13t27.5 -17t10.5 -12.5q3 -11 1 -22t-5.5 -21.5t-6.5 -20t-1 -18.5q2 -10 20.5 -19.5t43 -16.5t50.5 -11t43 -3zM735 33q2 0 4.5 7.5t3 17t-2 17t-10.5 7.5l-0.5 13t-4 33t-12 43.5t-26.5 45.5q-11 14 -31 37t-40 48.5t-35 51
t-17 45.5q-1 11 -2 30t-1.5 37.5t-0.5 32.5v14h-43v-84h-186v84h-44q0 -1 0.5 -18.5t-1.5 -42.5t-7 -53.5t-16 -51.5q-8 -17 -18.5 -30t-22.5 -26.5t-26.5 -28.5t-31.5 -35q-17 -21 -26.5 -45.5t-14 -45.5t-6 -35l-1.5 -14q-9 0 -13.5 -8.5t-6 -18.5t0 -18.5t4.5 -8.5h634z
M583 214q-2 -33 -17.5 -61t-38.5 -49t-52.5 -32.5t-60.5 -11.5q-35 0 -66.5 13.5t-54.5 37.5t-35.5 57.5t-8.5 74.5q2 22 13.5 47.5t31.5 47.5t50 37t69 16q37 1 69 -13.5t55.5 -39.5t36 -57t9.5 -67zM553 216q2 28 -8.5 54.5t-30 47t-46 32.5t-56.5 12q-32 0 -56.5 -12.5
t-41 -31t-25.5 -40t-11 -39.5q-3 -34 7 -61.5t29 -47t45 -30.5t54 -11q25 0 49.5 9.5t44 26.5t32 40.5t14.5 50.5z" />
    <glyph glyph-name="uni260E" unicode="&#x260e;" horiz-adv-x="850" 
d="M839 351q-5 -9 -17.5 -12.5t-28 -2.5t-33 4.5t-33.5 8.5q-14 4 -31.5 10.5t-32.5 14t-25 16.5t-9 19q1 6 4.5 17t7 23t4.5 23.5t-3 19.5q-3 6 -11.5 10t-18 6.5t-16.5 3l-7 0.5q-1 0 -1.5 -12t-0.5 -28.5t0.5 -33t1.5 -23.5q4 -24 16 -47t28 -45.5t34 -43t35 -39.5
q20 -22 30.5 -47t15 -46t5 -34.5l0.5 -13.5q12 -2 16.5 -10.5t5 -20.5t-2 -25t-5.5 -25q-2 -8 -11.5 -11t-21 -4.5t-20.5 -1t-10 0.5h-564q-11 0 -23.5 -1t-23 0t-18 4.5t-8.5 12.5t-2 22.5t0.5 25.5t6.5 20.5t16 9.5l0.5 17t6.5 42t20 54t41 53q15 13 28.5 25t24.5 26
t20.5 32.5t16.5 43.5q7 23 9.5 46t2.5 41.5t-1 29.5t-2 11l-7.5 -2.5t-16.5 -7.5t-17.5 -12.5t-10.5 -16.5q-2 -7 1.5 -17t7 -20.5t6.5 -21t2 -18.5q-4 -18 -29 -31.5t-55 -22.5q-18 -5 -38.5 -10t-38.5 -6.5t-32 1t-20 12.5t-7 28.5t2 40.5t11 44t22 40q23 31 63 52.5
t90.5 35.5t108 21.5t115.5 9.5q36 1 77 -2.5t83.5 -11t85 -19.5t82.5 -28q34 -14 58 -39.5t37.5 -55t14.5 -59t-11 -50.5zM513 510l-9.5 -1.5t-23.5 -3t-30.5 -2.5t-29.5 -1t-28.5 2t-29 4.5t-23 4l-9.5 1.5l-1 -7t-1 -16.5t1 -18.5t3 -14q2 -4 11 -6t21 -3t26.5 -1h26.5
q13 0 28.5 -1t28.5 -0.5t23 3t13 7.5q3 4 3.5 12.5t0.5 17.5t-0.5 16zM584 214q3 35 -10 67t-36.5 57t-55.5 39.5t-69 13.5q-39 -1 -69 -16t-50 -37t-31.5 -47.5t-13.5 -47.5q-4 -41 8.5 -74.5t35.5 -57.5t54.5 -37.5t66.5 -13.5q31 0 60.5 11.5t53 32.5t39 49t17.5 61z" />
    <glyph glyph-name="uni261C" unicode="&#x261c;" horiz-adv-x="850" 
d="M762 204h-65v18h-22q-6 -2 -17 -7.5t-28.5 -12.5t-42.5 -14.5t-59 -12.5q-16 -2 -43.5 -2.5t-54.5 0t-47 1.5l-20 1q-17 0 -31.5 7t-16.5 21q-3 11 4 19t9 9q-1 0 -11.5 2.5t-16.5 11.5q-5 8 -5 14.5t2 12.5q3 6 8 13l-5 1t-10.5 4t-10.5 8.5t-5 14.5q0 14 10.5 21t24 10
t25 3h11.5l-3 8l-14 0.5t-36 1.5t-48 2t-50 2h-29t-35.5 3t-29.5 11t-11 25q1 13 14 19.5t30 9t33.5 2.5h23.5q12 1 38.5 1.5t61 1t72.5 1t74 0.5q21 0 47 0.5t54.5 -3.5t57 -15t52.5 -33q2 -2 10 -2.5t17 -1.5q11 -1 24 -1v28h64v-203zM698 365q-1 0 -7 0.5t-13 1
t-12.5 0.5h-5.5q4 -15 2.5 -15.5t-8.5 6t-19 18t-28 22.5q-13 8 -36.5 13t-48.5 8t-46 3.5t-28 -0.5q-2 0 -9 -2t-16 -5t-17.5 -6.5t-14.5 -7.5q-13 -8 -19 -22.5t-17 -22.5l0.5 -2t3.5 -3.5t8.5 -1.5t15.5 4q8 3 14.5 8.5t11.5 10.5t8.5 8t5.5 0q1 -4 0 -8q-1 -3 -3 -5
q0 -1 4.5 -1.5t10 -1.5t11.5 -1t9 1q17 4 25.5 11t10.5 2q0 -4 -5.5 -12t-6.5 -8q8 -10 19 -18q9 -8 21.5 -14.5t27.5 -11.5q17 -5 31.5 -7.5t25 -3.5t16.5 -2.5t6 -5.5q0 -3 -8 -3.5t-19 0t-24 3t-23 5.5q-21 7 -37 16.5t-26.5 18t-16 15t-6.5 6.5q-4 -1 -8 -1q-3 -1 -6 -1
h-5q-8 0 -14.5 0.5t-11.5 1.5q-6 1 -11 3l-13 -11q14 -1 25 -4q10 -2 19 -6.5t11 -10.5q5 -16 -1 -25t-8 -11q1 0 12.5 -6t13.5 -17q3 -11 -3.5 -19t-8.5 -9q1 0 5.5 -1.5t9 -4.5t8.5 -7.5t5 -10.5q0 -7 -2 -12t-4 -9l-6 -8q0 -1 11 -1t20 1q38 3 70.5 12.5t56 19.5t37 17.5
l13.5 7.5q1 0 1 -4q-1 -3 -1 -6q0 -1 3 -0.5t6 0.5h8v132zM403 422q-1 0 -23.5 -0.5t-54.5 -1t-68.5 -1t-65.5 -1.5q-42 -2 -65 -4.5t-23 -16.5q-1 -15 19.5 -18t68.5 -5q27 -1 55.5 -2t51.5 -2q27 -2 53 -3l18 27q7 11 19.5 18.5t14.5 9.5zM749 218v174h-38v-174h38z
M434 298q11 7 7.5 19t-23.5 16q-14 2 -27.5 3t-24.5 1q-13 0 -25 -1q-9 0 -23 -2t-23 -10q-5 -3 -5.5 -8t2 -9t7.5 -7.5t10 -3.5q1 -2 14 -2h35h47.5t28.5 4zM456 258q3 13 -11 18.5t-27 5.5h-84q-7 0 -13 -4t-9 -9.5t-1 -12t11 -11.5q4 -2 18 -3t29.5 -1.5t28 0t13.5 0.5
q4 0 11 1t14 3t12.5 5t7.5 8zM470 214q-1 8 -11 11t-15 3h-43q-7 0 -16.5 -0.5t-17.5 -0.5h-20q-8 0 -12 -5t-4.5 -11t2.5 -11.5t9 -7.5q7 -2 23 -3.5t32 -1.5h28.5t13.5 1q3 0 8.5 1.5t11 4.5t9 8t2.5 12z" />
    <glyph glyph-name="uni261E" unicode="&#x261e;" horiz-adv-x="850" 
d="M762 400q1 -17 -11.5 -25t-29.5 -11t-35.5 -3h-29.5q-24 -2 -50 -2.5t-48 -1.5q-26 -1 -49 -2l-3 -8h11.5t25 -3t24 -10t10.5 -21q0 -9 -5 -14.5t-11 -8.5t-11 -4l-5 -1q4 -7 7 -13q2 -6 2.5 -12.5t-4.5 -14.5q-6 -9 -16 -11.5t-11 -2.5q2 -1 8.5 -9t3.5 -19
q-3 -14 -17 -21t-30 -7q-1 0 -21 -1t-47 -1.5t-55 0t-44 2.5q-66 10 -100.5 27t-44.5 20h-23v-18h-65v203h64v-28q13 0 24 1q9 1 17 1.5t9 2.5q25 22 53.5 33t57 15t54.5 3.5t47 -0.5q36 0 74.5 -0.5t73 -1t61 -1t38.5 -1.5h23.5t33 -2.5t30 -9t14.5 -19.5zM495 356
q-11 8 -17.5 22.5t-18.5 22.5q-6 4 -15 7.5t-17.5 6.5t-15.5 5t-8 2q-8 1 -29 0.5t-45.5 -3.5t-48.5 -8t-36 -13q-17 -11 -28.5 -22.5t-18.5 -18t-9 -6t2 15.5h-5.5t-12.5 -0.5t-13 -1t-7 -0.5v-132h8h8q-1 3 -1 6q0 5 2 4l13.5 -7.5t37.5 -17.5t56.5 -19.5t70.5 -12.5
q8 -1 19 -1t11 1l-6 8q-2 4 -4 9t-1 12q2 11 12 16.5t13 7.5q-2 1 -8 9t-2 19q1 5 5 9.5t9 7.5q5 4 12 6q-2 2 -8.5 11t-0.5 25q2 6 11 10.5t19 6.5q11 3 26 4l-13 11q-5 -2 -11 -3q-5 -1 -11.5 -1.5t-14.5 -0.5h-5.5t-6.5 1q-4 0 -7 1q-1 0 -6.5 -6.5t-16 -15.5
t-26.5 -18.5t-37 -15.5q-11 -3 -24 -5.5t-24 -3.5t-19 0t-8 4q0 4 6 5.5t16.5 2.5t25.5 3.5t32 7.5q14 5 27 11.5t22 14.5q11 8 19 18q-1 0 -7.5 8t-5.5 12q1 5 10 -2t26 -11q3 -1 9 -1t12 1t10 1.5t4 1.5q-2 2 -3 5q-2 5 0 8q4 5 14 -7.5t27 -19.5q9 -3 14.5 -3.5t8.5 1
t3.5 3.5zM747 397q0 14 -22.5 16.5t-64.5 4.5q-29 1 -66 1.5t-69 1t-54.5 1t-23.5 0.5q2 -2 14.5 -9.5t19.5 -18.5l18 -27q26 1 53 3q23 1 51.5 2t56.5 2q48 2 68 5t19 18zM139 218v174h-38v-174h38zM556 324q-9 8 -23.5 10t-23.5 2q-12 1 -25 1q-11 0 -24.5 -1t-26.5 -3
q-20 -4 -23.5 -16t7.5 -19q5 -4 27 -4h48h36t14 2q11 1 17.5 11t-3.5 17zM528 245q9 6 11 12.5t-1 12t-9 9t-13 3.5h-84q-13 0 -27 -5.5t-11 -18.5q1 -5 7 -8t13.5 -5t14.5 -3t11 -1l12.5 -0.5t28.5 0t30 1.5t17 3zM509 192q6 2 9 7.5t2.5 11.5t-4.5 11t-12 5h-20
q-8 0 -18 0.5t-17 0.5h-42q-5 0 -15.5 -3t-11.5 -11q-2 -7 2 -12t9.5 -8t11.5 -4.5t8 -1.5q1 -1 13.5 -1h28.5t32 1.5t24 3.5z" />
    <glyph glyph-name="paragraph" unicode="&#xb6;" horiz-adv-x="585" 
d="M449 633h-133v-359h-51q-216 0 -216 199t216 199h226v-816h-42v777z" />
    <glyph glyph-name="dagger" unicode="&#x2020;" horiz-adv-x="460" 
d="M209 463h-172v39h172v170h42v-170h171v-39h-171v-463h-42v463z" />
    <glyph glyph-name="daggerdbl" unicode="&#x2021;" horiz-adv-x="460" 
d="M209 170h-172v39h172v254h-172v39h172v170h42v-170h171v-39h-171v-254h171v-39h-171v-170h-42v170z" />
    <glyph glyph-name="arrowupdn" unicode="&#x2195;" horiz-adv-x="427" 
d="M367 75l-154 -171l-153 171l136 -69v595l-136 -69l153 171l154 -171l-137 69v-595z" />
    <glyph glyph-name="uni2197" unicode="&#x2197;" horiz-adv-x="850" 
d="M828 702l-12 -228l-48 144l-721 -720l-25 24l722 720l-145 48z" />
    <glyph glyph-name="uni2199" unicode="&#x2199;" horiz-adv-x="850" 
d="M824 679l-713 -713l144 -49l-229 -11l13 228l48 -144l712 712z" />
    <glyph glyph-name="uni2196" unicode="&#x2196;" horiz-adv-x="850" 
d="M826 -71l-25 -23l-715 713l-48 -144l-14 228l230 -12l-145 -48z" />
    <glyph glyph-name="uni2198" unicode="&#x2198;" horiz-adv-x="850" 
d="M819 -88l-229 13l144 48l-703 705l25 23l702 -705l48 145z" />
    <glyph glyph-name="uni266D" unicode="&#x266d;" horiz-adv-x="434" 
d="M356 211q-18 -51 -46 -87.5t-60.5 -60.5t-65.5 -37.5t-59.5 -20.5t-43 -8.5t-16.5 -0.5v629l59 -2v-308q0 -2 7.5 15t27 36t53 32t86.5 3q29 -5 45.5 -25t22.5 -47t3 -58.5t-13 -59.5zM261 351q-24 9 -44 5t-35.5 -15t-27 -27t-19 -30.5t-11 -25.5t-3.5 -13v-202
q0 -1 13.5 1t33.5 10t44.5 23.5t45.5 40.5q20 23 31.5 59t13 72t-8.5 65t-33 37z" />
    <glyph glyph-name="uni2669" unicode="&#x2669;" horiz-adv-x="297" 
d="M237 129q0 -23 -1 -39t-4.5 -29.5t-10 -25t-17.5 -24.5q-13 -15 -30.5 -28.5t-35.5 -20t-35 -4.5t-30 18q-12 15 -13 33t6.5 35.5t22 33t32.5 25.5q34 18 57 22t23 6l-2 511l38 4v-517z" />
    <glyph glyph-name="musicalnote" unicode="&#x266a;" horiz-adv-x="496" 
d="M408 226q-9 -16 -26 -35t-35 -34.5t-33 -25t-18 -7.5q-9 6 2 19t30 34.5t38.5 53t27.5 74.5q4 23 -6.5 43.5t-29 37.5t-41.5 30t-43 22t-33.5 13t-13.5 3v-322q0 -22 -1 -38t-4 -29.5t-10 -25t-19 -24.5q-13 -15 -30 -28t-35 -20t-35 -5t-30 17q-12 15 -13 33t6.5 36
t21.5 33.5t32 25.5q35 19 58.5 22.5t23.5 5.5v470q0 12 -0.5 27t6.5 15q8 0 13 -5.5t14 -17t24.5 -28.5t45.5 -41q68 -56 102.5 -98.5t44 -80t-1 -73t-32.5 -77.5z" />
    <glyph glyph-name="uni266C" unicode="&#x266c;" horiz-adv-x="648" 
d="M598 225q0 -43 -12.5 -79.5t-44.5 -65.5q-12 -11 -27 -20.5t-30 -14t-29 -3.5t-25 10q-11 10 -12 25t5 32t17 33.5t25 28.5q15 14 32.5 21.5t31.5 12.5q17 5 33 8v175l-328 -71v-216q0 -30 -18.5 -60t-44.5 -52q-12 -11 -28 -19t-31.5 -11t-30 0.5t-24.5 17.5
q-8 11 -7.5 25.5t7 29.5t17.5 28.5t23 22.5q15 11 32.5 17.5t32.5 10t25 5t10 3.5v408l401 81v-383zM562 476v36l-328 -70v-35z" />
    <glyph glyph-name="uni327F" unicode="&#x327f;" horiz-adv-x="850" 
d="M686 47h-102l-159 265l-102 -98v-167h-81v522h81v-260l248 260h106l-197 -206zM799 374q-14 65 -47.5 119t-81.5 93.5t-108.5 62.5t-128.5 26q-71 3 -139.5 -25.5t-121.5 -77.5t-85 -112t-29 -130h148v-55h-204q-5 91 25.5 173t88 144.5t138 99.5t176.5 37
q90 0 162.5 -28.5t126.5 -77t88.5 -113t48.5 -136.5h-57zM861 328q2 -104 -31.5 -188t-92 -143t-138 -91.5t-168.5 -32.5q-87 0 -160.5 29.5t-128.5 78.5t-90 113.5t-47 134.5h53q13 -60 44 -115t78.5 -97t110.5 -66.5t140 -24.5q73 0 139.5 27t117 74t81 110.5t33.5 137.5
h-143v53h202z" />
    <glyph glyph-name="uni321C" unicode="&#x321c;" horiz-adv-x="850" 
d="M805 299q0 -118 -32.5 -222.5t-81.5 -179.5h-29q54 106 75 203.5t21 198.5q0 51 -5 100.5t-16 99t-29.5 100t-45.5 103.5h29q24 -38 45 -83.5t36.5 -97t24 -107.5t8.5 -115zM162 -103q-50 75 -82 179.5t-32 222.5t32 223t82 180h28q-27 -53 -45 -103.5t-29.5 -100
t-16 -99t-4.5 -100.5q0 -101 20.5 -198.5t74.5 -203.5h-28zM448 544q3 -29 28 -60t60 -57t74 -44t69 -21l-17 -32q-39 12 -77.5 31.5t-71 44t-56 52.5t-32.5 57q-9 -29 -32.5 -57t-56 -52.5t-71 -44t-77.5 -31.5l-17 32q30 3 69 21t74 44t60 57t28 60h-205v31h455v-31h-204z
M713 243v-31h-271v-258h-34v258h-271v31h576z" />
    <glyph glyph-name="afii61352" unicode="&#x2116;" horiz-adv-x="1124" 
d="M774 271h305v-33h-305v33zM94 672h49l445 -602v602h47v-672h-50l-445 602v-602h-46v672zM772 511q0 90 36.5 129.5t117.5 39.5t117.5 -39.5t36.5 -129.5t-36.5 -129t-117.5 -39t-117.5 39t-36.5 129zM811 511q0 -73 26 -104.5t89 -31.5t89 31.5t26 104.5q0 74 -26 105
t-89 31t-89 -30.5t-26 -105.5z" />
    <glyph glyph-name="uni33C7" unicode="&#x33c7;" horiz-adv-x="850" 
d="M412 542v-190h-40q-6 75 -37.5 114.5t-91.5 39.5q-44 0 -74 -17.5t-49 -47.5t-27 -69.5t-8 -83.5t7 -86t25 -74.5t48 -52.5t75 -20q56 0 87.5 35.5t36.5 102.5h50q-4 -94 -52.5 -137.5t-122.5 -43.5q-47 0 -86.5 18t-69.5 62q-12 18 -21 41t-15 48t-8.5 51t-2.5 49
q0 56 12 104t34 81q27 40 64.5 62t90.5 22q21 0 41.5 -4.5t38.5 -14t32 -24t22 -33.5v68h41zM762 16v60h61v-60h-61zM611 14q-39 0 -69 16.5t-50.5 45t-30.5 66t-10 79.5t10 80t29.5 66.5t49.5 45t71 16.5q40 0 70.5 -16.5t50 -45t29.5 -66.5t10 -80t-10 -79.5t-30.5 -66
t-50.5 -45t-69 -16.5zM611 57q29 0 50.5 16.5t36 41t21.5 53.5t7 54q0 28 -6.5 57.5t-20.5 53t-36 38.5t-52 15t-52 -15t-36 -38.5t-20.5 -53t-6.5 -57.5q0 -25 7 -54t21 -53.5t36 -41t51 -16.5z" />
    <glyph glyph-name="trademark" unicode="&#x2122;" horiz-adv-x="916" 
d="M457 672h39l156 -248l158 248h39v-416h-37v357l-147 -229h-28l-143 229v-357h-37v416zM175 639h-150v33h340v-33h-151v-383h-39v383z" />
    <glyph glyph-name="uni33C2" unicode="&#x33c2;" horiz-adv-x="850" 
d="M826 74v-61h-46v61h46zM435 379v-46q11 25 27 37.5t42 12.5q15 0 25.5 -6.5t18 -16.5t12 -23t7.5 -26q6 27 29 49.5t58 22.5q23 0 44.5 -18.5t24.5 -51.5q2 -19 2 -32v-26v-210h27v-32h-96v32h36v195q0 52 -8.5 80t-42.5 28q-20 0 -35 -19.5t-21 -39.5q-5 -18 -6.5 -38.5
t-1.5 -39.5v-166h33v-32h-99v32h32v195q0 12 -1 30.5t-6 36t-15 29.5t-29 12q-17 0 -33 -16.5t-21 -38.5q-4 -19 -4.5 -41t-0.5 -41v-166h32v-32h-103v32h38v300h-43v34h78zM329 73v-61h-46v61h46zM131 391q25 0 42.5 -10t28.5 -27.5t16 -40t5 -46.5v-222h42v-32h-72l4 85
q-15 -49 -37.5 -69.5t-54.5 -20.5q-22 0 -37.5 10t-25.5 26t-14.5 36.5t-4.5 41.5q0 28 8 47.5t21.5 32t31.5 18t37 7.5h71v39q0 15 -3.5 31.5t-10.5 30.5t-18 23t-26 9q-35 0 -51 -26t-18 -63h-33q1 22 7 43.5t17.5 38t29.5 27t45 11.5zM149 198q-45 0 -69.5 -17t-24.5 -62
q0 -37 14.5 -56.5t37.5 -19.5q22 0 37.5 14t25 36t14 49.5t6.5 55.5h-41z" />
    <glyph glyph-name="uni33D8" unicode="&#x33d8;" horiz-adv-x="850" 
d="M103 381v-60q14 30 35.5 49.5t56.5 19.5q34 0 55 -18t33 -46t16.5 -60.5t4.5 -60.5q0 -24 -4 -56.5t-16 -61t-33.5 -48.5t-55.5 -20q-32 0 -57 16t-39 51v-145h42v-32h-112v32h39v404h-38v36h73zM103 205q0 -18 3 -44t12 -50t25 -41t43 -17q23 0 39.5 13.5t26.5 34.5
t14.5 47t4.5 51q0 18 -3 44t-11.5 51t-24.5 42.5t-42 17.5t-42.5 -15t-26.5 -37.5t-14 -48.5t-4 -48zM441 380v-47q11 25 27 37.5t42 12.5q15 0 25.5 -6.5t18 -16.5t12 -23t7.5 -26q6 27 29 49.5t58 22.5q23 0 44.5 -18.5t24.5 -51.5q2 -19 2 -32v-26v-210h27v-32h-96v32h36
v195q0 52 -8.5 80t-42.5 28q-20 0 -35 -19.5t-21 -39.5q-5 -18 -6.5 -38.5t-1.5 -39.5v-166h33v-32h-99v32h32v195q0 12 -1 30.5t-6 36t-15 29.5t-29 12q-17 0 -33 -16.5t-21 -38.5q-4 -19 -4.5 -41t-0.5 -41v-166h32v-32h-103v32h38v300h-43v35h78zM826 74v-61h-46v61h46z
M351 73v-61h-46v61h46z" />
    <glyph glyph-name="uni2121" unicode="&#x2121;" horiz-adv-x="850" 
d="M763 537v-484h47v-38h-137v38h49v445h-49v39h90zM638 190h-227q0 -29 4 -53.5t18 -47.5q17 -23 34.5 -31.5t43.5 -8.5q35 0 57.5 25t27.5 64l38 -2q-9 -66 -44 -95.5t-83 -29.5q-37 0 -63 14t-42.5 39.5t-24.5 60.5t-8 77q0 30 5 60t17 58q17 38 49 57t68 19
q20 0 42.5 -7.5t37.5 -22.5q35 -38 44 -92q4 -21 5 -37t1 -37v-10zM377 537v-162h-42v124h-106v-444h71v-40h-183v40h70v444h-107v-124h-42v162h339zM597 229q0 26 -6 49.5t-18 41t-28.5 27.5t-37.5 10q-44 0 -69 -37t-26 -91h185z" />
    <glyph glyph-name="uniFF01" unicode="&#xff01;" horiz-adv-x="1000" 
d="M475 672h50l-4 -474h-43zM462 28q0 38 38 38t38 -38q0 -37 -38 -37t-38 37z" />
    <glyph glyph-name="uniFF02" unicode="&#xff02;" horiz-adv-x="1000" 
d="M427 463h-42v209h42v-209zM614 463h-42v209h42v-209z" />
    <glyph glyph-name="uniFF03" unicode="&#xff03;" horiz-adv-x="1000" 
d="M338 188h-132v37h136l28 222h-132v37h136l24 188h39l-23 -188h209l23 188h40l-24 -188h132v-37h-136l-28 -222h132v-37h-137l-23 -188h-39l23 188h-209l-24 -188h-39zM381 225h210l28 222h-210z" />
    <glyph glyph-name="uniFF04" unicode="&#xff04;" horiz-adv-x="1000" 
d="M476 20q-99 1 -183 30v42q96 -32 194 -32q95 0 135 30t40 97q0 48 -27.5 73t-69.5 39.5t-90 24.5t-90 27.5t-69.5 49t-27.5 88.5q0 81 44 119t144 43v165h44v-164q88 -1 163 -24v-42q-87 26 -174 26q-92 0 -131.5 -28.5t-39.5 -94.5q0 -46 27.5 -70t69.5 -37.5t90 -23.5
t90 -28t69.5 -51t27.5 -92q0 -81 -45 -121t-147 -45v-165h-44v164z" />
    <glyph glyph-name="uniFF05" unicode="&#xff05;" horiz-adv-x="1000" 
d="M118 504q0 96 37 138t121 42t121 -42t37 -138t-37 -138t-121 -42t-121 42t-37 138zM158 504q0 -78 27.5 -111.5t90.5 -33.5t90.5 33.5t27.5 111.5t-27.5 111.5t-90.5 33.5t-90.5 -33.5t-27.5 -111.5zM633 672h36l-302 -672h-36zM566 168q0 96 37 138t121 42t121 -42
t37 -138t-37 -138t-121 -42t-121 42t-37 138zM606 168q0 -78 27.5 -111.5t90.5 -33.5t90.5 33.5t27.5 111.5t-27.5 111.5t-90.5 33.5t-90.5 -33.5t-27.5 -111.5z" />
    <glyph glyph-name="uniFF06" unicode="&#xff06;" horiz-adv-x="1000" 
d="M641 98q-35 -57 -90.5 -83.5t-124.5 -26.5q-224 0 -224 184q0 66 38 117t123 89q-54 48 -75.5 85.5t-21.5 79.5q0 70 40.5 105.5t125.5 35.5q82 0 120.5 -33.5t38.5 -102.5q0 -55 -37.5 -97.5t-122.5 -84.5l204 -202q14 34 18.5 74t4.5 85h45q-1 -57 -8.5 -105.5
t-26.5 -87.5l129 -130h-58zM248 175q0 -148 178 -148q122 0 185 103l-221 219q-73 -33 -107.5 -76.5t-34.5 -97.5zM432 646q-63 0 -92 -25t-29 -79q0 -35 21 -68.5t71 -77.5q75 35 108.5 70t33.5 80q0 51 -26.5 75.5t-86.5 24.5z" />
    <glyph glyph-name="uniFF07" unicode="&#xff07;" horiz-adv-x="1000" 
d="M521 463h-42v209h42v-209z" />
    <glyph glyph-name="uniFF08" unicode="&#xff08;" horiz-adv-x="1000" 
d="M407 288q0 121 34.5 226t101.5 190h50q-69 -85 -105 -190.5t-36 -225.5t36 -225.5t105 -190.5h-50q-67 85 -101.5 190t-34.5 226z" />
    <glyph glyph-name="uniFF09" unicode="&#xff09;" horiz-adv-x="1000" 
d="M593 288q0 -121 -35 -226t-102 -190h-49q69 85 104.5 190.5t35.5 225.5t-35.5 225.5t-104.5 190.5h49q67 -85 102 -190t35 -226z" />
    <glyph glyph-name="uniFF0A" unicode="&#xff0a;" horiz-adv-x="1000" 
d="M518 502l161 53l12 -35l-162 -52l100 -138l-30 -22l-99 139l-100 -139l-29 22l99 138l-161 52l11 35l162 -53v170h36v-170z" />
    <glyph glyph-name="uniFF0B" unicode="&#xff0b;" horiz-adv-x="1000" 
d="M289 309h190v190h42v-190h190v-42h-190v-190h-42v190h-190v42z" />
    <glyph glyph-name="uniFF0C" unicode="&#xff0c;" horiz-adv-x="1000" 
d="M485 -144h-41l58 209h53z" />
    <glyph glyph-name="uniFF0D" unicode="&#xff0d;" horiz-adv-x="1000" 
d="M369 265h262v-39h-262v39z" />
    <glyph glyph-name="uniFF0E" unicode="&#xff0e;" horiz-adv-x="1000" 
d="M462 29q0 20 8.5 28.5t29.5 8.5q20 0 29 -8.5t9 -28.5q0 -38 -38 -38q-21 0 -29.5 9t-8.5 29z" />
    <glyph glyph-name="uniFF0F" unicode="&#xff0f;" horiz-adv-x="1000" 
d="M628 704h44l-300 -832h-44z" />
    <glyph glyph-name="uniFF10" unicode="&#xff10;" horiz-adv-x="1000" 
d="M250 336q0 92 14.5 158t44.5 108t77.5 62t113.5 20t113 -20t77.5 -62t45 -108t14.5 -158t-14.5 -158t-45 -108t-77.5 -62t-113 -20t-113.5 20t-77.5 62t-44.5 108t-14.5 158zM298 336q0 -81 11.5 -139.5t36 -95.5t62.5 -54.5t92 -17.5t92 17.5t62 54.5t35.5 95t11.5 140
t-11.5 140t-35.5 95t-62 54.5t-92 17.5t-92 -17.5t-62.5 -54.5t-36 -95t-11.5 -140z" />
    <glyph glyph-name="uniFF11" unicode="&#xff11;" horiz-adv-x="1000" 
d="M528 628l-185 -77v41l194 80h39v-672h-48v628z" />
    <glyph glyph-name="uniFF12" unicode="&#xff12;" horiz-adv-x="1000" 
d="M286 38l278 274q49 49 71.5 91.5t22.5 90.5q0 79 -40.5 114t-133.5 35q-46 0 -88.5 -7.5t-87.5 -22.5v43q45 15 89 21.5t93 6.5q114 0 165.5 -44.5t51.5 -141.5q0 -54 -24.5 -103t-78.5 -103l-253 -251h362v-41h-427v38z" />
    <glyph glyph-name="uniFF13" unicode="&#xff13;" horiz-adv-x="1000" 
d="M682 637l-214 -263q129 -3 187.5 -48t58.5 -142q0 -103 -62.5 -149.5t-202.5 -46.5q-88 0 -164 24v42q81 -26 161 -26q117 0 168 36.5t51 120.5q0 82 -54.5 118t-178.5 36h-21v31l213 263h-331v39h389v-35z" />
    <glyph glyph-name="uniFF14" unicode="&#xff14;" horiz-adv-x="1000" 
d="M601 154h-353v38l347 480h51v-479h106v-39h-106v-154h-45v154zM601 193v420l-303 -420h303z" />
    <glyph glyph-name="uniFF15" unicode="&#xff15;" horiz-adv-x="1000" 
d="M679 633h-323v-252q26 2 51 3t50 1q134 0 194 -47t60 -150q0 -104 -61 -152t-197 -48q-88 0 -164 24v42q81 -26 161 -26q113 0 163 37.5t50 123.5q0 84 -51.5 121t-169.5 37q-61 0 -131 -6v331h368v-39z" />
    <glyph glyph-name="uniFF16" unicode="&#xff16;" horiz-adv-x="1000" 
d="M268 304q0 100 16 172t51 118t89.5 68t132.5 22q73 0 142 -20v-42q-69 22 -139 22q-68 0 -114.5 -19t-75 -59.5t-41.5 -103t-13 -148.5q16 57 64 83t138 26q113 0 163.5 -51.5t50.5 -163.5q0 -115 -54.5 -167.5t-176.5 -52.5q-62 0 -106 17.5t-72.5 56t-41.5 98.5
t-13 144zM325 224q0 -196 175 -196q99 0 142.5 42.5t43.5 137.5q0 93 -40 134t-132 41q-100 0 -144.5 -37.5t-44.5 -121.5z" />
    <glyph glyph-name="uniFF17" unicode="&#xff17;" horiz-adv-x="1000" 
d="M718 636l-291 -636h-49l289 631h-386v41h437v-36z" />
    <glyph glyph-name="uniFF18" unicode="&#xff18;" horiz-adv-x="1000" 
d="M500 365q93 10 132.5 43.5t39.5 101.5q0 73 -40 104t-132 31t-132 -31t-40 -104q0 -68 39.5 -101.5t132.5 -43.5zM266 168q0 41 8.5 71t28 51t51 34t76.5 20q-78 13 -113 53t-35 115q0 91 51 131.5t167 40.5q115 0 166.5 -40.5t51.5 -131.5q0 -75 -35 -115t-113 -53
q45 -7 76 -20t50.5 -34t28.5 -51t9 -71q0 -95 -55.5 -137.5t-178.5 -42.5q-124 0 -179 42.5t-55 137.5zM500 323q-53 -5 -88.5 -15.5t-57.5 -28.5t-31.5 -45t-9.5 -64q0 -77 43.5 -110t143.5 -33t143.5 33t43.5 110q0 37 -9.5 64t-31.5 45t-58 28.5t-88 15.5z" />
    <glyph glyph-name="uniFF19" unicode="&#xff19;" horiz-adv-x="1000" 
d="M732 368q0 -100 -16 -172t-51 -118t-89.5 -68t-132.5 -22q-73 0 -142 20v42q69 -22 139 -22q67 0 114 19t75.5 59.5t41.5 103t13 148.5q-16 -57 -64 -83t-138 -26q-113 0 -163.5 51t-50.5 164q0 115 54.5 167.5t176.5 52.5q62 0 106 -17.5t72.5 -56t41.5 -98.5t13 -144z
M675 448q0 196 -175 196q-99 0 -142.5 -42.5t-43.5 -137.5q0 -93 40 -134t132 -41q100 0 144.5 37.5t44.5 121.5z" />
    <glyph glyph-name="uniFF1A" unicode="&#xff1a;" horiz-adv-x="1000" 
d="M462 29q0 20 8.5 28.5t29.5 8.5q20 0 29 -8.5t9 -28.5q0 -38 -38 -38q-21 0 -29.5 9t-8.5 29zM462 454q0 20 8.5 28.5t29.5 8.5q20 0 29 -8.5t9 -28.5q0 -38 -38 -38q-21 0 -29.5 9t-8.5 29z" />
    <glyph glyph-name="uniFF1B" unicode="&#xff1b;" horiz-adv-x="1000" 
d="M470 -144h-41l58 209h53zM462 454q0 20 8.5 28.5t29.5 8.5q20 0 29 -8.5t9 -28.5q0 -38 -38 -38q-21 0 -29.5 9t-8.5 29z" />
    <glyph glyph-name="uniFF1C" unicode="&#xff1c;" horiz-adv-x="1000" 
d="M289 264v48l422 180v-46l-372 -158l372 -158v-46z" />
    <glyph glyph-name="uniFF1D" unicode="&#xff1d;" horiz-adv-x="1000" 
d="M289 215h422v-42h-422v42zM289 403h422v-42h-422v42z" />
    <glyph glyph-name="uniFF1E" unicode="&#xff1e;" horiz-adv-x="1000" 
d="M711 312v-48l-422 -180v46l372 158l-372 158v46z" />
    <glyph glyph-name="uniFF1F" unicode="&#xff1f;" horiz-adv-x="1000" 
d="M445 198v11q0 41 13.5 70.5t33.5 52.5t44 42.5t44 40.5t33.5 45.5t13.5 58.5q0 67 -36 96t-121 29q-75 0 -147 -28v42q37 14 75 20t76 6q107 0 154.5 -38t47.5 -124q0 -41 -14 -70.5t-35 -53t-45.5 -43.5t-45.5 -41.5t-35 -47t-14 -60.5v-8h-42zM428 28q0 38 38 38
t38 -38q0 -37 -38 -37t-38 37z" />
    <glyph glyph-name="uniFF20" unicode="&#xff20;" horiz-adv-x="1000" 
d="M80 241q0 118 24.5 202.5t76.5 138.5t133.5 79.5t194.5 25.5q108 0 185.5 -23t127.5 -71t73.5 -123t23.5 -179q0 -136 -39 -203t-129 -67t-109 67q-20 -35 -57 -51t-97 -16q-97 0 -139 52t-42 168t42 168t139 52q58 0 94 -15.5t55 -49.5l2 53h40v-308q0 -42 18 -61.5
t60 -19.5q66 0 92.5 55.5t26.5 172.5q0 96 -21 164t-65.5 111.5t-114.5 64t-168 20.5q-102 0 -175 -23t-119.5 -72t-68 -126.5t-21.5 -185.5t22.5 -185.5t71.5 -126.5t125.5 -72t183.5 -23q139 0 274 44v-40q-129 -42 -275 -42q-118 0 -202 25.5t-138 79.5t-79.5 138
t-25.5 202zM354 241q0 -96 33.5 -138t109.5 -42q73 0 104.5 30.5t31.5 99.5v101q0 69 -31.5 99.5t-104.5 30.5q-76 0 -109.5 -42.5t-33.5 -138.5z" />
    <glyph glyph-name="uniFF21" unicode="&#xff21;" horiz-adv-x="1000" 
d="M733 0q-14 45 -29.5 94t-33.5 100h-341q-17 -51 -33 -100t-29 -94h-49q49 170 114 341t140 331h56q75 -160 140 -331t114 -341h-49zM500 625q-18 -38 -37.5 -83.5t-40 -96t-40.5 -104.5t-39 -108h314q-19 54 -39 108t-40.5 104.5t-40 96t-37.5 83.5z" />
    <glyph glyph-name="uniFF22" unicode="&#xff22;" horiz-adv-x="1000" 
d="M327 39h221q88 0 125.5 33.5t37.5 108.5t-37.5 108.5t-125.5 33.5h-221v-284zM327 361h205q84 0 120 32.5t36 103.5q0 70 -36 103t-120 33h-205v-272zM278 628q0 7 -6 9l-33 12l4 23h297q105 0 150.5 -41t45.5 -132q0 -63 -23 -100.5t-74 -53.5q63 -11 92 -51t29 -115
q0 -92 -48 -135.5t-156 -43.5h-278v628z" />
    <glyph glyph-name="uniFF23" unicode="&#xff23;" horiz-adv-x="1000" 
d="M252 336q0 92 17.5 158t55 108t95.5 62t139 20q51 0 99.5 -6.5t88.5 -18.5l-8 -42q-35 11 -80.5 18.5t-93.5 7.5q-70 0 -119.5 -17.5t-81.5 -54.5t-47 -95t-15 -140t15 -140t47 -95t81.5 -54.5t119.5 -17.5q48 0 90.5 6.5t87.5 19.5v-43q-45 -12 -89 -18t-95 -6
q-81 0 -139 20t-95.5 62t-55 108t-17.5 158z" />
    <glyph glyph-name="uniFF24" unicode="&#xff24;" horiz-adv-x="1000" 
d="M246 628q0 7 -6 9l-33 12l4 23h234q91 0 157 -19.5t108 -60t62 -104.5t20 -152q0 -89 -20 -152.5t-62 -104t-108 -60t-157 -19.5h-199v628zM295 41h147q80 0 137 16.5t93 52.5t53 92t17 134t-17 134t-53 92t-93 52.5t-137 16.5h-147v-590z" />
    <glyph glyph-name="uniFF25" unicode="&#xff25;" horiz-adv-x="1000" 
d="M300 628q0 7 -6 9l-33 12l4 23h465v-41h-381v-269h309v-40h-309v-281h389v-41h-438v628z" />
    <glyph glyph-name="uniFF26" unicode="&#xff26;" horiz-adv-x="1000" 
d="M734 672v-41h-381v-269h309v-40h-309v-322h-49v628q0 7 -6 9l-33 12l4 23h465z" />
    <glyph glyph-name="uniFF27" unicode="&#xff27;" horiz-adv-x="1000" 
d="M768 14q-109 -26 -221 -26q-83 0 -142.5 20t-98 62t-56.5 108t-18 158t18.5 158t58 108t100.5 62t146 20q57 0 106 -6.5t91 -18.5l-8 -42q-35 11 -85 18.5t-98 7.5q-74 0 -127.5 -17.5t-87.5 -54.5t-50 -95t-16 -140t15.5 -140t48.5 -95t84.5 -54.5t123.5 -17.5
q43 0 85.5 5t84.5 14v254h-182v38h228v-326z" />
    <glyph glyph-name="uniFF28" unicode="&#xff28;" horiz-adv-x="1000" 
d="M298 362h443v310h49v-672h-49v322h-443v-322h-49v628q0 7 -6 9l-33 12l4 23h75q9 0 9 -10v-300z" />
    <glyph glyph-name="uniFF29" unicode="&#xff29;" horiz-adv-x="1000" 
d="M495 628q0 7 -6 9l-33 12l4 23h75q9 0 9 -10v-662h-49v628z" />
    <glyph glyph-name="uniFF2A" unicode="&#xff2a;" horiz-adv-x="1000" 
d="M651 181q0 -101 -46 -147t-148 -46q-58 0 -109 12v43q56 -14 104 -14q81 0 115.5 35.5t34.5 117.5v490h49v-491z" />
    <glyph glyph-name="uniFF2B" unicode="&#xff2b;" horiz-adv-x="1000" 
d="M286 628q0 7 -6 9l-33 12l4 23h75q9 0 9 -10v-348l349 358h61l-303 -311l311 -361h-60l-283 329l-75 -77v-252h-49v628z" />
    <glyph glyph-name="uniFF2C" unicode="&#xff2c;" horiz-adv-x="1000" 
d="M374 41h339v-41h-388v628q0 7 -6 9l-33 12l4 23h75q9 0 9 -10v-621z" />
    <glyph glyph-name="uniFF2D" unicode="&#xff2d;" horiz-adv-x="1000" 
d="M531 212q-12 0 -18.5 0.5t-11 3t-8.5 8t-11 16.5l-227 356v-596h-46v628q0 7 -6 9l-33 12l4 23h65q14 0 19.5 -4.5t16.5 -20.5l244 -385l262 410h49v-672h-47v597l-246 -385h-6z" />
    <glyph glyph-name="uniFF2E" unicode="&#xff2e;" horiz-adv-x="1000" 
d="M743 70v602h47v-672h-50l-445 602v-602h-46v628q0 7 -6 9l-33 12l4 23h66q15 0 19.5 -4t15.5 -19z" />
    <glyph glyph-name="uniFF2F" unicode="&#xff2f;" horiz-adv-x="1000" 
d="M192 336q0 92 17.5 158t55 108t95.5 62t139 20t139.5 -20t96 -62t55 -108t17.5 -158t-17.5 -158t-55 -108t-96 -62t-139.5 -20t-139 20t-95.5 62t-55 108t-17.5 158zM242 336q0 -82 14.5 -140t45.5 -95t79.5 -54.5t117.5 -17.5t117.5 17.5t80 54.5t46 95t14.5 140
t-14.5 140t-46 95t-80 54.5t-117.5 17.5t-117.5 -17.5t-79.5 -54.5t-45.5 -95t-14.5 -140z" />
    <glyph glyph-name="uniFF30" unicode="&#xff30;" horiz-adv-x="1000" 
d="M331 314h196q96 0 138 37t42 122q0 84 -42 121t-138 37h-196v-317zM530 672q119 0 172.5 -47t53.5 -152t-54 -152t-172 -47h-199v-274h-49v628q0 7 -6 9l-33 12l4 23h283z" />
    <glyph glyph-name="uniFF31" unicode="&#xff31;" horiz-adv-x="1000" 
d="M618 1q-48 -13 -119 -13q-81 0 -139 20t-95.5 62t-55 108t-17.5 158t17.5 158t55 108t95.5 62t139 20t139.5 -20t96 -62t55 -108t17.5 -158q0 -131 -35 -208t-111 -111l91 -142h-52zM240 336q0 -82 14.5 -140.5t46 -95.5t80.5 -54.5t118 -17.5q57 0 96 10l-61 96h52
l51 -80q63 30 92 98.5t29 183.5q0 82 -14.5 140t-46 95t-80.5 54.5t-118 17.5t-118 -17.5t-80.5 -54.5t-46 -95t-14.5 -140z" />
    <glyph glyph-name="uniFF32" unicode="&#xff32;" horiz-adv-x="1000" 
d="M326 329h202q94 0 134 35t40 117t-40 116t-134 34h-202v-302zM326 290v-290h-49v628q0 7 -6 9l-33 12l4 23h291q115 0 166.5 -45t51.5 -146q0 -93 -42.5 -137t-136.5 -50l190 -294h-56l-185 290h-195z" />
    <glyph glyph-name="uniFF33" unicode="&#xff33;" horiz-adv-x="1000" 
d="M268 505q0 94 60 137t178 42q55 0 105 -8t92 -21l-8 -41q-37 14 -87.5 22t-98.5 8q-104 0 -148.5 -32.5t-44.5 -106.5q0 -38 18 -62.5t47 -40t66.5 -25.5t76.5 -20t76.5 -22t66.5 -32.5t47 -52t18 -79.5q0 -97 -58 -140t-184 -43q-57 0 -111 7.5t-106 24.5v42
q105 -34 214 -34q105 0 151 33t46 110q0 40 -18 65t-47 41t-66.5 26.5t-76.5 20t-76.5 22t-66.5 32t-47 50t-18 77.5z" />
    <glyph glyph-name="uniFF34" unicode="&#xff34;" horiz-adv-x="1000" 
d="M475 631h-245v41h539v-41h-245v-631h-49v631z" />
    <glyph glyph-name="uniFF35" unicode="&#xff35;" horiz-adv-x="1000" 
d="M298 255q0 -60 12.5 -103t39 -70.5t68.5 -40t101 -12.5q118 0 170 52.5t52 173.5v417h49v-420q0 -140 -64 -202t-207 -62q-71 0 -122 15t-84 47t-48.5 82t-15.5 120v376q0 7 -6 9l-33 12l4 23h75q9 0 9 -10v-407z" />
    <glyph glyph-name="uniFF36" unicode="&#xff36;" horiz-adv-x="1000" 
d="M500 47q27 58 58.5 135.5t63 161.5t60.5 169t51 159h49q-49 -170 -114 -341.5t-140 -330.5h-56q-75 159 -140 330.5t-114 341.5h49q22 -74 51 -159t60.5 -169t63 -161.5t58.5 -135.5z" />
    <glyph glyph-name="uniFF37" unicode="&#xff37;" horiz-adv-x="1000" 
d="M499 596q-8 -38 -23 -105.5t-36 -145.5q-9 -36 -22 -79.5t-27.5 -89t-30 -91t-29.5 -85.5h-63q-25 69 -52 155t-53 176.5t-49 178.5t-40 162h50q15 -64 35.5 -141t40.5 -152q13 -47 26.5 -94t27 -90t25.5 -80.5t22 -65.5h1q10 28 22 65.5t25 80.5t26.5 90t26.5 94
q19 72 38 145t34 136h51q15 -63 34 -136t38 -145q13 -47 26.5 -94t26.5 -90t25 -80.5t22 -65.5h1q10 28 22 65.5t25.5 80.5t27 90t26.5 94q20 75 40.5 152t35.5 141h50q-17 -74 -40 -162t-49 -178.5t-53 -176.5t-52 -155h-63q-14 40 -29.5 85.5t-30 91t-27.5 89t-22 79.5
q-21 78 -36 145.5t-23 105.5h-1z" />
    <glyph glyph-name="uniFF38" unicode="&#xff38;" horiz-adv-x="1000" 
d="M469 343l-241 329h56l218 -298l215 298h55l-243 -331l251 -341h-57l-225 310l-223 -310h-55z" />
    <glyph glyph-name="uniFF39" unicode="&#xff39;" horiz-adv-x="1000" 
d="M475 295l-247 377h57l215 -332l215 332h57l-248 -377v-295h-49v295z" />
    <glyph glyph-name="uniFF3A" unicode="&#xff3a;" horiz-adv-x="1000" 
d="M243 37l443 595h-435v41h498v-36l-443 -595h451v-41h-514v36z" />
    <glyph glyph-name="uniFF3B" unicode="&#xff3b;" horiz-adv-x="1000" 
d="M416 704h167v-39h-122v-754h122v-39h-167v832z" />
    <glyph glyph-name="uniFFE6" unicode="&#xffe6;" horiz-adv-x="1000" 
d="M61 392h99l-30 111q-11 43 -20.5 82t-17.5 74h48q7 -31 15.5 -65t18.5 -71l35 -131h202q8 30 16 61t16 63q10 35 18 68t15 63h49q7 -30 15 -63t17 -68l33 -124h201l36 131q10 37 18.5 71t15.5 65h48q-17 -71 -39 -156q-14 -56 -30 -111h98v-39h-109l-6 -21
q-24 -88 -50 -170t-50 -149h-61q-13 39 -28 82.5t-29.5 87.5t-26.5 85.5t-20 76.5l-2 8h-111l-2 -8q-8 -35 -20.5 -76.5t-26.5 -85.5t-29 -87.5t-28 -82.5h-61q-24 67 -50 149t-51 170l-6 21h-110v39zM781 353h-180l18 -66q20 -67 38 -126.5t33 -100.5h1q15 41 33.5 100.5
t38.5 126.5zM381 287l19 66h-181q5 -17 9.5 -33t9.5 -33q20 -67 38.5 -126.5t33.5 -100.5h1l21 63l24 77zM500 586l-22 -102l-22 -92h89q-7 25 -12 47.5t-10 44.5l-22 102h-1z" />
    <glyph glyph-name="uniFF3D" unicode="&#xff3d;" horiz-adv-x="1000" 
d="M583 -128h-167v39h122v754h-122v39h167v-832z" />
    <glyph glyph-name="uniFF3E" unicode="&#xff3e;" horiz-adv-x="1000" 
d="M474 672h52l196 -422h-48l-174 373l-174 -373h-48z" />
    <glyph glyph-name="uniFF3F" unicode="&#xff3f;" horiz-adv-x="1000" 
d="M260 -108h480v-40h-480v40z" />
    <glyph glyph-name="uniFF40" unicode="&#xff40;" horiz-adv-x="1000" 
d="M412 704h55l120 -134h-47z" />
    <glyph glyph-name="uniFF41" unicode="&#xff41;" horiz-adv-x="1000" 
d="M472 25q84 0 120.5 29.5t36.5 93.5v55q-67 26 -149 26q-79 0 -114 -22.5t-35 -79.5q0 -54 34 -78t107 -24zM635 55q-42 -67 -170 -67q-94 0 -137.5 33.5t-43.5 105.5t45 104.5t145 32.5q45 0 83.5 -6.5t71.5 -18.5v85q0 71 -36 101.5t-120 30.5q-75 0 -147 -24v41
q69 22 151 22q105 0 151.5 -41t46.5 -133v-275q0 -8 6 -9l34 -13l-4 -24h-65q-5 0 -7 1t-2 8z" />
    <glyph glyph-name="uniFF42" unicode="&#xff42;" horiz-adv-x="1000" 
d="M355 78q71 -50 161 -50t129.5 49.5t39.5 163.5q0 115 -39.5 164.5t-129.5 49.5q-86 0 -123.5 -35.5t-37.5 -116.5v-225zM307 658q0 7 -6 9l-34 13l4 24h75q9 0 9 -10v-270q23 37 63.5 54t106.5 17q109 0 158.5 -59.5t49.5 -194.5q0 -134 -49.5 -193.5t-158.5 -59.5
q-68 0 -108.5 16.5t-67.5 39.5l-3 -44h-39v658z" />
    <glyph glyph-name="uniFF43" unicode="&#xff43;" horiz-adv-x="1000" 
d="M316 241q0 134 54 194t174 60q48 0 82.5 -6t57.5 -14l-9 -40q-62 20 -125 20q-99 0 -142 -50t-43 -164q0 -113 43 -163t142 -50q67 0 129 20v-42q-60 -18 -135 -18q-120 0 -174 59.5t-54 193.5z" />
    <glyph glyph-name="uniFF44" unicode="&#xff44;" horiz-adv-x="1000" 
d="M645 303q0 81 -37.5 116.5t-123.5 35.5q-90 0 -129 -49.5t-39 -164.5q0 -114 39 -163.5t129 -49.5t161 50v225zM652 45q-27 -24 -68 -40.5t-109 -16.5q-55 0 -94 14.5t-64.5 45t-37.5 78.5t-12 115t12 115.5t37.5 79t64.5 45t94 14.5q65 0 104.5 -16t65.5 -53v278h48
v-658q0 -8 6 -9l34 -13l-4 -24h-66q-5 0 -7 1.5t-2 7.5z" />
    <glyph glyph-name="uniFF45" unicode="&#xff45;" horiz-adv-x="1000" 
d="M290 241q0 134 52.5 194t169.5 60q105 0 151.5 -58t46.5 -188v-21h-373q2 -107 50 -154t156 -47q76 0 150 24v-41q-67 -22 -153 -22q-131 0 -190.5 59.5t-59.5 193.5zM512 458q-91 0 -132 -46t-43 -149h327q-2 105 -36.5 150t-115.5 45z" />
    <glyph glyph-name="uniFF46" unicode="&#xff46;" horiz-adv-x="1000" 
d="M418 436q0 8 -8 10l-62 11l4 26h66v80q0 81 36 117t117 36q20 0 41 -2.5t40 -8.5l-8 -41q-12 5 -32 8.5t-37 3.5q-60 0 -84.5 -26t-24.5 -86v-81h155v-39h-155v-444h-48v436z" />
    <glyph glyph-name="uniFF47" unicode="&#xff47;" horiz-adv-x="1000" 
d="M713 -13q0 -54 -10 -93t-33.5 -64.5t-61.5 -37.5t-94 -12q-61 0 -95 9v40q16 -5 41.5 -7.5t51.5 -2.5q51 0 81 12.5t46 34.5t21 53t5 69v71q-23 -37 -63.5 -54t-106.5 -17q-55 0 -94 14.5t-64.5 45t-37.5 78.5t-12 115t12 115.5t37.5 79t64.5 45t94 14.5
q68 0 108.5 -16.5t67.5 -39.5l3 44h39v-496zM665 405q-71 50 -161 50t-129 -49.5t-39 -163.5q0 -115 39 -164.5t129 -49.5q86 0 123.5 35.5t37.5 116.5v225z" />
    <glyph glyph-name="uniFF48" unicode="&#xff48;" horiz-adv-x="1000" 
d="M650 308q0 78 -32 112t-107 34q-57 0 -98 -15.5t-64 -31.5v-407h-48v658q0 7 -6 9l-34 13l4 24h75q9 0 9 -10v-253q29 25 69 39.5t100 14.5q95 0 137.5 -43.5t42.5 -142.5v-263q0 -8 6 -9l34 -13l-4 -24h-75q-9 0 -9 10v298z" />
    <glyph glyph-name="uniFF49" unicode="&#xff49;" horiz-adv-x="1000" 
d="M477 637q0 35 36 35t36 -35t-36 -35t-36 35zM529 483q9 0 9 -8v-475h-48v437q0 7 -6 9l-34 13l4 24h75z" />
    <glyph glyph-name="uniFF4A" unicode="&#xff4a;" horiz-adv-x="1000" 
d="M524 637q0 35 36 35t36 -35t-36 -35t-36 35zM585 -69q0 -78 -33 -114.5t-109 -36.5q-9 0 -20 0.5t-19 1.5v38q6 -1 15 -1.5t16 -0.5q57 0 79.5 26.5t22.5 84.5v508q0 7 -6 9l-34 13l4 24h75q9 0 9 -8v-544z" />
    <glyph glyph-name="uniFF4B" unicode="&#xff4b;" horiz-adv-x="1000" 
d="M390 234l245 249h58l-212 -217l216 -266h-57l-190 235l-60 -60v-175h-48v658q0 7 -6 9l-34 13l4 24h75q9 0 9 -10v-460z" />
    <glyph glyph-name="uniFF4C" unicode="&#xff4c;" horiz-adv-x="1000" 
d="M476 658q0 7 -6 9l-34 13l4 24h75q9 0 9 -10v-648q0 -8 6 -9l34 -13l-4 -24h-75q-9 0 -9 10v648z" />
    <glyph glyph-name="uniFF4D" unicode="&#xff4d;" horiz-adv-x="1000" 
d="M197 441q23 20 60 37t99 17q60 0 93.5 -17t50.5 -45q31 30 73 46t110 16q88 0 128 -41t40 -134v-274q0 -8 6 -9l34 -13l-4 -24h-75q-9 0 -9 10v309q0 72 -29.5 103.5t-98.5 31.5q-46 0 -87.5 -10.5t-75.5 -36.5q5 -14 8.5 -33.5t3.5 -52.5v-321h-48v319q0 72 -29.5 103.5
t-98.5 31.5q-46 0 -82 -13t-69 -34v-407h-48v437q0 7 -6 9l-34 13l4 24h75q9 0 9 -10v-32z" />
    <glyph glyph-name="uniFF4E" unicode="&#xff4e;" horiz-adv-x="1000" 
d="M650 308q0 78 -32 112t-107 34q-57 0 -98 -15.5t-64 -31.5v-407h-48v437q0 7 -6 9l-34 13l4 24h75q9 0 9 -10v-32q29 25 69 39.5t100 14.5q95 0 137.5 -43.5t42.5 -142.5v-263q0 -8 6 -9l34 -13l-4 -24h-75q-9 0 -9 10v298z" />
    <glyph glyph-name="uniFF4F" unicode="&#xff4f;" horiz-adv-x="1000" 
d="M272 241q0 134 54 194t174 60q119 0 173 -60t54 -194t-54 -193.5t-173 -59.5q-120 0 -174 59.5t-54 193.5zM320 241q0 -113 42.5 -163t137.5 -50t137 50t42 163q0 114 -42 164t-137 50t-137.5 -50t-42.5 -164z" />
    <glyph glyph-name="uniFF50" unicode="&#xff50;" horiz-adv-x="1000" 
d="M355 78q71 -50 161 -50t129.5 49.5t39.5 163.5q0 115 -39.5 164.5t-129.5 49.5q-86 0 -123.5 -35.5t-37.5 -116.5v-225zM355 424q23 37 64 54t107 17q109 0 158 -60t49 -194t-49.5 -193.5t-158.5 -59.5q-68 0 -107.5 16t-62.5 35v-247h-48v645q0 7 -6 9l-34 13l4 24h75
q9 0 9 -10v-49z" />
    <glyph glyph-name="uniFF51" unicode="&#xff51;" horiz-adv-x="1000" 
d="M665 303q0 81 -37.5 116.5t-123.5 35.5q-90 0 -129 -49.5t-39 -164.5q0 -114 39 -163.5t129 -49.5t161 50v225zM495 495q69 0 111 -18t65 -56l3 62h39v-686l-48 -10v252q-23 -19 -62.5 -35t-107.5 -16q-55 0 -94 14.5t-64.5 45t-37.5 78.5t-12 115t12 115.5t37.5 79
t64.5 45t94 14.5z" />
    <glyph glyph-name="uniFF52" unicode="&#xff52;" horiz-adv-x="1000" 
d="M637 451q-15 3 -33 3q-29 0 -54 -7t-45.5 -17.5t-36 -23.5t-26.5 -26v-380h-48v437q0 7 -6 9l-34 13l4 24h75q9 0 9 -10v-54q31 38 69.5 57t99.5 19q9 0 18.5 -1t16.5 -3z" />
    <glyph glyph-name="uniFF53" unicode="&#xff53;" horiz-adv-x="1000" 
d="M324 363q0 66 47 99t135 33q43 0 81 -5.5t67 -15.5l-9 -40q-30 11 -65 16.5t-71 5.5q-138 0 -138 -92q0 -38 22.5 -57t56.5 -29t73.5 -17t73.5 -21t56.5 -40.5t22.5 -75.5q0 -67 -47.5 -101.5t-138.5 -34.5q-88 0 -160 24v41q76 -26 157 -26q143 0 143 96
q0 39 -22.5 58.5t-56.5 30t-74 17.5t-74 20.5t-56.5 39.5t-22.5 74z" />
    <glyph glyph-name="uniFF54" unicode="&#xff54;" horiz-adv-x="1000" 
d="M423 436q0 8 -8 10l-62 11l4 26h66v148h48v-148h175v-39h-175v-310q0 -57 23 -81.5t80 -24.5q39 0 72 10v-42q-17 -4 -36 -6t-42 -2q-78 0 -111.5 33.5t-33.5 111.5v303z" />
    <glyph glyph-name="uniFF55" unicode="&#xff55;" horiz-adv-x="1000" 
d="M369 183q0 -83 35 -119t116 -36q80 0 115 35.5t35 119.5v300h48v-303q0 -102 -46.5 -147t-151.5 -45t-152 45.5t-47 146.5v257q0 7 -6 9l-34 13l4 24h75q9 0 9 -10v-290z" />
    <glyph glyph-name="uniFF56" unicode="&#xff56;" horiz-adv-x="1000" 
d="M500 46q19 37 43.5 94t48.5 119t44 121.5t31 102.5h49q-14 -50 -35 -111t-46.5 -125t-53.5 -128t-56 -119h-50q-29 55 -57 118.5t-53.5 128t-46 125.5t-34.5 111h49q10 -43 30.5 -102.5t44.5 -121.5t48.5 -119t43.5 -94z" />
    <glyph glyph-name="uniFF57" unicode="&#xff57;" horiz-adv-x="1000" 
d="M500 418q-13 -49 -28.5 -103.5t-32 -109.5t-34.5 -107.5t-36 -97.5h-56q-27 72 -49.5 135.5t-41.5 122t-35.5 114t-31.5 111.5h46q13 -48 31 -107.5t36 -119.5q18 -57 36.5 -109.5t36.5 -100.5h1q17 48 34 100.5t35 109.5q17 57 34.5 115t29.5 103h49q12 -45 30 -103
t35 -115q18 -57 35 -109.5t34 -100.5h1q18 48 36.5 100.5t36.5 109.5q18 60 36 119.5t31 107.5h46q-15 -56 -31.5 -111.5t-35.5 -114t-41.5 -122t-49.5 -135.5h-56q-18 45 -36 97.5t-34.5 107.5t-32 109.5t-28.5 103.5z" />
    <glyph glyph-name="uniFF58" unicode="&#xff58;" horiz-adv-x="1000" 
d="M470 245l-172 238h54l148 -206l149 206h53l-172 -238l178 -245h-54l-154 214l-154 -214h-54z" />
    <glyph glyph-name="uniFF59" unicode="&#xff59;" horiz-adv-x="1000" 
d="M514 -64q-16 -43 -32 -72.5t-36 -48t-44.5 -27t-57.5 -8.5q-7 0 -17.5 0.5t-15.5 1.5v37q5 -1 9 -1h8h13q23 0 41 6.5t33 21.5t28.5 39t26.5 60l20 54l-210 484h53l180 -423l156 423h51z" />
    <glyph glyph-name="uniFF5A" unicode="&#xff5a;" horiz-adv-x="1000" 
d="M314 35l304 409h-296v39h356v-35l-303 -409h311v-39h-372v35z" />
    <glyph glyph-name="uniFF5B" unicode="&#xff5b;" horiz-adv-x="1000" 
d="M371 308h10q51 0 73.5 22t22.5 74v166q0 70 32 102t104 32h15v-39h-9q-52 0 -74.5 -22.5t-22.5 -74.5v-167q0 -43 -15 -72t-48 -41q33 -12 48 -41t15 -72v-167q0 -54 22.5 -75.5t74.5 -21.5h9v-39h-15q-72 0 -104 32t-32 102v166q0 52 -22.5 74t-73.5 22h-10v40z" />
    <glyph glyph-name="uniFF5C" unicode="&#xff5c;" horiz-adv-x="1000" 
d="M479 736h42v-960h-42v960z" />
    <glyph glyph-name="uniFF5D" unicode="&#xff5d;" horiz-adv-x="1000" 
d="M628 268h-9q-52 0 -74.5 -22t-22.5 -74v-166q0 -70 -32 -102t-104 -32h-15v39h10q51 0 73.5 22.5t22.5 74.5v167q0 43 15.5 72t48.5 41q-33 12 -48.5 41t-15.5 72v167q0 54 -22.5 75.5t-73.5 21.5h-10v39h15q72 0 104 -32t32 -102v-166q0 -52 22.5 -74t74.5 -22h9v-40z
" />
    <glyph glyph-name="uni203E" unicode="&#x203e;" horiz-adv-x="1000" 
d="M147 605l-1 40h707v-40h-706z" />
    <glyph glyph-name="uni203E" unicode="&#xffe3;" horiz-adv-x="1000" 
d="M147 605l-1 40h707v-40h-706z" />
    <glyph glyph-name="uni3131" unicode="&#x3131;" horiz-adv-x="850" 
d="M581 71q6 37 10 83t6.5 97.5t3 107t0.5 111.5h-406v39h451q0 -43 -1 -101t-3.5 -118.5t-6.5 -118.5t-11 -100h-43z" />
    <glyph glyph-name="uni3132" unicode="&#x3132;" horiz-adv-x="850" 
d="M407 510v-62q0 -57 -12 -108t-32 -95t-46.5 -80.5t-54.5 -65.5l-40 30q28 19 53.5 53t45 74.5t30.5 83.5t11 81v49h-218v40h263zM715 510q0 -109 -7.5 -215.5t-33.5 -218.5l-48 7q29 107 36.5 204.5t7.5 182.5h-217v40h262z" />
    <glyph glyph-name="uni3133" unicode="&#x3133;" horiz-adv-x="850" 
d="M348 513v-440h-45v401h-192v39h237zM561 472q0 8 -6 10l-31 12l4 24h67q10 0 10 -10v-60q0 -45 10.5 -94.5t30.5 -95t48.5 -82t65.5 -54.5l-30 -37q-50 36 -89.5 98.5t-58.5 148.5q-10 -43 -26.5 -80.5t-36.5 -69t-42 -56t-43 -41.5l-31 37q31 17 59.5 52t50.5 82
t35 102.5t13 113.5z" />
    <glyph glyph-name="uni3134" unicode="&#x3134;" horiz-adv-x="850" 
d="M309 83q-31 0 -50 4.5t-30 15t-15 27.5t-4 41v295q0 7 -6 9l-39 13l4 23h77q9 0 9 -10v-328q0 -29 9 -39.5t44 -10.5h376v-40h-375z" />
    <glyph glyph-name="uni3135" unicode="&#x3135;" horiz-adv-x="850" 
d="M593 451q0 -45 8 -96t25 -98.5t43.5 -86t63.5 -58.5l-29 -36q-41 29 -79.5 90t-55.5 152q-18 -92 -55 -151t-78 -91l-29 36q37 21 63.5 60.5t43.5 87.5t25 98.5t8 92.5v17h-125v35h303v-35h-132v-17zM390 87h-156q-47 0 -62.5 17.5t-15.5 52.5v295q0 7 -6 9l-30 13l4 24
h67q9 0 9 -10v-328q0 -16 8 -25t29 -9h153v-39z" />
    <glyph glyph-name="uni3136" unicode="&#x3136;" horiz-adv-x="850" 
d="M390 87h-156q-47 0 -62.5 17.5t-15.5 52.5v285q0 7 -6 9l-30 13l4 24h67q9 0 9 -10v-318q0 -16 8 -25t29 -9h153v-39zM550 435v107h44v-107h153v-38h-343v38h146zM470 211q0 -45 28 -76t79 -31t79 31t28 76q0 22 -7.5 42t-21 35t-33.5 23.5t-45 8.5t-45 -8.5t-33.5 -23.5
t-21 -35t-7.5 -42zM428 211q0 25 9.5 51t28 47t46.5 34.5t65 13.5t64.5 -13.5t46.5 -34.5t28.5 -47t9.5 -51q0 -26 -9.5 -51.5t-28.5 -46.5t-46.5 -34t-64.5 -13t-65 13t-46.5 34t-28 46.5t-9.5 51.5z" />
    <glyph glyph-name="uni3137" unicode="&#x3137;" horiz-adv-x="850" 
d="M665 87h-345q-60 0 -80.5 21.5t-20.5 68.5v289q0 7 -6 9l-40 13l4 24h476v-39h-389v-296q0 -29 10 -40t45 -11h346v-39z" />
    <glyph glyph-name="uni3138" unicode="&#x3138;" horiz-adv-x="850" 
d="M692 91h-396q-60 0 -80.5 21.5t-20.5 68.5v285q0 7 -6 9l-40 13l4 24h235v-39h-148v-292q0 -29 10 -40.5t45 -11.5h159v337q0 7 -6 9l-31 13l4 24h227v-39h-149v-344h193v-38z" />
    <glyph glyph-name="uni3139" unicode="&#x3139;" horiz-adv-x="850" 
d="M671 77h-362q-60 0 -80.5 21.5t-20.5 68.5v115q0 7 -6 9l-34 13l4 24h430v136h-407v39h452v-214h-394v-122q0 -29 10 -40t45 -11h363v-39z" />
    <glyph glyph-name="uni313A" unicode="&#x313a;" horiz-adv-x="850" 
d="M701 520v-461h-45v421h-191v40h236zM447 76h-207q-35 0 -54 17.5t-19 49.5v138q0 7 -6 9l-28 14l4 24h230v153h-210v39h254v-230h-200v-148q0 -27 28 -27h208v-39z" />
    <glyph glyph-name="uni313B" unicode="&#x313b;" horiz-adv-x="850" 
d="M562 76q-29 0 -46 4.5t-27 14.5t-13 26t-3 39v319q0 7 -6 9l-20 12l4 21h272v-445h-161zM515 159q0 -14 1 -23t5.5 -14t13.5 -7t25 -2h121v371h-166v-325zM427 76h-197q-35 0 -54 17.5t-19 49.5v138q0 7 -6 9l-28 14l4 24h217v153h-197v39h238v-229h-186v-150
q0 -27 28 -27h200v-38z" />
    <glyph glyph-name="uni313C" unicode="&#x313c;" horiz-adv-x="850" 
d="M568 77q-52 0 -71 17.5t-19 57.5v325q0 7 -6 10l-21 12l4 21h55q9 0 9 -10v-154h162v171h42v-450h-155zM681 115v203h-162v-161q0 -27 10.5 -34.5t37.5 -7.5h114zM427 76h-197q-35 0 -54 17.5t-19 49.5v138q0 7 -6 9l-28 14l4 24h217v153h-197v39h238v-229h-186v-150
q0 -27 28 -27h200v-38z" />
    <glyph glyph-name="uni313D" unicode="&#x313d;" horiz-adv-x="850" 
d="M387 86h-177q-35 0 -54 17.5t-19 49.5v121q0 7 -6 9l-28 14l4 24h220v146h-200v39h244v-223h-190v-131q0 -27 28 -27h178v-39zM561 456q0 8 -6 10l-31 12l4 24h67q10 0 10 -10v-44q0 -45 10.5 -94.5t30.5 -95t48.5 -82t65.5 -54.5l-30 -37q-50 36 -89.5 98.5t-58.5 148.5
q-10 -43 -26.5 -80.5t-36.5 -69t-42 -56t-43 -41.5l-31 37q31 17 59.5 52t50.5 80t35 97.5t13 104.5z" />
    <glyph glyph-name="uni313E" unicode="&#x313e;" horiz-adv-x="850" 
d="M741 123v-37h-184q-26 0 -41.5 4t-23.5 13t-10.5 23t-2.5 35v305q0 7 -6 10l-22 13l4 24h279v-37h-215v-149h189v-37h-189v-128q0 -23 6 -31t32 -8h184zM427 76h-197q-35 0 -54 17.5t-19 49.5v138q0 7 -6 9l-28 14l4 24h217v146h-200v39h241v-222h-186v-150q0 -27 28 -27
h200v-38z" />
    <glyph glyph-name="uni313F" unicode="&#x313f;" horiz-adv-x="850" 
d="M405 88h-194q-35 0 -54 17.5t-19 49.5v126q0 7 -6 9l-28 14l4 24h217v151h-197v39h241v-228h-187v-136q0 -27 28 -27h195v-39zM761 126v-38h-328v38h61v354h-60v38h315v-38h-71v-354h83zM537 126h98v354h-98v-354z" />
    <glyph glyph-name="uni3140" unicode="&#x3140;" horiz-adv-x="850" 
d="M572 435v107h44v-107h153v-38h-343v38h146zM492 211q0 -45 28 -76t79 -31t79 31t28 76q0 22 -7.5 42t-21 35t-33.5 23.5t-45 8.5t-45 -8.5t-33.5 -23.5t-21 -35t-7.5 -42zM450 211q0 25 9.5 51t28 47t46.5 34.5t65 13.5t64.5 -13.5t46.5 -34.5t28.5 -47t9.5 -51
q0 -26 -9.5 -51.5t-28.5 -46.5t-46.5 -34t-64.5 -13t-65 13t-46.5 34t-28 46.5t-9.5 51.5zM407 76h-187q-35 0 -54 17.5t-19 49.5v128q0 7 -6 9l-28 14l4 24h210v153h-190v39h231v-229h-179v-140q0 -27 28 -27h190v-38z" />
    <glyph glyph-name="uni3141" unicode="&#x3141;" horiz-adv-x="850" 
d="M227 463q0 7 -6 9l-34 11l4 24h463v-420h-324q-57 0 -80 21t-23 67v288zM272 176q0 -29 12 -39.5t44 -10.5h281v342h-337v-292z" />
    <glyph glyph-name="uni3142" unicode="&#x3142;" horiz-adv-x="850" 
d="M615 125v204h-347v-152q0 -30 10.5 -41t42.5 -11h294zM259 522q9 0 9 -10v-144h347v166h45v-448h-337q-57 0 -78.5 22t-21.5 68v302q0 7 -6 9l-34 11l4 24h72z" />
    <glyph glyph-name="uni3143" unicode="&#x3143;" horiz-adv-x="850" 
d="M525 504v-158h135v158h44v-417h-223v417h44zM279 87q-51 0 -71 21t-20 59v287q0 7 -6 9l-34 11l4 24h71q9 0 9 -10v-142h135v158h44v-417h-132zM525 125h135v183h-135v-183zM232 168q0 -23 10 -33t34 -10h91v183h-135v-140z" />
    <glyph glyph-name="uni3144" unicode="&#x3144;" horiz-adv-x="850" 
d="M242 77q-52 0 -71 17.5t-19 57.5v305q0 7 -6 10l-21 12l4 21h55q9 0 9 -10v-141h162v158h42v-430h-155zM355 115v196h-162v-154q0 -27 10.5 -34.5t37.5 -7.5h114zM561 467q0 8 -6 10l-31 12l4 24h67q10 0 10 -10v-58q0 -45 10.5 -94.5t30.5 -95t48.5 -82t65.5 -54.5
l-30 -37q-50 36 -89.5 98.5t-58.5 148.5q-10 -43 -26.5 -80.5t-36.5 -69t-42 -56t-43 -41.5l-31 37q31 17 59.5 52t50.5 81.5t35 102t13 112.5z" />
    <glyph glyph-name="uni3145" unicode="&#x3145;" horiz-adv-x="850" 
d="M450 487q0 -59 15 -115t44.5 -105t72 -88.5t97.5 -66.5l-25 -37q-37 20 -71.5 49t-64.5 66.5t-53.5 82.5t-38.5 97q-15 -52 -38.5 -97t-53.5 -82.5t-64.5 -66.5t-71.5 -49l-25 37q54 27 96.5 66.5t72 88.5t45 105t15.5 115q0 7 -7 9l-38 13l4 24h80q9 0 9 -10v-36z" />
    <glyph glyph-name="uni3146" unicode="&#x3146;" horiz-adv-x="850" 
d="M286 457q0 7 -6 9l-30 13l4 24h72q9 0 9 -10v-92q0 -33 8.5 -65.5t24 -62t38 -53.5t49.5 -39q29 46 48.5 99t19.5 98v82q0 7 -6 9l-30 13l4 24h72q9 0 9 -10v-93q0 -50 13 -93t33 -77.5t45.5 -59.5t49.5 -39l-29 -37q-26 19 -49.5 45.5t-41.5 55t-30.5 57.5t-15.5 52
q-5 -34 -20.5 -71.5t-36.5 -72t-46 -64t-49 -47.5l-27 34q14 8 30.5 23t32.5 37q-40 29 -74 74.5t-47 95.5q-4 -25 -19.5 -55t-36.5 -59t-45.5 -53.5t-46.5 -38.5l-26 34q32 18 59.5 47t47.5 62t31.5 65.5t11.5 58.5v80z" />
    <glyph glyph-name="uni3147" unicode="&#x3147;" horiz-adv-x="850" 
d="M235 298q0 -36 13.5 -67t37.5 -54t56.5 -36t71.5 -13t72 13t57 36t37.5 54t13.5 67t-13.5 67t-37.5 54t-57 36t-72 13t-71.5 -13t-56.5 -36t-37.5 -54t-13.5 -67zM191 298q0 45 18 83t48.5 66t71 44t86.5 16q45 0 85.5 -16t71 -44t48.5 -66t18 -83t-18 -83t-48.5 -66
t-71 -44t-85.5 -16q-46 0 -86.5 16t-71 44t-48.5 66t-18 83z" />
    <glyph glyph-name="uni3148" unicode="&#x3148;" horiz-adv-x="850" 
d="M466 466q0 -43 17.5 -89t48.5 -89t72 -80.5t89 -62.5l-27 -39q-38 22 -75 56t-68 72.5t-53.5 77.5t-29.5 70q-8 -31 -30 -70t-53 -77.5t-68.5 -72.5t-74.5 -56l-27 39q48 25 89 62.5t72 80.5t48.5 89t17.5 89h-192v39h433v-39h-189z" />
    <glyph glyph-name="uni3149" unicode="&#x3149;" horiz-adv-x="850" 
d="M684 485v-38h-108v-20q0 -49 13 -93t34 -80t46.5 -63t49.5 -41l-29 -37q-26 19 -49.5 46t-42 56t-31 58.5t-15.5 52.5q-5 -36 -21 -73.5t-39.5 -72t-51.5 -63.5t-56 -47l-27 34q17 8 35 22.5t35 33.5q-41 34 -72 80t-44 98q-4 -26 -19.5 -57t-37 -61t-46.5 -55t-47 -39
l-26 34q32 18 59.5 48t47 64.5t30.5 70.5t11 67v37h-112v38h513zM453 194q31 43 51 96t20 107v50h-189v-14q0 -34 8.5 -70t23.5 -68.5t37 -59t49 -41.5z" />
    <glyph glyph-name="uni314A" unicode="&#x314a;" horiz-adv-x="850" 
d="M452 418q0 -44 16.5 -85.5t46.5 -79t72 -68.5t92 -53l-24 -40q-44 22 -81.5 50.5t-66.5 60.5t-49.5 66.5t-30.5 69.5q-11 -35 -31 -69.5t-49 -66.5t-66.5 -60.5t-81.5 -50.5l-24 40q50 22 91.5 53t71.5 68.5t47 79t17 85.5h-199v38h200v94h45v-94h204v-38h-200z" />
    <glyph glyph-name="uni314B" unicode="&#x314b;" horiz-adv-x="850" 
d="M192 307h407q2 39 2 80v83h-386v39h431q0 -43 -1 -101t-3.5 -118.5t-6.5 -118.5t-11 -100h-43q7 40 11 90.5t6 107.5h-406v38z" />
    <glyph glyph-name="uni314C" unicode="&#x314c;" horiz-adv-x="850" 
d="M673 87h-357q-60 0 -80.5 21.5t-20.5 68.5v294q0 7 -6 9l-40 13l4 24h504v-38h-417v-153h388v-37h-388v-112q0 -29 10 -40.5t45 -11.5h358v-38z" />
    <glyph glyph-name="uni314D" unicode="&#x314d;" horiz-adv-x="850" 
d="M665 121v-38h-477v38h111v354h-90v38h444v-38h-71v-354h83zM342 121h197v354h-197v-354z" />
    <glyph glyph-name="uni314E" unicode="&#x314e;" horiz-adv-x="850" 
d="M392 498v116h46v-116h231v-36h-498v36h221zM281 237q0 -28 10 -51t28 -39t42.5 -25t53.5 -9q28 0 52.5 9t42.5 25t28.5 39t10.5 51t-10.5 51t-28.5 39t-42.5 25t-52.5 9q-29 0 -53.5 -9t-42.5 -25t-28 -39t-10 -51zM237 237q0 37 14.5 67.5t38.5 51.5t56.5 32.5
t68.5 11.5t68.5 -11.5t56.5 -32.5t38.5 -51.5t14.5 -67.5q0 -38 -14.5 -68t-38.5 -51t-56.5 -32.5t-68.5 -11.5t-68.5 11.5t-56.5 32.5t-38.5 51t-14.5 68z" />
    <glyph glyph-name="uni314F" unicode="&#x314f;" horiz-adv-x="850" 
d="M357 699q0 7 -6 9l-44 13l4 24h82q9 0 9 -10v-341h152v-39h-152v-460h-45v804z" />
    <glyph glyph-name="uni3150" unicode="&#x3150;" horiz-adv-x="850" 
d="M361 379h155v320q0 7 -6 9l-41 13l4 24h79q9 0 9 -10v-840h-45v445h-155v-445h-45v801q0 7 -6 9l-41 13l4 24h79q9 0 9 -10v-353z" />
    <glyph glyph-name="uni3151" unicode="&#x3151;" horiz-adv-x="850" 
d="M361 699q0 7 -6 9l-44 13l4 24h82q9 0 9 -10v-207h162v-39h-162v-193h162v-39h-162v-362h-45v804z" />
    <glyph glyph-name="uni3152" unicode="&#x3152;" horiz-adv-x="850" 
d="M530 699q0 7 -6 9l-41 13l4 24h79q9 0 9 -10v-840h-45v363h-166v-363h-45v801q0 7 -6 9l-40 13l4 24h78q9 0 9 -10v-190h166v157zM364 297h166v206h-166v-206z" />
    <glyph glyph-name="uni3153" unicode="&#x3153;" horiz-adv-x="850" 
d="M479 699q0 7 -6 9l-44 13l4 24h82q9 0 9 -10v-840h-45v493h-194v38h194v273z" />
    <glyph glyph-name="uni3154" unicode="&#x3154;" horiz-adv-x="850" 
d="M570 699q0 7 -6 9l-41 13l4 24h79q9 0 9 -10v-840h-45v804zM377 696q0 7 -6 9l-40 13l4 24h78q9 0 9 -10v-837h-45v458h-162v38h162v305z" />
    <glyph glyph-name="uni3155" unicode="&#x3155;" horiz-adv-x="850" 
d="M490 699q0 7 -6 9l-44 13l4 24h82q9 0 9 -10v-840h-45v330h-183v38h185v206h-185v39h183v191z" />
    <glyph glyph-name="uni3156" unicode="&#x3156;" horiz-adv-x="850" 
d="M379 696q0 7 -6 9l-40 13l4 24h78q9 0 9 -10v-837h-45v350h-162v39h162v166h-162v39h162v207zM610 -105h-45v804q0 7 -6 9l-41 13l4 24h79q9 0 9 -10v-840z" />
    <glyph glyph-name="uni3157" unicode="&#x3157;" horiz-adv-x="850" 
d="M390 229v185h45v-185h356v-39h-752v39h351z" />
    <glyph glyph-name="uni3158" unicode="&#x3158;" horiz-adv-x="850" 
d="M294 73v194h45v-194h322v626q0 7 -6 9l-44 13l4 24h82q9 0 9 -10v-367h143v-39h-143v-434h-45v139h-631v39h264z" />
    <glyph glyph-name="uni3159" unicode="&#x3159;" horiz-adv-x="850" 
d="M258 96v209h45v-209h256v600q0 7 -6 9l-40 13l4 24h78q9 0 9 -10v-378h125v345q0 7 -6 9l-41 13l4 24h79q9 0 9 -10v-840h-45v421h-125v-421h-45v162h-499v39h198z" />
    <glyph glyph-name="uni315A" unicode="&#x315a;" horiz-adv-x="850" 
d="M334 99v226h45v-226h325v600q0 7 -6 9l-44 13l4 24h82q9 0 9 -10v-840h-45v166h-624v38h254z" />
    <glyph glyph-name="uni315B" unicode="&#x315b;" horiz-adv-x="850" 
d="M280 234v238h45v-238h174v238h45v-238h247v-39h-752v39h241z" />
    <glyph glyph-name="uni315C" unicode="&#x315c;" horiz-adv-x="850" 
d="M790 397v-39h-353v-354h-45v354h-352v39h750z" />
    <glyph glyph-name="uni315D" unicode="&#x315d;" horiz-adv-x="850" 
d="M758 -105h-45v203h-217v39h217v136h-324q0 -36 -2.5 -81t-7 -91t-11 -90t-14.5 -78l-51 15q10 21 17.5 61t13 86.5t8 94t2.5 83.5h-255v39h624v387q0 7 -6 9l-44 13l4 24h82q9 0 9 -10v-840z" />
    <glyph glyph-name="uni315E" unicode="&#x315e;" horiz-adv-x="850" 
d="M564 287h-256q0 -68 -2.5 -121t-7.5 -95t-11.5 -74.5t-13.5 -58.5l-47 13q20 35 28.5 123t8.5 213h-196v39h497v370q0 7 -6 9l-40 13l4 24h78q9 0 9 -10v-837h-45v211h-146v39h146v142zM729 699q0 7 -6 9l-41 13l4 24h79q9 0 9 -10v-840h-45v804z" />
    <glyph glyph-name="uni315F" unicode="&#x315f;" horiz-adv-x="850" 
d="M715 699q0 7 -6 9l-44 13l4 24h82q9 0 9 -10v-840h-45v369h-324q1 -33 -2 -82t-7.5 -99.5t-11 -94.5t-13.5 -67l-50 14q12 31 20 77t12 94t5.5 91t1.5 67h-267v39h636v396z" />
    <glyph glyph-name="uni3160" unicode="&#x3160;" horiz-adv-x="850" 
d="M791 392v-39h-221v-321h-45v321h-218v-321h-45v321h-223v39h752z" />
    <glyph glyph-name="uni3161" unicode="&#x3161;" horiz-adv-x="850" 
d="M791 246h-752v39h752v-39z" />
    <glyph glyph-name="uni3162" unicode="&#x3162;" horiz-adv-x="850" 
d="M695 699q0 7 -6 9l-44 13l4 24h82q9 0 9 -10v-840h-45v221h-607v40h607v543z" />
    <glyph glyph-name="uni3163" unicode="&#x3163;" horiz-adv-x="850" 
d="M422 699q0 7 -6 9l-44 13l4 24h82q9 0 9 -10v-840h-45v804z" />
    <glyph glyph-name="uni3165" unicode="&#x3165;" horiz-adv-x="850" 
d="M710 87h-156q-47 0 -62.5 17.5t-15.5 52.5v309q0 7 -6 9l-30 13l4 24h67q9 0 9 -10v-342q0 -16 8 -25t29 -9h153v-39zM420 87h-156q-47 0 -62.5 17.5t-15.5 52.5v309q0 7 -6 9l-30 13l4 24h67q9 0 9 -10v-342q0 -16 8 -25t29 -9h153v-39z" />
    <glyph glyph-name="uni3166" unicode="&#x3166;" horiz-adv-x="850" 
d="M420 87h-156q-47 0 -62.5 17.5t-15.5 52.5v309q0 7 -6 9l-30 13l4 24h67q9 0 9 -10v-342q0 -16 8 -25t29 -9h153v-39zM673 87h-120q-60 0 -80.5 21.5t-20.5 68.5v289q0 7 -6 9l-29 13l4 24h240v-39h-164v-296q0 -29 10 -40t45 -11h121v-39z" />
    <glyph glyph-name="uni3167" unicode="&#x3167;" horiz-adv-x="850" 
d="M380 87h-156q-47 0 -62.5 17.5t-15.5 52.5v309q0 7 -6 9l-30 13l4 24h67q9 0 9 -10v-342q0 -16 8 -25t29 -9h153v-39zM561 472q0 8 -6 10l-31 12l4 24h67q10 0 10 -10v-60q0 -45 10.5 -94.5t30.5 -95t48.5 -82t65.5 -54.5l-30 -37q-50 36 -90.5 98.5t-59.5 148.5
q-10 -43 -26 -80.5t-35.5 -69t-41.5 -56t-43 -41.5l-31 37q31 17 59.5 50.5t50.5 79.5t35 102t13 118z" />
    <glyph glyph-name="uni3168" unicode="&#x3168;" horiz-adv-x="850" 
d="M720 85h-281l140 457zM663 125l-84 301l-83 -301h167zM400 87h-156q-47 0 -62.5 17.5t-15.5 52.5v309q0 7 -6 9l-30 13l4 24h67q9 0 9 -10v-342q0 -16 8 -25t29 -9h153v-39z" />
    <glyph glyph-name="uni3169" unicode="&#x3169;" horiz-adv-x="850" 
d="M282 86h-159q-35 0 -54 17.5t-19 49.5v128q0 7 -6 9l-28 14l4 24h184v154h-164v38h206v-229h-155v-140q0 -27 28 -27h163v-38zM479 520v-446h-42v408h-145v38h187zM629 479q0 8 -6 10l-31 12l4 24h67q10 0 10 -10v-44q0 -45 9 -100.5t27 -108.5t45 -95.5t64 -60.5
l-30 -37q-60 54 -92 126t-46 160q-14 -87 -48 -159.5t-90 -126.5l-31 37q31 17 58 58t47 93.5t31.5 111t11.5 110.5z" />
    <glyph glyph-name="uni316A" unicode="&#x316a;" horiz-adv-x="850" 
d="M715 83h-142q-60 0 -80.5 21.5t-20.5 68.5v301q0 7 -6 9l-29 13l4 24h262v-39h-186v-308q0 -29 10 -40t45 -11h143v-39zM427 82h-197q-35 0 -54 17.5t-19 49.5v132q0 7 -6 9l-28 14l4 24h217v153h-197v39h238v-229h-186v-144q0 -27 28 -27h200v-38z" />
    <glyph glyph-name="uni316B" unicode="&#x316b;" horiz-adv-x="850" 
d="M402 77q-52 0 -71 17.5t-19 57.5v325q0 7 -6 10l-21 12l4 21h55q9 0 9 -10v-154h122v171h42v-421q31 18 56 58.5t43 93t28 111t10 110.5q0 8 -6 10l-31 12l4 24h67q10 0 10 -10v-44q0 -45 7.5 -100.5t23.5 -108.5t41.5 -95.5t62.5 -60.5l-30 -37q-60 54 -88.5 126
t-39.5 160q-11 -87 -41.5 -159.5t-86.5 -126.5l-30 36v-28h-115zM282 86h-159q-35 0 -54 17.5t-19 49.5v128q0 7 -6 9l-28 14l4 24h174v154h-154v38h196v-229h-145v-140q0 -27 28 -27h163v-38zM475 115v203h-122v-161q0 -27 10.5 -34.5t37.5 -7.5h74z" />
    <glyph glyph-name="uni316C" unicode="&#x316c;" horiz-adv-x="850" 
d="M407 82h-197q-35 0 -54 17.5t-19 49.5v132q0 7 -6 9l-28 14l4 24h217v153h-197v39h238v-229h-186v-144q0 -27 28 -27h200v-38zM730 85h-281l140 457zM673 125l-84 301l-83 -301h167z" />
    <glyph glyph-name="uni316D" unicode="&#x316d;" horiz-adv-x="850" 
d="M758 468h-308v38h308v-38zM407 76h-207q-35 0 -54 17.5t-19 49.5v138q0 7 -6 9l-28 14l4 24h230v153h-210v39h254v-230h-200v-148q0 -27 28 -27h208v-39zM498 229q0 -51 28 -82.5t79 -31.5t79 31.5t28 82.5q0 50 -28 83t-79 33t-79 -33t-28 -83zM456 229q0 28 9.5 56
t28 50t46.5 35.5t65 13.5t64.5 -13.5t46.5 -35.5t28.5 -50t9.5 -56t-9.5 -55.5t-28.5 -49.5t-46.5 -35.5t-64.5 -13.5t-65 13.5t-46.5 35.5t-28 49.5t-9.5 55.5z" />
    <glyph glyph-name="uni316E" unicode="&#x316e;" horiz-adv-x="850" 
d="M574 77q-52 0 -71 17.5t-19 57.5v325q0 7 -6 10l-21 12l4 21h55q9 0 9 -10v-154h156v171h42v-450h-149zM681 115v203h-156v-161q0 -27 10.5 -34.5t37.5 -7.5h108zM255 76q-29 0 -46 4.5t-27 14.5t-13 26t-3 39v319q0 7 -6 9l-20 12l4 21h255v-445h-144zM208 159
q0 -14 1 -23t5.5 -14t13.5 -7t25 -2h104v371h-149v-325z" />
    <glyph glyph-name="uni316F" unicode="&#x316f;" horiz-adv-x="850" 
d="M245 76q-29 0 -46 4.5t-27 14.5t-13 26t-3 39v319q0 7 -6 9l-20 12l4 21h255v-445h-144zM198 159q0 -14 1 -23t5.5 -14t13.5 -7t25 -2h104v371h-149v-325zM561 477q0 8 -6 10l-31 12l4 24h67q10 0 10 -10v-65q0 -45 10.5 -94.5t30.5 -95t48.5 -82t65.5 -54.5l-30 -37
q-50 36 -89.5 98.5t-58.5 148.5q-10 -43 -26.5 -80.5t-36.5 -69t-42 -56t-43 -41.5l-31 37q31 17 59.5 50.5t50.5 79t35 103t13 122.5z" />
    <glyph glyph-name="uni3170" unicode="&#x3170;" horiz-adv-x="850" 
d="M258 76q-29 0 -46 4.5t-27 14.5t-13 26t-3 39v319q0 7 -6 9l-20 12l4 21h255v-445h-144zM211 159q0 -14 1 -23t5.5 -14t13.5 -7t25 -2h104v371h-149v-325zM733 76h-281l140 457zM676 116l-84 301l-83 -301h167z" />
    <glyph glyph-name="uni3171" unicode="&#x3171;" horiz-adv-x="850" 
d="M216 536q0 7 -6 9l-34 11l4 24h463v-262h-324q-57 0 -80 21t-23 67v130zM261 407q0 -29 12 -39.5t44 -10.5h281v184h-337v-134zM296 73q0 -46 35.5 -69t100.5 -23q64 0 100 23t36 69t-36 70t-100 24q-65 0 -100.5 -24t-35.5 -70zM251 73q0 27 11.5 51t34.5 42t56.5 28.5
t78.5 10.5t78.5 -10.5t56.5 -28.5t34.5 -42t11.5 -51t-11.5 -51t-34.5 -42t-56.5 -28t-78.5 -10t-78.5 10t-56.5 28t-34.5 42t-11.5 51z" />
    <glyph glyph-name="uni3172" unicode="&#x3172;" horiz-adv-x="850" 
d="M253 77q-52 0 -71 17.5t-19 57.5v325q0 7 -6 10l-21 12l4 21h55q9 0 9 -10v-154h162v171h42v-450h-155zM366 115v203h-162v-161q0 -27 10.5 -34.5t37.5 -7.5h114zM694 523v-450h-45v411h-192v39h237z" />
    <glyph glyph-name="uni3173" unicode="&#x3173;" horiz-adv-x="850" 
d="M253 77q-52 0 -71 17.5t-19 57.5v325q0 7 -6 10l-21 12l4 21h55q9 0 9 -10v-154h150v171h42v-450h-143zM354 115v203h-150v-161q0 -27 10.5 -34.5t37.5 -7.5h102zM715 79h-129q-60 0 -80.5 21.5t-20.5 68.5v305q0 7 -6 9l-21 13l4 24h241v-39h-173v-312q0 -29 10 -40
t45 -11h130v-39z" />
    <glyph glyph-name="uni3174" unicode="&#x3174;" horiz-adv-x="850" 
d="M760 520v-446h-42v408h-145v38h187zM452 479q0 8 -6 10l-31 12l4 24h67q10 0 10 -10v-44q0 -45 9 -99t27 -105t45 -92t64 -59l-30 -37q-60 54 -92 121t-46 155q-14 -87 -44.5 -154.5t-86.5 -121.5l-31 37q31 17 57 56.5t44.5 90t29 107.5t10.5 109zM195 77
q-52 0 -71 17.5t-19 57.5v325q0 7 -6 10l-21 12l4 21h55q9 0 9 -10v-154h122v171h42v-450h-115zM268 115v203h-122v-161q0 -27 10.5 -34.5t37.5 -7.5h74z" />
    <glyph glyph-name="uni3175" unicode="&#x3175;" horiz-adv-x="850" 
d="M428 479q0 8 -6 10l-31 12l4 24h67q10 0 10 -10v-44q0 -45 9 -99t27 -105t45 -92t64 -59l-30 -37q-60 54 -92 121t-46 155q-14 -87 -44.5 -154.5t-86.5 -121.5l-31 37q31 17 57 56.5t44.5 90t29 107.5t10.5 109zM181 77q-52 0 -71 17.5t-19 57.5v325q0 7 -6 10l-21 12
l4 21h54q9 0 9 -10v-154h114v171h41v-450h-105zM245 115v203h-114v-161q0 -27 10.5 -34.5t37.5 -7.5h66zM807 83h-100q-60 0 -80.5 21.5t-20.5 68.5v301q0 7 -6 9l-29 13l4 24h220v-39h-144v-308q0 -29 10 -40t45 -11h101v-39z" />
    <glyph glyph-name="uni3176" unicode="&#x3176;" horiz-adv-x="850" 
d="M233 77q-52 0 -71 17.5t-19 57.5v325q0 7 -6 10l-21 12l4 21h55q9 0 9 -10v-154h162v171h42v-450h-155zM346 115v203h-162v-161q0 -27 10.5 -34.5t37.5 -7.5h114zM612 451q0 -45 8 -96t25 -98.5t43.5 -86t63.5 -58.5l-29 -36q-41 29 -79.5 90t-55.5 152q-18 -92 -55 -151
t-78 -91l-29 36q37 21 63.5 60.5t43.5 87.5t25 98.5t8 92.5v34h-125v35h303v-35h-132v-34z" />
    <glyph glyph-name="uni3177" unicode="&#x3177;" horiz-adv-x="850" 
d="M233 85q-52 0 -71 17.5t-19 57.5v317q0 7 -6 10l-21 12l4 21h55q9 0 9 -10v-154h162v171h42v-442h-155zM346 123v195h-162v-153q0 -27 10.5 -34.5t37.5 -7.5h114zM741 124v-37h-184q-26 0 -41.5 4t-23.5 13t-10.5 23t-2.5 35v308q0 7 -6 10l-22 13l4 24h279v-37h-215
v-153h189v-37h-189v-127q0 -23 6 -31t32 -8h184z" />
    <glyph glyph-name="uni3178" unicode="&#x3178;" horiz-adv-x="850" 
d="M296 73q0 -46 35.5 -69t100.5 -23q64 0 100 23t36 69t-36 70t-100 24q-65 0 -100.5 -24t-35.5 -70zM251 73q0 27 11.5 51t34.5 42t56.5 28.5t78.5 10.5t78.5 -10.5t56.5 -28.5t34.5 -42t11.5 -51t-11.5 -51t-34.5 -42t-56.5 -28t-78.5 -10t-78.5 10t-56.5 28t-34.5 42
t-11.5 51zM601 326v136h-367v-84q0 -30 10.5 -41t42.5 -11h314zM225 611q9 0 9 -10v-100h367v112h45v-326h-357q-57 0 -78.5 22t-21.5 68v190q0 7 -6 9l-34 11l4 24h72z" />
    <glyph glyph-name="uni3179" unicode="&#x3179;" horiz-adv-x="850" 
d="M296 73q0 -46 35.5 -69t100.5 -23q64 0 100 23t36 69t-36 70t-100 24q-65 0 -100.5 -24t-35.5 -70zM251 73q0 27 11.5 51t34.5 42t56.5 28.5t78.5 10.5t78.5 -10.5t56.5 -28.5t34.5 -42t11.5 -51t-11.5 -51t-34.5 -42t-56.5 -28t-78.5 -10t-78.5 10t-56.5 28t-34.5 42
t-11.5 51zM500 604v-88h135v88h44v-311h-223v311h44zM254 293q-51 0 -71 21t-20 59v181q0 7 -6 9l-34 11l4 24h71q9 0 9 -10v-72h135v88h44v-311h-132zM500 331h135v147h-135v-147zM207 374q0 -23 10 -33t34 -10h91v147h-135v-104z" />
    <glyph glyph-name="uni317A" unicode="&#x317a;" horiz-adv-x="850" 
d="M695 513v-440h-45v401h-192v39h237zM298 472q0 8 -6 10l-31 12l4 24h67q10 0 10 -10v-60q0 -45 10.5 -94.5t30.5 -95t48.5 -82t65.5 -54.5l-30 -37q-50 36 -89.5 98.5t-58.5 148.5q-10 -43 -26.5 -80.5t-36.5 -69t-42 -56t-43 -41.5l-31 37q31 17 59.5 52t50.5 82
t35 102.5t13 113.5z" />
    <glyph glyph-name="uni317B" unicode="&#x317b;" horiz-adv-x="850" 
d="M278 472q0 8 -6 10l-31 12l4 24h67q10 0 10 -10v-60q0 -45 10.5 -94.5t30.5 -95t48.5 -82t65.5 -54.5l-30 -37q-50 36 -89.5 98.5t-58.5 148.5q-10 -43 -26.5 -80.5t-36.5 -69t-42 -56t-43 -41.5l-31 37q31 17 59.5 52t50.5 82t35 102.5t13 113.5zM749 87h-156
q-47 0 -62.5 17.5t-15.5 52.5v319q0 7 -6 9l-30 13l4 24h67q9 0 9 -10v-352q0 -16 8 -25t29 -9h153v-39z" />
    <glyph glyph-name="uni317C" unicode="&#x317c;" horiz-adv-x="850" 
d="M258 472q0 8 -6 10l-31 12l4 24h67q10 0 10 -10v-60q0 -45 10.5 -94.5t30.5 -95t48.5 -82t65.5 -54.5l-30 -37q-50 36 -89.5 98.5t-58.5 148.5q-10 -43 -26.5 -80.5t-36.5 -69t-42 -56t-43 -41.5l-31 37q31 17 59.5 52t50.5 82t35 102.5t13 113.5zM716 83h-132
q-60 0 -80.5 21.5t-20.5 68.5v301q0 7 -6 9l-29 13l4 24h252v-39h-176v-308q0 -29 10 -40t45 -11h133v-39z" />
    <glyph glyph-name="uni317D" unicode="&#x317d;" horiz-adv-x="850" 
d="M258 472q0 8 -6 10l-31 12l4 24h67q10 0 10 -10v-60q0 -45 10.5 -94.5t30.5 -95t48.5 -82t65.5 -54.5l-30 -37q-50 36 -89.5 98.5t-58.5 148.5q-10 -43 -26.5 -80.5t-36.5 -69t-42 -56t-43 -41.5l-31 37q31 17 59.5 52t50.5 82t35 102.5t13 113.5zM574 77q-52 0 -71 17.5
t-19 57.5v325q0 7 -6 10l-21 12l4 21h55q9 0 9 -10v-154h156v171h42v-450h-149zM681 115v203h-156v-161q0 -27 10.5 -34.5t37.5 -7.5h108z" />
    <glyph glyph-name="uni317E" unicode="&#x317e;" horiz-adv-x="850" 
d="M629 456q0 -45 8 -96t25 -98.5t43.5 -86t63.5 -58.5l-29 -36q-41 29 -79.5 90t-55.5 152q-18 -92 -55 -151t-78 -91l-24 30l-21 -26q-50 36 -89.5 98.5t-58.5 148.5q-10 -43 -26.5 -80.5t-36.5 -69t-42 -56t-43 -41.5l-31 37q31 17 59.5 52t50.5 82t35 102.5t13 113.5
q0 8 -6 10l-31 12l4 24h67q10 0 10 -10v-60q0 -44 10 -93.5t29.5 -94.5t48 -81.5t64.5 -55.5q34 23 58 62.5t40 86t23.5 95t7.5 89.5v29h-125v35h303v-35h-132v-29z" />
    <glyph glyph-name="uni317F" unicode="&#x317f;" horiz-adv-x="850" 
d="M416 477l-150 -354h300zM199 85l217 483l217 -483h-434z" />
    <glyph glyph-name="uni3180" unicode="&#x3180;" horiz-adv-x="850" 
d="M130 311q0 -51 28 -82.5t79 -31.5t79 31.5t28 82.5q0 50 -28 83t-79 33t-79 -33t-28 -83zM88 311q0 28 9.5 56t28 50t46.5 35.5t65 13.5t64.5 -13.5t46.5 -35.5t28.5 -50t9.5 -56t-9.5 -55.5t-28.5 -49.5t-46.5 -35.5t-64.5 -13.5t-65 13.5t-46.5 35.5t-28 49.5
t-9.5 55.5zM486 311q0 -51 28 -82.5t79 -31.5t79 31.5t28 82.5q0 50 -28 83t-79 33t-79 -33t-28 -83zM444 311q0 28 9.5 56t28 50t46.5 35.5t65 13.5t64.5 -13.5t46.5 -35.5t28.5 -50t9.5 -56t-9.5 -55.5t-28.5 -49.5t-46.5 -35.5t-64.5 -13.5t-65 13.5t-46.5 35.5t-28 49.5
t-9.5 55.5z" />
    <glyph glyph-name="uni3181" unicode="&#x3181;" horiz-adv-x="850" 
d="M192 278q0 42 15.5 78t43 63.5t64 45t78.5 21.5v90h45v-90q42 -4 78.5 -21t63.5 -45t43 -64t16 -78q0 -45 -18 -83t-48.5 -66t-71 -44t-85.5 -16q-46 0 -86.5 16t-71 44t-48.5 66t-18 83zM236 278q0 -36 13.5 -67t37.5 -54t56.5 -36t71.5 -13t72 13t57 36t37.5 54
t13.5 67t-13.5 67t-37.5 54t-57 36t-72 13t-71.5 -13t-56.5 -36t-37.5 -54t-13.5 -67z" />
    <glyph glyph-name="uni3182" unicode="&#x3182;" horiz-adv-x="850" 
d="M109 259q0 33 8 65.5t24 58.5t40 43.5t56 22.5v97h45v-97q31 -5 54 -23t39 -44t24 -58t8 -65q0 -36 -9.5 -70.5t-28.5 -61.5t-46.5 -43t-64.5 -16t-65 16t-46.5 43t-28 61.5t-9.5 70.5zM151 259q0 -33 7.5 -60.5t21 -48t33.5 -32t45 -11.5t45 11.5t33.5 32t21 48
t7.5 60.5q0 31 -7.5 59t-21 49t-33.5 33t-45 12t-45 -12t-33.5 -33t-21 -49t-7.5 -59zM565 467q0 8 -6 10l-31 12l4 24h67q10 0 10 -10v-65q0 -45 10.5 -94.5t30.5 -95t48.5 -82t65.5 -54.5l-30 -37q-50 36 -89.5 98.5t-58.5 148.5q-10 -43 -26.5 -80.5t-36.5 -69t-42 -56
t-43 -41.5l-31 37q31 17 59.5 50.5t50.5 79t35 103t13 122.5z" />
    <glyph glyph-name="uni3183" unicode="&#x3183;" horiz-adv-x="850" 
d="M109 259q0 33 8 65.5t24 58.5t40 43.5t56 22.5v97h45v-97q31 -5 54 -23t39 -44t24 -58t8 -65q0 -36 -9.5 -70.5t-28.5 -61.5t-46.5 -43t-64.5 -16t-65 16t-46.5 43t-28 61.5t-9.5 70.5zM722 76h-281l140 457zM151 259q0 -33 7.5 -60.5t21 -48t33.5 -32t45 -11.5t45 11.5
t33.5 32t21 48t7.5 60.5q0 31 -7.5 59t-21 49t-33.5 33t-45 12t-45 -12t-33.5 -33t-21 -49t-7.5 -59zM665 116l-84 301l-83 -301h167z" />
    <glyph glyph-name="uni3184" unicode="&#x3184;" horiz-adv-x="850" 
d="M279 77q0 -46 35.5 -69t100.5 -23q64 0 100 23t36 69t-36 70t-100 24q-65 0 -100.5 -24t-35.5 -70zM234 77q0 27 11.5 51t34.5 42t56.5 28.5t78.5 10.5t78.5 -10.5t56.5 -28.5t34.5 -42t11.5 -51t-11.5 -51t-34.5 -42t-56.5 -28t-78.5 -10t-78.5 10t-56.5 28t-34.5 42
t-11.5 51zM695 334v-38h-567v38h131v189h-110v38h534v-38h-111v-189h123zM302 334h227v189h-227v-189z" />
    <glyph glyph-name="uni3185" unicode="&#x3185;" horiz-adv-x="850" 
d="M226 459v116h46v-116h126v-36h-70q32 -27 47.5 -71.5t15.5 -92.5q0 -36 -8.5 -70.5t-26 -61.5t-44.5 -43t-64 -16t-64 16t-45 43t-27 61.5t-9 70.5q0 48 16 92.5t48 71.5h-96v36h155zM761 459v-36h-97q33 -27 49 -71.5t16 -92.5q0 -36 -9 -70.5t-27 -61.5t-45 -43
t-64 -16t-64 16t-44.5 43t-26 61.5t-8.5 70.5q0 48 15 92.5t47 71.5h-69v36h126v116h46v-116h155zM145 259q0 -33 6.5 -60.5t19.5 -48t32.5 -32t44.5 -11.5t44.5 11.5t32.5 32t19.5 48t6.5 60.5q0 31 -6.5 59t-19.5 49t-32.5 33t-44.5 12t-44.5 -12t-32.5 -33t-19.5 -49
t-6.5 -59zM687 259q0 31 -6.5 59t-19.5 49t-32.5 33t-44.5 12t-44.5 -12t-32.5 -33t-19.5 -49t-6.5 -59q0 -33 6.5 -60.5t19.5 -48t32.5 -32t44.5 -11.5t44.5 11.5t32.5 32t19.5 48t6.5 60.5z" />
    <glyph glyph-name="uni3186" unicode="&#x3186;" horiz-adv-x="850" 
d="M235 220q0 -34 13.5 -63.5t37.5 -51t56.5 -33.5t71.5 -12t72 12t57 33.5t37.5 51t13.5 63.5t-13.5 63.5t-37.5 51t-57 33.5t-72 12t-71.5 -12t-56.5 -33.5t-37.5 -51t-13.5 -63.5zM191 220q0 43 18 79.5t48.5 63t71 41.5t86.5 15q45 0 85.5 -15t71 -41.5t48.5 -63
t18 -79.5t-18 -79.5t-48.5 -63t-71 -41.5t-85.5 -15q-46 0 -86.5 15t-71 41.5t-48.5 63t-18 79.5zM671 501h-512v39h512v-39z" />
    <glyph glyph-name="uni3187" unicode="&#x3187;" horiz-adv-x="850" 
d="M651 93v606q0 7 -6 9l-44 13l4 24h82q9 0 9 -10v-233h153v-39h-153v-209h153v-39h-153v-320h-45v159h-621v39h158v224h45v-224h128v224h45v-224h245z" />
    <glyph glyph-name="uni3188" unicode="&#x3188;" horiz-adv-x="850" 
d="M744 699q0 7 -6 9l-41 13l4 24h78q9 0 9 -10v-840h-44v336h-145v-336h-44v162h-515v39h118v209h45v-209h131v209h45v-209h176v600q0 7 -6 9l-40 13l4 24h77q9 0 9 -10v-248h145v215zM599 270h145v175h-145v-175z" />
    <glyph glyph-name="uni3189" unicode="&#x3189;" horiz-adv-x="850" 
d="M714 96v603q0 7 -6 9l-44 13l4 24h82q9 0 9 -10v-840h-45v162h-635v39h165v219h45v-219h151v219h45v-219h229z" />
    <glyph glyph-name="uni318A" unicode="&#x318a;" horiz-adv-x="850" 
d="M392 301h-139q0 -36 -2.5 -85.5t-7 -101t-11 -99.5t-14.5 -82l-51 15q10 21 17.5 65t13 96.5t8 104t2.5 87.5h-139v39h644v359q0 7 -6 9l-44 13l4 24h82q9 0 9 -10v-840h-45v105h-162v39h162v112h-162v39h162v111h-277v-406h-44v406z" />
    <glyph glyph-name="uni318B" unicode="&#x318b;" horiz-adv-x="850" 
d="M306 308h-112q0 -135 -10.5 -228.5t-26.5 -157.5l-47 13q10 23 17.5 61t12.5 86.5t7 106t2 119.5h-102v39h527v349q0 7 -6 9l-41 13l4 24h77q9 0 9 -10v-837h-43v105h-125v39h125v112h-125v39h125v118h-225v-413h-43v413zM730 699q0 7 -6 9l-41 13l4 24h78q9 0 9 -10
v-840h-44v804z" />
    <glyph glyph-name="uni318C" unicode="&#x318c;" horiz-adv-x="850" 
d="M444 271h-176q1 -35 -2 -85.5t-7.5 -101.5t-11 -95.5t-13.5 -67.5l-50 14q12 31 20 77t12 94.5t5.5 93t1.5 71.5h-144v39h636v389q0 7 -6 9l-44 13l4 24h82q9 0 9 -10v-840h-45v376h-227v-376h-44v376z" />
    <glyph glyph-name="uni318D" unicode="&#x318d;" horiz-adv-x="850" 
d="M364 305q0 22 15 37t37 15t37 -15t15 -37t-15 -37t-37 -15t-37 15t-15 37z" />
    <glyph glyph-name="uni318E" unicode="&#x318e;" horiz-adv-x="850" 
d="M287 307q0 20 13 33t33 13t33 -13t13 -33t-13 -33t-33 -13t-33 13t-13 33zM516 699q0 7 -6 9l-44 13l4 24h82q9 0 9 -10v-840h-45v804z" />
    <glyph glyph-name="uni2170" unicode="&#x2170;" horiz-adv-x="850" 
d="M462 539h-74v108h74v-108zM461 4h-72v464h72v-464z" />
    <glyph glyph-name="uni2171" unicode="&#x2171;" horiz-adv-x="850" 
d="M578 539h-74v108h74v-108zM345 539h-74v108h74v-108zM577 4h-72v464h72v-464zM344 4h-72v464h72v-464z" />
    <glyph glyph-name="uni2172" unicode="&#x2172;" horiz-adv-x="850" 
d="M660 539h-74v108h74v-108zM462 539h-74v108h74v-108zM659 4h-72v464h72v-464zM264 539h-74v108h74v-108zM461 4h-72v464h72v-464zM263 4h-72v464h72v-464z" />
    <glyph glyph-name="uni2173" unicode="&#x2173;" horiz-adv-x="850" 
d="M280 539h-74v108h74v-108zM712 468l-144 -464h-74l-143 464h74l106 -371l106 371h75zM279 4h-72v464h72v-464z" />
    <glyph glyph-name="uni2174" unicode="&#x2174;" horiz-adv-x="850" 
d="M624 468l-164 -464h-70l-163 464h76l122 -371l122 371h77z" />
    <glyph glyph-name="uni2175" unicode="&#x2175;" horiz-adv-x="850" 
d="M659 539h-74v108h74v-108zM658 4h-72v464h72v-464zM514 468l-143 -464h-74l-144 464h75l106 -371l106 371h74z" />
    <glyph glyph-name="uni2176" unicode="&#x2176;" horiz-adv-x="850" 
d="M729 539h-70v108h70v-108zM591 539h-71v108h71v-108zM728 4h-68v464h68v-464zM590 4h-69v464h69v-464zM465 468l-141 -464h-74l-141 464h75l103 -371l104 371h74z" />
    <glyph glyph-name="uni2177" unicode="&#x2177;" horiz-adv-x="850" 
d="M762 539h-63v108h63v-108zM637 539h-63v108h63v-108zM513 539h-64v108h64v-108zM762 4h-62v464h62v-464zM636 4h-61v464h61v-464zM512 4h-63v464h63v-464zM399 468l-118 -464h-66l-119 464h67l85 -371l84 371h67z" />
    <glyph glyph-name="uni2178" unicode="&#x2178;" horiz-adv-x="850" 
d="M267 539h-73v108h73v-108zM720 4h-74l-112 185l-111 -185h-74l149 244l-138 220h77l97 -162l96 162h77l-137 -220zM267 4h-72v464h72v-464z" />
    <glyph glyph-name="uni2179" unicode="&#x2179;" horiz-adv-x="850" 
d="M633 4h-82l-125 185l-123 -185h-82l165 244l-153 220h85l108 -162l107 162h85l-152 -220z" />
    <glyph glyph-name="uni2160" unicode="&#x2160;" horiz-adv-x="850" 
d="M464 4h-77v643h77v-643z" />
    <glyph glyph-name="uni2161" unicode="&#x2161;" horiz-adv-x="850" 
d="M582 4h-77v643h77v-643zM344 4h-77v643h77v-643z" />
    <glyph glyph-name="uni2162" unicode="&#x2162;" horiz-adv-x="850" 
d="M663 4h-76v643h76v-643zM464 4h-77v643h77v-643zM264 4h-77v643h77v-643z" />
    <glyph glyph-name="uni2163" unicode="&#x2163;" horiz-adv-x="850" 
d="M752 647l-185 -643h-84l-186 643h80l148 -541l147 541h80zM226 4h-76v643h76v-643z" />
    <glyph glyph-name="uni2164" unicode="&#x2164;" horiz-adv-x="850" 
d="M687 647l-221 -643h-81l-221 643h82l180 -541l180 541h81z" />
    <glyph glyph-name="uni2165" unicode="&#x2165;" horiz-adv-x="850" 
d="M712 4h-76v643h76v-643zM564 647l-185 -643h-85l-184 643h79l148 -541l147 541h80z" />
    <glyph glyph-name="uni2166" unicode="&#x2166;" horiz-adv-x="850" 
d="M745 4h-73v643h73v-643zM607 4h-73v643h73v-643zM485 647l-154 -643h-84l-153 643h79l116 -541l116 541h80z" />
    <glyph glyph-name="uni2167" unicode="&#x2167;" horiz-adv-x="850" 
d="M771 4h-65v643h65v-643zM647 4h-65v643h65v-643zM522 4h-66v643h66v-643zM414 647l-128 -643h-80l-127 643h71l96 -537l96 537h72z" />
    <glyph glyph-name="uni2168" unicode="&#x2168;" horiz-adv-x="850" 
d="M758 4h-82l-152 265l-154 -265h-82l196 331l-183 312h81l141 -245l141 245h81l-182 -312zM216 4h-76v643h76v-643z" />
    <glyph glyph-name="uni2169" unicode="&#x2169;" horiz-adv-x="850" 
d="M687 4h-91l-169 265l-171 -265h-91l218 331l-205 312h90l158 -245l157 245h90l-203 -312z" />
    <glyph glyph-name="Alpha" unicode="&#x391;" horiz-adv-x="653" 
d="M603 4h-82l-68 192h-254l-67 -192h-82l238 643h77zM429 265l-103 291l-102 -291h205z" />
    <glyph glyph-name="Beta" unicode="&#x392;" horiz-adv-x="586" 
d="M546 186q0 -49 -16 -83.5t-46 -56.5t-72.5 -32t-96.5 -10h-255v643h255q43 0 81 -8t66 -27t44.5 -51t16.5 -80q0 -49 -25 -87t-68 -52q52 -13 84 -51.5t32 -104.5zM446 476q0 49 -31.5 75t-99.5 26h-179v-203h179q39 0 64 6.5t40 19.5t21 32t6 44zM469 188q0 61 -40 88.5
t-114 27.5h-179v-231h179q32 0 60 6t49 19.5t33 35.5t12 54z" />
    <glyph glyph-name="Gamma" unicode="&#x393;" horiz-adv-x="523" 
d="M483 577h-347v-573h-76v643h423v-70z" />
    <glyph glyph-name="Delta" unicode="&#x394;" horiz-adv-x="668" 
d="M44 33l261 639h57l262 -639v-33h-580v33zM96 41h475l-237 584z" />
    <glyph glyph-name="Epsilon" unicode="&#x395;" horiz-adv-x="536" 
d="M486 4h-426v643h419v-70h-343v-205h322v-69h-322v-230h350v-69z" />
    <glyph glyph-name="Zeta" unicode="&#x396;" horiz-adv-x="601" 
d="M541 4h-481v66l378 507h-350v70h448v-65l-380 -509h385v-69z" />
    <glyph glyph-name="Eta" unicode="&#x397;" horiz-adv-x="609" 
d="M549 4h-77v304h-336v-304h-76v643h76v-270h336v270h77v-643z" />
    <glyph glyph-name="Theta" unicode="&#x398;" horiz-adv-x="676" 
d="M626 325q0 -79 -22 -141t-61 -105t-91.5 -65.5t-113.5 -22.5t-113.5 22.5t-91.5 65.5t-61 105t-22 141t22 141.5t61 105.5t91.5 65.5t113.5 22.5t113.5 -22.5t91.5 -65.5t61 -105.5t22 -141.5zM549 325q0 61 -15.5 110t-43 84t-66.5 54t-86 19t-86 -19t-67 -54t-43.5 -84
t-15.5 -110t15.5 -110t43.5 -83.5t67 -53.5t86 -19t86 19t66.5 53.5t43 83.5t15.5 110zM508 294h-340v68h340v-68z" />
    <glyph glyph-name="Iota" unicode="&#x399;" horiz-adv-x="216" 
d="M146 4h-76v643h76v-643z" />
    <glyph glyph-name="Kappa" unicode="&#x39a;" horiz-adv-x="604" 
d="M564 4h-92l-236 317l-90 -90v-227h-76v643h76v-315l311 315h99l-266 -270z" />
    <glyph glyph-name="Lambda" unicode="&#x39b;" horiz-adv-x="673" 
d="M613 4h-82l-195 552l-194 -552h-82l238 643h77z" />
    <glyph glyph-name="Mu" unicode="&#x39c;" horiz-adv-x="725" 
d="M665 4h-77v520l-191 -520h-69l-192 521v-521h-76v643h108l194 -534l195 534h108v-643z" />
    <glyph glyph-name="Nu" unicode="&#x39d;" horiz-adv-x="610" 
d="M550 4h-80l-334 515v-515h-76v643h80l334 -515v515h76v-643z" />
    <glyph glyph-name="Xi" unicode="&#x39e;" horiz-adv-x="622" 
d="M567 577h-513v70h513v-70zM473 303h-324v69h324v-69zM572 4h-522v69h522v-69z" />
    <glyph glyph-name="Omicron" unicode="&#x39f;" horiz-adv-x="676" 
d="M626 325q0 -79 -22 -141t-61 -105t-91.5 -65.5t-113.5 -22.5t-113.5 22.5t-91.5 65.5t-61 105t-22 141t22 141.5t61 105.5t91.5 65.5t113.5 22.5t113.5 -22.5t91.5 -65.5t61 -105.5t22 -141.5zM549 325q0 61 -15.5 110t-43 84t-66.5 54t-86 19t-86 -19t-67 -54t-43.5 -84
t-15.5 -110t15.5 -110t43.5 -83.5t67 -53.5t86 -19t86 19t66.5 53.5t43 83.5t15.5 110z" />
    <glyph glyph-name="Pi" unicode="&#x3a0;" horiz-adv-x="572" 
d="M512 4h-77v573h-299v-573h-76v643h452v-643z" />
    <glyph glyph-name="Rho" unicode="&#x3a1;" horiz-adv-x="559" 
d="M519 463q0 -91 -52.5 -137.5t-141.5 -46.5h-189v-275h-76v643h265q88 0 141 -46.5t53 -137.5zM442 463q0 62 -35.5 88t-93.5 26h-177v-228h177q58 0 93.5 26t35.5 88z" />
    <glyph glyph-name="Sigma" unicode="&#x3a3;" horiz-adv-x="562" 
d="M522 4h-462v66l211 270l-211 247v60h447v-70h-344l178 -209v-53l-191 -242h372v-69z" />
    <glyph glyph-name="Tau" unicode="&#x3a4;" horiz-adv-x="596" 
d="M536 577h-200v-573h-76v573h-200v70h476v-70z" />
    <glyph glyph-name="Upsilon" unicode="&#x3a5;" horiz-adv-x="653" 
d="M593 647l-228 -382v-261h-76v262l-229 381h86l180 -302l180 302h87z" />
    <glyph glyph-name="Phi" unicode="&#x3a6;" horiz-adv-x="685" 
d="M635 330q0 -52 -19 -90.5t-52.5 -65t-80.5 -41.5t-103 -19v-110h-75v110q-56 4 -103 19t-80.5 41.5t-52.5 65t-19 90.5q0 51 19 90t52.5 65.5t80.5 41.5t103 19v101h75v-101q56 -4 103 -19t80.5 -41.5t52.5 -65.5t19 -90zM564 330q0 38 -14 65t-38.5 45t-58 28t-73.5 14
v-304q40 4 73.5 14t58 28t38.5 45t14 65zM305 482q-40 -4 -73.5 -14t-58 -28t-38.5 -45t-14 -65t14 -65t38.5 -45t58 -28t73.5 -14v304z" />
    <glyph glyph-name="Chi" unicode="&#x3a7;" horiz-adv-x="622" 
d="M572 4h-91l-169 265l-171 -265h-91l218 331l-205 312h90l158 -245l157 245h90l-203 -312z" />
    <glyph glyph-name="Psi" unicode="&#x3a8;" horiz-adv-x="723" 
d="M673 576q-32 0 -50.5 -18.5t-18.5 -50.5v-149q0 -47 -17.5 -80.5t-46 -56t-65.5 -34t-76 -12.5v-171h-75v171q-39 1 -76 12.5t-66 34t-46.5 56t-17.5 80.5v149q0 32 -18 50.5t-50 18.5l11 68q25 0 49 -10.5t42.5 -28t30 -41t11.5 -48.5v-158q0 -30 11 -51t29 -34.5
t41.5 -20.5t48.5 -8v403h75v-403q25 1 48.5 8t41.5 20.5t29 34.5t11 51v158q0 25 11 48.5t30 41t42.5 28t49.5 10.5z" />
    <glyph glyph-name="Omega" unicode="&#x3a9;" horiz-adv-x="729" 
d="M29 41h199q-87 60 -127.5 140.5t-40.5 189.5q0 82 17.5 141.5t54.5 97.5t94.5 56t137.5 18t138 -18t95 -56t54.5 -97.5t17.5 -141.5q0 -109 -41.5 -189.5t-126.5 -140.5h199v-41h-263v38q94 57 138.5 137.5t44.5 189.5q0 74 -14.5 126.5t-45.5 86.5t-79.5 49.5
t-116.5 15.5t-116 -15.5t-79 -49.5t-45.5 -86.5t-14.5 -126.5q0 -109 44.5 -189.5t138.5 -137.5v-38h-263v41z" />
    <glyph glyph-name="alpha" unicode="&#x3b1;" horiz-adv-x="476" 
d="M442 81q-11 -53 -30 -69.5t-44 -16.5q-23 0 -43 16t-26 50q-14 -35 -41.5 -52.5t-62.5 -17.5q-79 0 -116.5 60t-37.5 185q0 127 43.5 186.5t113.5 59.5q50 0 85 -34.5t42 -88.5l29 114h70l-80 -303q0 -54 7 -81t17 -27q8 0 12.5 10t7.5 33zM279 236q0 88 -18.5 134
t-65.5 46q-44 0 -63.5 -46t-19.5 -134q0 -85 19.5 -132t63.5 -47q43 0 63.5 45.5t20.5 133.5z" />
    <glyph glyph-name="beta" unicode="&#x3b2;" horiz-adv-x="439" 
d="M402 184q0 -42 -12 -77.5t-34.5 -61t-54.5 -40t-73 -14.5q-35 0 -63.5 7t-47.5 23v-145h-73v625q0 73 45 113t119 40q81 0 126 -45.5t45 -125.5q0 -56 -16.5 -89t-44.5 -48q37 -17 60.5 -54.5t23.5 -107.5zM328 183q0 68 -27 99.5t-62 31.5h-14.5t-13 -1t-14.5 -2t-20 -4
v72q20 -4 32.5 -5.5t29.5 -1.5q29 0 47 27.5t18 84.5q0 48 -24 75.5t-72 27.5q-91 0 -91 -86v-393q11 -23 39.5 -35t61.5 -12q110 0 110 122z" />
    <glyph glyph-name="gamma" unicode="&#x3b3;" horiz-adv-x="428" 
d="M417 469l-160 -252l30 -46q29 -45 51 -85t22 -77q0 -35 -12.5 -61t-32.5 -43t-46.5 -25t-53.5 -8t-53.5 8t-46.5 25t-32.5 43t-12.5 61q0 37 22 77t51 85l30 46l-160 252h85l117 -185l117 185h85zM285 9q0 7 -4.5 19.5t-12 28t-17 32.5t-18.5 32l-18 29l-18 -29
q-23 -38 -37.5 -66t-14.5 -46q0 -19 7.5 -32.5t18 -22.5t22.5 -13.5t22 -4.5q12 0 24.5 4.5t22.5 13.5t16.5 22.5t6.5 32.5z" />
    <glyph glyph-name="delta" unicode="&#x3b4;" horiz-adv-x="449" 
d="M408 206q0 -99 -46.5 -156.5t-139.5 -57.5q-45 0 -80 16t-58.5 44.5t-35.5 67.5t-12 86q0 88 37 143t98 68q-36 26 -53.5 54t-17.5 69q0 52 37 83t93 31q57 0 95 -29.5t38 -92.5h-75q0 29 -13.5 42t-45.5 13q-27 0 -40 -13.5t-13 -36.5q0 -19 14 -38t32.5 -35.5t37 -29
t28.5 -17.5q32 -18 55 -37t37.5 -43.5t21 -56t6.5 -74.5zM331 206q0 30 -6.5 56t-20 45.5t-34 31t-48.5 11.5q-27 0 -48 -11t-34.5 -30.5t-20.5 -46t-7 -56.5q0 -66 28 -105t82 -39q109 0 109 144z" />
    <glyph glyph-name="epsilon" unicode="&#x3b5;" horiz-adv-x="439" 
d="M400 141q-14 -80 -60.5 -115t-121.5 -35q-37 0 -69.5 8.5t-56.5 26t-37.5 44.5t-13.5 64q0 36 21 70t52 49q-26 15 -41 41.5t-15 60.5q0 66 45.5 98t118.5 32q66 0 110.5 -30.5t58.5 -99.5h-75q-8 31 -32.5 47t-59.5 16q-40 0 -66 -14.5t-26 -46.5q0 -45 30 -59.5
t95 -14.5v-68q-69 0 -104.5 -19.5t-35.5 -60.5q0 -42 29 -58.5t70 -16.5q46 0 73.5 18t35.5 63h75z" />
    <glyph glyph-name="zeta" unicode="&#x3b6;" horiz-adv-x="456" 
d="M405 -19q0 -57 -34.5 -86t-88.5 -29q-26 0 -56.5 8t-58.5 23l23 64q28 -15 47 -21.5t44 -6.5q23 0 37 12.5t14 36.5q0 16 -6 25.5t-19.5 15.5t-35 9t-53.5 6q-75 6 -124 49q-24 20 -38 53t-14 71q0 49 17.5 99.5t45.5 98.5t62.5 92t69.5 80h-161v65h241l22 -62
q-38 -36 -78 -79t-72.5 -90.5t-53.5 -99t-21 -103.5q0 -23 7.5 -44.5t23.5 -33.5q20 -16 46.5 -22t67.5 -11q79 -10 112.5 -38t33.5 -82z" />
    <glyph glyph-name="eta" unicode="&#x3b7;" horiz-adv-x="449" 
d="M422 -15q-17 -38 -38 -52t-47 -14q-42 0 -60.5 24t-18.5 65v288q0 60 -13 91t-49 31q-42 0 -62.5 -35t-20.5 -98v-281h-74v464h74v-43q9 24 34 40.5t57 16.5q38 0 62.5 -11t39 -33.5t20.5 -55.5t6 -78v-292q0 -28 10 -28t15.5 7t10.5 29z" />
    <glyph glyph-name="theta" unicode="&#x3b8;" horiz-adv-x="444" 
d="M408 325q0 -167 -44 -250.5t-143 -83.5q-100 0 -144 83t-44 251t44 251.5t144 83.5q99 0 143 -84t44 -251zM108 294q2 -54 8.5 -97.5t20 -74t34 -47.5t50.5 -17t50.5 17t34 47.5t19.5 74t8 97.5h-225zM333 362q-2 53 -8.5 95.5t-19.5 72.5t-33.5 46.5t-50.5 16.5
t-50.5 -16.5t-33.5 -46.5t-20 -72.5t-9 -95.5h225z" />
    <glyph glyph-name="iota" unicode="&#x3b9;" horiz-adv-x="302" 
d="M270 107q0 -54 -28 -85t-85 -31q-112 0 -112 115v368h72v-368q0 -49 40 -49q20 0 30.5 11t10.5 39h72z" />
    <glyph glyph-name="kappa" unicode="&#x3ba;" horiz-adv-x="456" 
d="M416 4h-85l-142 240l-69 -70v-170h-71v470h71v-204l201 204h94l-175 -178z" />
    <glyph glyph-name="lambda" unicode="&#x3bb;" horiz-adv-x="444" 
d="M417 76q-8 -58 -36 -82t-64 -24q-25 0 -42 8t-30 24t-22 41t-18 60l-34 139l-66 -238h-78l109 379l-38 149q-9 36 -20 49q-8 9 -16.5 11.5t-23.5 2.5v69q33 0 51 -6t35 -20q16 -12 26.5 -29.5t18.5 -50.5l112 -446q8 -33 15.5 -51.5t18.5 -18.5q12 0 19.5 7t9.5 27h73z
" />
    <glyph glyph-name="mu" unicode="&#x3bc;" horiz-adv-x="556" 
d="M79 483h48v-303q0 -81 33 -116t111 -35q84 0 120.5 36t36.5 120v298h48v-483h-39l-3 69q-41 -80 -164 -80q-111 0 -143 68v-265h-48v691z" />
    <glyph glyph-name="nu" unicode="&#x3bd;" horiz-adv-x="449" 
d="M419 474l-144 -470h-77l-111 373q-6 22 -17 27q-8 4 -40 4v66q35 0 54 -3t30 -11q15 -10 24 -22.5t16 -36.5l82 -294l110 367h73z" />
    <glyph glyph-name="xi" unicode="&#x3be;" horiz-adv-x="442" 
d="M390 -20q0 -27 -10 -47.5t-27 -34.5t-39.5 -21t-47.5 -7q-52 0 -97 31l25 66q18 -13 35.5 -20t36.5 -7q23 0 37.5 10t14.5 33q0 19 -23 30t-79 20q-37 6 -67.5 18t-52.5 31t-34.5 47.5t-12.5 67.5q0 72 36.5 119t99.5 74q-30 18 -44 40t-14 57q0 26 17 51t40 44h-108v65
h219l14 -53q-17 -9 -36 -20t-35.5 -25t-27.5 -30t-11 -34q0 -28 22.5 -44t63.5 -25v-57q-33 -10 -63 -23t-52.5 -31.5t-36 -43.5t-13.5 -58q0 -48 27.5 -72.5t75.5 -31.5q42 -6 73.5 -14t52 -21.5t31 -33.5t10.5 -50z" />
    <glyph glyph-name="omicron" unicode="&#x3bf;" horiz-adv-x="447" 
d="M408 236q0 -56 -12 -101t-35.5 -77t-58 -49.5t-80.5 -17.5q-91 0 -138 66.5t-47 178.5q0 56 12 101.5t35 77.5t58 49.5t80 17.5q46 0 80.5 -17.5t58 -49.5t35.5 -77.5t12 -101.5zM337 236q0 85 -29.5 133.5t-85.5 48.5q-55 0 -84.5 -48.5t-29.5 -133.5q0 -84 29.5 -133
t84.5 -49q56 0 85.5 49t29.5 133z" />
    <glyph glyph-name="pi" unicode="&#x3c0;" horiz-adv-x="588" 
d="M111 444h-74v39h513v-39h-74v-444h-46v444h-272v-444h-47v444z" />
    <glyph glyph-name="rho" unicode="&#x3c1;" horiz-adv-x="444" 
d="M408 236q0 -115 -47.5 -180t-138.5 -65q-37 0 -68.5 13.5t-45.5 37.5v-181h-71v376q0 114 45.5 179.5t139.5 65.5q95 0 140.5 -64t45.5 -182zM337 236q0 87 -28 134.5t-87 47.5q-56 0 -85 -48.5t-29 -133.5q0 -88 28.5 -135t85.5 -47t86 49t29 133z" />
    <glyph glyph-name="sigma" unicode="&#x3c3;" horiz-adv-x="442" 
d="M419 415q-23 8 -42.5 11.5t-36.5 3.5q67 -61 67 -194q0 -56 -12 -101t-35.5 -77t-58 -49.5t-79.5 -17.5q-91 0 -138.5 65t-47.5 180q0 96 36.5 158t99.5 82q52 17 117.5 19.5t129.5 -10.5v-70zM336 236q0 85 -30 133.5t-84 48.5q-57 0 -86 -48.5t-29 -133.5
q0 -84 28.5 -133t86.5 -49q56 0 85 49t29 133z" />
    <glyph glyph-name="tau" unicode="&#x3c4;" horiz-adv-x="439" 
d="M410 409h-188v-316q0 -19 8 -26t19 -7q14 0 21.5 8t12.5 40l65 -17q-9 -57 -35 -78t-69 -21q-38 0 -66.5 23.5t-28.5 75.5v318h-117v65h378v-65z" />
    <glyph glyph-name="upsilon" unicode="&#x3c5;" horiz-adv-x="439" 
d="M390 193q0 -96 -44.5 -148.5t-134.5 -52.5q-35 0 -64.5 8.5t-50.5 27.5t-33 48.5t-12 71.5v326h73v-326q0 -49 22.5 -68.5t60.5 -19.5q59 0 83 32t24 97q0 135 -62 278l73 18q32 -72 48.5 -147t16.5 -145z" />
    <glyph glyph-name="phi" unicode="&#x3c6;" horiz-adv-x="447" 
d="M412 236q0 -102 -38 -165.5t-116 -77.5v-129h-71v129q-78 14 -116 77.5t-38 165.5t38 165.5t116 77.5v168h71v-168q78 -14 116 -77.5t38 -165.5zM187 412q-42 -15 -62.5 -60t-20.5 -116q0 -70 20.5 -115.5t62.5 -59.5v351zM341 236q0 71 -20.5 116t-62.5 60v-351
q42 14 62.5 59.5t20.5 115.5z" />
    <glyph glyph-name="chi" unicode="&#x3c7;" horiz-adv-x="464" 
d="M422 474l-160 -291l56 -197q5 -19 11 -27t22 -8h64v-61h-60q-49 0 -72 19t-33 54l-37 131l-112 -204h-80l165 300l-53 187q-5 16 -11.5 26t-21.5 10h-56v61h52q25 0 43 -4t30 -12t19.5 -22t12.5 -33l34 -124l107 195h80z" />
    <glyph glyph-name="psi" unicode="&#x3c8;" horiz-adv-x="444" 
d="M422 453q-11 -26 -17.5 -47.5t-10.5 -42t-5.5 -43t-1.5 -50.5v-142q0 -69 -35 -99t-96 -33v-132h-69v132q-61 3 -96 33t-35 99v142q0 28 -1.5 50.5t-5.5 43t-11 42t-17 47.5l64 19q11 -24 18 -47.5t11.5 -48t6.5 -51.5t2 -58v-139q0 -30 12.5 -47t51.5 -20v413h69v-413
q39 3 51.5 20t12.5 47v139q0 31 2 58t6.5 51.5t12 48t18.5 47.5z" />
    <glyph glyph-name="omega" unicode="&#x3c9;" horiz-adv-x="444" 
d="M419 197q0 -105 -26 -156t-91 -51q-56 0 -80 50q-26 -50 -81 -50q-65 0 -91 51t-26 156q0 36 3.5 71.5t12.5 71t25 70t41 69.5l53 -44q-21 -29 -34 -57.5t-20 -58t-9.5 -59.5t-2.5 -61q0 -42 3 -69.5t9 -43.5t15 -22.5t21 -6.5q24 0 35 21.5t11 56.5v199h69v-199
q0 -35 11 -56.5t36 -21.5q12 0 21 6.5t14.5 22.5t8.5 43.5t3 69.5q0 31 -2.5 61t-9.5 59.5t-20 58t-34 57.5l53 44q49 -69 65.5 -139.5t16.5 -142.5z" />
    <glyph glyph-name="SF100000" unicode="&#x2500;" horiz-adv-x="850" 
d="M850 286h-850v29h850v-29z" />
    <glyph glyph-name="SF110000" unicode="&#x2502;" horiz-adv-x="850" 
d="M439 -200h-28v1000h28v-1000z" />
    <glyph glyph-name="SF010000" unicode="&#x250c;" horiz-adv-x="850" 
d="M851 286h-411v-486h-27v515h438v-29z" />
    <glyph glyph-name="SF030000" unicode="&#x2510;" horiz-adv-x="850" 
d="M440 -200h-27v486h-412v29h439v-515z" />
    <glyph glyph-name="SF040000" unicode="&#x2518;" horiz-adv-x="850" 
d="M439 286h-438v29h411v485h27v-514z" />
    <glyph glyph-name="SF020000" unicode="&#x2514;" horiz-adv-x="850" 
d="M413 800h28v-485h409v-29h-437v514z" />
    <glyph glyph-name="SF080000" unicode="&#x251c;" horiz-adv-x="850" 
d="M849 286h-409v-486h-27v1000h27v-485h409v-29z" />
    <glyph glyph-name="SF060000" unicode="&#x252c;" horiz-adv-x="850" 
d="M851 286h-411v-486h-27v486h-412v29h850v-29z" />
    <glyph glyph-name="SF090000" unicode="&#x2524;" horiz-adv-x="850" 
d="M1 315h411v485h27v-1000h-27v486h-411v29z" />
    <glyph glyph-name="SF070000" unicode="&#x2534;" horiz-adv-x="850" 
d="M851 286h-850v29h412v485h27v-485h411v-29z" />
    <glyph glyph-name="SF050000" unicode="&#x253c;" horiz-adv-x="850" 
d="M850 285h-411v-485h-27v485h-412v29h412v486h27v-486h411v-29z" />
    <glyph glyph-name="uni2501" unicode="&#x2501;" horiz-adv-x="850" 
d="M851 271h-850v54h850v-54z" />
    <glyph glyph-name="uni2503" unicode="&#x2503;" horiz-adv-x="850" 
d="M454 -200h-52v1000h52v-1000z" />
    <glyph glyph-name="uni250F" unicode="&#x250f;" horiz-adv-x="850" 
d="M851 271h-400v-471h-51v525h451v-54z" />
    <glyph glyph-name="uni2513" unicode="&#x2513;" horiz-adv-x="850" 
d="M451 -200h-50v471h-402v54h452v-525z" />
    <glyph glyph-name="uni251B" unicode="&#x251b;" horiz-adv-x="850" 
d="M451 271h-451v54h400v475h51v-529z" />
    <glyph glyph-name="uni2517" unicode="&#x2517;" horiz-adv-x="850" 
d="M850 271h-451v529h51v-475h400v-54z" />
    <glyph glyph-name="uni2523" unicode="&#x2523;" horiz-adv-x="850" 
d="M851 271h-400v-471h-51v1000h51v-475h400v-54z" />
    <glyph glyph-name="uni2533" unicode="&#x2533;" horiz-adv-x="850" 
d="M850 271h-399v-471h-52v471h-399v54h850v-54z" />
    <glyph glyph-name="uni252B" unicode="&#x252b;" horiz-adv-x="850" 
d="M450 -200h-51v471h-400v54h400v475h51v-1000z" />
    <glyph glyph-name="uni253B" unicode="&#x253b;" horiz-adv-x="850" 
d="M850 271h-850v54h399v475h52v-475h399v-54z" />
    <glyph glyph-name="uni254B" unicode="&#x254b;" horiz-adv-x="850" 
d="M850 271h-399v-471h-52v471h-399v54h399v475h52v-475h399v-54z" />
    <glyph glyph-name="uni2520" unicode="&#x2520;" horiz-adv-x="850" 
d="M388 800h72v-482h390v-36h-390v-482h-72v1000z" />
    <glyph glyph-name="uni252F" unicode="&#x252f;" horiz-adv-x="850" 
d="M850 264h-407v-464h-36v464h-407v72h850v-72z" />
    <glyph glyph-name="uni2528" unicode="&#x2528;" horiz-adv-x="850" 
d="M462 -200h-72v482h-390v36h390v482h72v-1000z" />
    <glyph glyph-name="uni2537" unicode="&#x2537;" horiz-adv-x="850" 
d="M850 264h-850v72h407v464h36v-464h407v-72z" />
    <glyph glyph-name="uni253F" unicode="&#x253f;" horiz-adv-x="850" 
d="M850 264h-407v-464h-36v464h-407v72h407v464h36v-464h407v-72z" />
    <glyph glyph-name="uni251D" unicode="&#x251d;" horiz-adv-x="850" 
d="M850 264h-407v-464h-36v1000h36v-464h407v-72z" />
    <glyph glyph-name="uni2530" unicode="&#x2530;" horiz-adv-x="850" 
d="M850 282h-389v-482h-72v482h-389v36h850v-36z" />
    <glyph glyph-name="uni2525" unicode="&#x2525;" horiz-adv-x="850" 
d="M444 -200h-36v464h-407v72h407v464h36v-1000z" />
    <glyph glyph-name="uni2538" unicode="&#x2538;" horiz-adv-x="850" 
d="M850 282h-850v36h389v482h72v-482h389v-36z" />
    <glyph glyph-name="uni2542" unicode="&#x2542;" horiz-adv-x="850" 
d="M850 282h-389v-482h-72v482h-389v36h389v482h72v-482h389v-36z" />
    <glyph glyph-name="uni2512" unicode="&#x2512;" horiz-adv-x="850" 
d="M461 -200h-72v482h-390v36h462v-518z" />
    <glyph glyph-name="uni2511" unicode="&#x2511;" horiz-adv-x="850" 
d="M444 -200h-36v464h-407v72h443v-536z" />
    <glyph glyph-name="uni251A" unicode="&#x251a;" horiz-adv-x="850" 
d="M461 282h-462v36h390v482h72v-518z" />
    <glyph glyph-name="uni2519" unicode="&#x2519;" horiz-adv-x="850" 
d="M443 264h-443v72h407v464h36v-536z" />
    <glyph glyph-name="uni2516" unicode="&#x2516;" horiz-adv-x="850" 
d="M850 282h-462v518h72v-482h390v-36z" />
    <glyph glyph-name="uni2515" unicode="&#x2515;" horiz-adv-x="850" 
d="M850 264h-443v536h36v-464h407v-72z" />
    <glyph glyph-name="uni250E" unicode="&#x250e;" horiz-adv-x="850" 
d="M849 282h-390v-482h-72v518h462v-36z" />
    <glyph glyph-name="uni250D" unicode="&#x250d;" horiz-adv-x="850" 
d="M850 264h-407v-464h-36v536h443v-72z" />
    <glyph glyph-name="uni251E" unicode="&#x251e;" horiz-adv-x="850" 
d="M851 282h-409l1 -482h-36v500h-18v500h72v-482h390v-36z" />
    <glyph glyph-name="uni251F" unicode="&#x251f;" horiz-adv-x="850" 
d="M851 282h-390v-482h-72v500h18v500h36v-482h408v-36z" />
    <glyph glyph-name="uni2521" unicode="&#x2521;" horiz-adv-x="850" 
d="M851 264h-408v-464h-36v500h-18v500h72v-464h390v-72z" />
    <glyph glyph-name="uni2522" unicode="&#x2522;" horiz-adv-x="850" 
d="M851 264h-390v-464h-72v500h18v500h36v-464h408v-72z" />
    <glyph glyph-name="uni2526" unicode="&#x2526;" horiz-adv-x="850" 
d="M462 300h-18v-500h-36v482h-408v36h390v482h72v-500z" />
    <glyph glyph-name="uni2527" unicode="&#x2527;" horiz-adv-x="850" 
d="M462 -200h-72v482h-390v36h408v482h36v-500h18v-500z" />
    <glyph glyph-name="uni2529" unicode="&#x2529;" horiz-adv-x="850" 
d="M462 300h-18v-500h-36v464h-408v72h390v464h72v-500z" />
    <glyph glyph-name="uni252A" unicode="&#x252a;" horiz-adv-x="850" 
d="M462 -200h-72v464h-390v72h408v464h36v-500h18v-500z" />
    <glyph glyph-name="uni252D" unicode="&#x252d;" horiz-adv-x="850" 
d="M850 282h-407v-482h-36v464h-407v72h425v-18h425v-36z" />
    <glyph glyph-name="uni252E" unicode="&#x252e;" horiz-adv-x="850" 
d="M850 264h-407v-464h-36v482h-407v36h425v18h425v-72z" />
    <glyph glyph-name="uni2531" unicode="&#x2531;" horiz-adv-x="850" 
d="M850 282h-389v-482h-72v464h-389v72h425v-18h425v-36z" />
    <glyph glyph-name="uni2532" unicode="&#x2532;" horiz-adv-x="850" 
d="M850 264h-389v-464h-72v482h-389v36h425v18h425v-72z" />
    <glyph glyph-name="uni2535" unicode="&#x2535;" horiz-adv-x="850" 
d="M850 282h-425v-18h-425v72h407v464h36v-482h407v-36z" />
    <glyph glyph-name="uni2536" unicode="&#x2536;" horiz-adv-x="850" 
d="M850 264h-425v18h-425v36h407v482h36v-464h407v-72z" />
    <glyph glyph-name="uni2539" unicode="&#x2539;" horiz-adv-x="850" 
d="M850 282h-425v-18h-425v72h389v464h72v-482h389v-36z" />
    <glyph glyph-name="uni253A" unicode="&#x253a;" horiz-adv-x="850" 
d="M850 264h-425v18h-425v36h389v482h72v-464h389v-72z" />
    <glyph glyph-name="uni253D" unicode="&#x253d;" horiz-adv-x="850" 
d="M850 282h-407v-482h-36v464h-407v76h407v460h36v-482h407v-36z" />
    <glyph glyph-name="uni253E" unicode="&#x253e;" horiz-adv-x="850" 
d="M850 264h-407v-464h-36v482h-407v36h407v482h36v-464h407v-72z" />
    <glyph glyph-name="uni2540" unicode="&#x2540;" horiz-adv-x="850" 
d="M850 282h-407v-482h-36v482h-407v36h389v482h72v-482h389v-36z" />
    <glyph glyph-name="uni2541" unicode="&#x2541;" horiz-adv-x="850" 
d="M850 282h-389v-482h-72v482h-389v36h407v482h36v-482h407v-36z" />
    <glyph glyph-name="uni2543" unicode="&#x2543;" horiz-adv-x="850" 
d="M850 282h-407v-482h-36v464h-407v72h389v464h72v-482h389v-36z" />
    <glyph glyph-name="uni2544" unicode="&#x2544;" horiz-adv-x="850" 
d="M850 264h-407v-464h-36v482h-407v36h389v482h72v-464h389v-72z" />
    <glyph glyph-name="uni2545" unicode="&#x2545;" horiz-adv-x="850" 
d="M850 282h-389v-482h-72v464h-389v72h407v464h36v-482h407v-36z" />
    <glyph glyph-name="uni2546" unicode="&#x2546;" horiz-adv-x="850" 
d="M850 264h-389v-464h-72v482h-389v36h407v482h36v-464h407v-72z" />
    <glyph glyph-name="uni2547" unicode="&#x2547;" horiz-adv-x="850" 
d="M850 264h-407v-464h-36v464h-407v72h389v464h72v-464h389v-72z" />
    <glyph glyph-name="uni2548" unicode="&#x2548;" horiz-adv-x="850" 
d="M850 264h-389v-464h-72v464h-389v72h407v464h36v-464h407v-72z" />
    <glyph glyph-name="uni2549" unicode="&#x2549;" horiz-adv-x="850" 
d="M850 282h-389v-482h-72v464h-389v72h389v464h72v-482h389v-36z" />
    <glyph glyph-name="uni254A" unicode="&#x254a;" horiz-adv-x="850" 
d="M850 264h-389v-464h-72v482h-389v36h389v482h72v-464h389v-72z" />
    <glyph glyph-name="uni3395" unicode="&#x3395;" horiz-adv-x="850" 
d="M742 493q0 -56 -12 -105.5t-33 -93t-50 -82t-63 -72.5q3 -28 12 -43.5t22 -15.5q19 0 32.5 23t27.5 55l49 -23q-26 -59 -51 -84t-62 -25q-27 0 -48 20t-29 52q-18 -17 -47 -35l-31 47q41 26 71 53q-4 76 0.5 143t23.5 145q6 24 17 51t26 49.5t34.5 37.5t42.5 15
q17 0 29.5 -11t21 -28t13 -36.5t4.5 -36.5zM491 426l-121 -342q7 -9 21 -9q9 0 18 7.5t20 28.5l40 -34q-33 -52 -77 -52q-42 0 -60 26q-16 -14 -34.5 -19.5t-36.5 -5.5q-17 0 -34 7.5t-28 21.5l-40 -118l-53 20l166 484l56 -18l-110 -311q7 -14 18 -23.5t27 -9.5q34 0 55 26
l118 337zM684 491q0 21 -4.5 35t-12.5 14q-15 0 -29.5 -28t-25.5 -73q-15 -64 -22 -119t-9 -102q45 60 74 125.5t29 147.5z" />
    <glyph glyph-name="uni3396" unicode="&#x3396;" horiz-adv-x="850" 
d="M760 505q0 -56 -12 -105.5t-33.5 -93t-50.5 -82t-63 -72.5q3 -28 12 -43.5t23 -15.5q18 0 32 23t28 55l48 -23q-25 -59 -50.5 -84t-62.5 -25q-26 0 -47 20t-30 52q-9 -8 -22 -17t-28 -20l-20 30v-59h-54v267q0 46 -7.5 71.5t-35.5 25.5q-27 0 -42.5 -32.5t-15.5 -91.5
v-240h-55v266q0 41 -8.5 69.5t-31.5 28.5q-31 0 -45.5 -32.5t-14.5 -92.5v-239h-55v408h55v-28q11 18 28.5 29t43.5 11q27 0 44.5 -16.5t25.5 -39.5q10 23 29 39.5t51 16.5q45 0 66.5 -36.5t21.5 -113.5v-187q18 11 33.5 23.5t29.5 24.5q-2 38 -1.5 73t3 70t8.5 70.5
t15 74.5q6 24 17 51t26 49.5t34.5 37.5t42.5 15q17 0 29.5 -11t21 -28t13 -36.5t4.5 -36.5zM701 503q0 21 -4 35t-13 14q-15 0 -29.5 -28t-25.5 -73q-15 -64 -22 -119t-8 -102q45 60 73.5 125.5t28.5 147.5z" />
    <glyph glyph-name="uni3397" unicode="&#x3397;" horiz-adv-x="850" 
d="M739 504q0 -56 -12 -105.5t-33.5 -93t-50.5 -82t-63 -72.5q3 -28 12.5 -43.5t22.5 -15.5q18 0 34.5 23t27.5 55l49 -23q-23 -57 -51 -83t-65 -26q-26 0 -47 20t-29 52q-10 -8 -23 -17t-28 -19l-21 33v-63h-59v51q-18 -29 -50 -45.5t-70 -16.5q-42 0 -73.5 16.5t-52.5 46
t-32 68.5t-11 84t10.5 84.5t32 68.5t53 46t73.5 17q36 0 68 -18t52 -48v211h59v-482q17 11 33.5 23.5t30.5 24.5q-2 38 -1.5 73.5t3 70t8.5 70t15 74.5q6 25 17 52t26 49.5t34.5 37t42.5 14.5q18 0 30.5 -11t21 -28t12.5 -36.5t4 -36.5zM680 502q0 21 -4 35t-13 14
q-15 0 -29 -27.5t-25 -72.5q-29 -127 -31 -222q46 61 74 125.5t28 147.5zM403 248q0 30 -6.5 59t-21 51.5t-37 36t-55.5 13.5q-29 0 -50 -13.5t-34.5 -36t-19.5 -51.5t-6 -59t6.5 -58.5t20 -51t34 -36t49.5 -13.5q34 0 57 13.5t37 36t20 51t6 58.5z" />
    <glyph glyph-name="afii61289" unicode="&#x2113;" horiz-adv-x="366" 
d="M324 567q0 -179 -200 -304v-129q0 -57 24 -81.5t81 -24.5q40 0 73 10v-42q-17 -4 -36 -6t-41 -2q-78 0 -112 33.5t-34 111.5v420q0 87 30 125t97 38q61 0 89.5 -35t28.5 -114zM284 566q0 60 -17 85t-59 25q-45 0 -64.5 -29t-19.5 -96v-240q81 54 120.5 116.5t39.5 138.5z
" />
    <glyph glyph-name="uni3398" unicode="&#x3398;" horiz-adv-x="850" 
d="M726 505q0 -56 -12.5 -105.5t-34 -93t-50.5 -82t-63 -72.5q3 -28 12 -43.5t23 -15.5q18 0 32.5 23t27.5 55l49 -23q-26 -62 -52.5 -85.5t-61.5 -23.5q-26 0 -47 20t-30 52q-9 -8 -22 -17t-28 -20l-31 48q21 12 39.5 26t34.5 28q-2 38 -1.5 73t3 70t8.5 70.5t15 74.5
q6 24 17 51t26 49.5t34.5 37.5t42.5 15q17 0 30 -11t21.5 -28t13 -36.5t4.5 -36.5zM465 453l-149 -150l147 -258h-66l-123 214l-65 -65v-149h-58v564h58v-343l183 187h73zM667 503q0 21 -4.5 35t-13.5 14q-15 0 -29 -28t-25 -73q-15 -64 -22.5 -119t-8.5 -102
q45 60 74 125.5t29 147.5z" />
    <glyph glyph-name="uni33C4" unicode="&#x33c4;" horiz-adv-x="850" 
d="M751 177q-11 -81 -50 -123t-100 -42q-79 0 -122.5 58t-43.5 158q0 48 11 87.5t32.5 68t52 44.5t69.5 16q56 0 98 -41t50 -117h-58q-6 46 -29.5 74t-60.5 28q-27 0 -47 -12.5t-33 -34t-19.5 -51t-6.5 -62.5q0 -73 27 -116.5t80 -43.5q35 0 60 29t31 80h59zM425 177
q-10 -81 -49 -123t-101 -42q-78 0 -122 58t-44 158q0 48 11 87.5t32.5 68t52 44.5t69.5 16q57 0 98.5 -41t50.5 -117h-59q-5 46 -29 74t-61 28q-27 0 -47 -12.5t-32.5 -34t-19 -51t-6.5 -62.5q0 -73 27 -116.5t79 -43.5q36 0 61 29t31 80h58z" />
    <glyph glyph-name="uni33A3" unicode="&#x33a3;" horiz-adv-x="850" 
d="M764 542q0 -28 -18 -41.5t-44 -13.5q-29 0 -46.5 13.5t-16.5 48.5h30q-2 -22 8 -29t24 -7q15 0 24.5 6.5t9.5 20.5q0 30 -31 30h-16v27h16q10 0 17.5 6t7.5 19q0 20 -28 20q-14 0 -21 -7t-7 -27h-29q-1 32 15 47t42 15t41.5 -11t15.5 -36q0 -12 -5 -22t-16 -16
q27 -8 27 -43zM757 52h-51v267q0 48 -4 72.5t-29 24.5q-27 0 -37 -32.5t-10 -91.5v-240h-53v266q0 48 -4.5 73t-25.5 25q-26 0 -37 -32.5t-11 -92.5v-239h-53v408h53v-23q9 15 23.5 25t34.5 10q25 0 39.5 -15.5t20.5 -37.5q8 22 25 37.5t43 15.5q45 0 60.5 -35t15.5 -115
v-270zM419 52h-51v267q0 47 -4.5 72t-29.5 25q-26 0 -36 -32.5t-10 -91.5v-240h-53v266q0 48 -4.5 73t-25.5 25q-26 0 -37 -32.5t-11 -92.5v-239h-53v408h53v-23q9 15 23.5 25t34.5 10q25 0 39.5 -15.5t20.5 -37.5q8 22 25 37.5t43 15.5q44 0 60 -34.5t16 -115.5v-270z" />
    <glyph glyph-name="uni33A4" unicode="&#x33a4;" horiz-adv-x="850" 
d="M754 540q0 -28 -18 -41.5t-44 -13.5q-29 0 -46.5 14t-16.5 48h29q-1 -22 9 -28.5t24 -6.5q15 0 24.5 6.5t9.5 20.5q0 29 -31 29h-17v28h17q10 0 17 6t7 18q0 21 -27 21q-14 0 -21.5 -7t-6.5 -27h-29q-2 32 14.5 46.5t42.5 14.5t41.5 -10.5t15.5 -35.5q0 -26 -21 -38
q13 -5 20 -14.5t7 -29.5zM750 51h-52v267q0 46 -4.5 71.5t-29.5 25.5q-27 0 -37.5 -33t-10.5 -91v-240h-53v265q0 48 -5 73t-27 25q-26 0 -37.5 -32t-11.5 -93v-238h-54v407h54v-24q10 16 25 26t35 10q26 0 40 -15.5t21 -38.5q9 23 26 38.5t44 15.5q48 0 62.5 -35t14.5 -115
v-269zM415 203q-10 -81 -49.5 -122.5t-100.5 -41.5q-78 0 -122 58t-44 157q0 48 11 87.5t32.5 68t52 44.5t69.5 16q57 0 98.5 -41t50.5 -116h-59q-6 46 -29.5 73.5t-60.5 27.5q-27 0 -47 -12.5t-33 -34t-19.5 -50.5t-6.5 -63q0 -73 27 -116t80 -43q35 0 60.5 28.5t31.5 79.5
h58z" />
    <glyph glyph-name="uni33A5" unicode="&#x33a5;" horiz-adv-x="850" 
d="M717 541q0 -28 -18 -41.5t-44 -13.5q-29 0 -46.5 13.5t-16.5 48.5h30q-2 -22 8 -28.5t24 -6.5q15 0 24.5 6t9.5 20q0 30 -31 30h-16v27h16q10 0 17.5 6t7.5 19q0 20 -28 20q-14 0 -21 -7t-7 -27h-29q-1 32 15 47t42 15t41.5 -10.5t15.5 -36.5q0 -12 -5 -22t-16 -16
q27 -8 27 -43zM665 52h-60v267q0 44 -14 70t-57 26q-23 0 -38.5 -11t-25.5 -29.5t-14.5 -44t-4.5 -54.5v-224h-61v265q0 19 -2 37t-9 31.5t-19 21.5t-31 8q-26 0 -43.5 -10.5t-28.5 -29.5t-15.5 -44.5t-4.5 -55.5v-223h-60v408h60v-42q15 23 40 38t60 15q38 0 64 -17t37 -46
q14 27 39.5 45t66.5 18q62 0 91.5 -36.5t29.5 -113.5v-269z" />
    <glyph glyph-name="uni33A6" unicode="&#x33a6;" horiz-adv-x="850" 
d="M758 541q0 -28 -18 -41.5t-44 -13.5q-29 0 -46.5 13.5t-16.5 48.5h30q-2 -22 8 -28.5t24 -6.5q15 0 24.5 6t9.5 20q0 30 -31 30h-17v27h17q10 0 17.5 6t7.5 19q0 20 -28 20q-14 0 -21.5 -7t-6.5 -27h-29q-2 32 14.5 47t42.5 15t41.5 -10.5t15.5 -36.5t-21 -38
q27 -8 27 -43zM753 52h-53v267q0 46 -5 71.5t-30 25.5q-27 0 -36.5 -32.5t-9.5 -91.5v-240h-54v265q0 48 -5 73t-27 25q-26 0 -37 -32t-11 -92v-239h-54v408h54v-24q9 15 24 25t36 10q26 0 40 -15t21 -38q8 23 25.5 38t43.5 15q47 0 62.5 -33.5t15.5 -116.5v-269zM415 52
h-67l-126 209l-55 -58v-151h-55v564h55v-336l168 180h74l-145 -154z" />
    <glyph glyph-name="uni3399" unicode="&#x3399;" horiz-adv-x="850" 
d="M719 45h-56v267q0 47 -8 72t-37 25q-31 0 -41.5 -32t-10.5 -91v-241h-60v265q0 49 -6.5 73.5t-30.5 24.5q-32 0 -45 -30.5t-13 -90.5v-242h-60v408h60v-27q11 17 28 27.5t42 10.5q30 0 46.5 -16t24.5 -39q10 23 29 39t50 16q50 0 69 -34t19 -116v-269zM332 547
q-17 3 -26 4t-17 1q-26 0 -32.5 -17t-6.5 -47v-35h74v-56h-74v-352h-62v352h-67v56h67v38q0 58 20.5 88t74.5 30q11 0 21.5 -1t27.5 -3v-58z" />
    <glyph glyph-name="uni339A" unicode="&#x339a;" horiz-adv-x="850" 
d="M758 26h-56v267q0 48 -8 72.5t-34 24.5q-31 0 -41 -32t-10 -91v-241h-59v265q0 49 -6 73.5t-30 24.5q-30 0 -43 -30.5t-13 -91.5v-241h-58v407h58v-26q11 17 27.5 27.5t40.5 10.5q29 0 45 -16t23 -39q10 23 29 39t49 16q46 0 66 -34.5t20 -115.5v-269zM368 26h-57v248
q0 52 -12.5 83.5t-51.5 31.5q-45 0 -63.5 -38t-18.5 -95v-230h-57v407h57v-40q14 24 35.5 38t50.5 14q68 0 92.5 -41t24.5 -123v-255z" />
    <glyph glyph-name="uni339B" unicode="&#x339b;" horiz-adv-x="850" 
d="M764 13h-52v267q0 47 -4.5 72t-29.5 25q-27 0 -36 -32.5t-9 -91.5v-240h-53v265q0 49 -5 73.5t-26 24.5q-25 0 -36.5 -32t-11.5 -92v-239h-52v408h52v-23q9 15 24 24.5t35 9.5q25 0 39 -14.5t21 -37.5q8 23 25 37.5t43 14.5q43 0 59.5 -33.5t16.5 -116.5v-269zM437 406
l-117 -342q7 -8 19 -8q8 0 17.5 9.5t22.5 33.5l41 -29q-20 -36 -40 -50.5t-40 -14.5q-39 0 -58 25q-14 -13 -29 -18t-32 -5q-35 0 -53 26l-38 -116l-53 19l161 485l55 -18l-106 -310q9 -33 36 -33q14 0 25 5t21 20l114 336z" />
    <glyph glyph-name="uni339C" unicode="&#x339c;" horiz-adv-x="850" 
d="M756 26h-51v267q0 47 -5 72t-30 25q-26 0 -35.5 -33t-9.5 -91v-240h-53v265q0 48 -5.5 73t-26.5 25q-25 0 -35.5 -32t-10.5 -93v-238h-53v407h53v-23q9 16 23.5 25.5t34.5 9.5q26 0 40 -15t20 -38q8 23 25 38t43 15q46 0 61 -34.5t15 -115.5v-269zM418 26h-51v267
q0 47 -5 72t-30 25q-27 0 -36 -33t-9 -91v-240h-53v265q0 48 -5.5 73t-26.5 25q-25 0 -35.5 -32t-10.5 -93v-238h-53v407h53v-23q9 16 23.5 25.5t34.5 9.5q25 0 39.5 -15t20.5 -38q8 23 25 38t43 15q46 0 61 -34.5t15 -115.5v-269z" />
    <glyph glyph-name="uni339D" unicode="&#x339d;" horiz-adv-x="850" 
d="M755 24h-52v267q0 47 -4.5 72t-29.5 25q-27 0 -37 -32.5t-10 -91.5v-240h-54v266q0 48 -6.5 73t-26.5 25q-27 0 -37.5 -32.5t-10.5 -92.5v-239h-53v408h53v-24q10 16 25 26t35 10q26 0 40 -15.5t21 -38.5q9 23 24.5 38.5t41.5 15.5q45 0 63 -34.5t18 -115.5v-270z
M417 177q-10 -81 -49.5 -123t-100.5 -42q-78 0 -122 58t-44 158q0 48 11 87.5t32.5 68t52 44.5t69.5 16q57 0 98.5 -41t50.5 -117h-59q-6 46 -29.5 74t-60.5 28q-27 0 -47 -12.5t-33 -34t-19.5 -51t-6.5 -62.5q0 -73 27 -116.5t80 -43.5q35 0 60.5 29t30.5 80h59z" />
    <glyph glyph-name="uni339E" unicode="&#x339e;" horiz-adv-x="850" 
d="M751 45h-52v267q0 47 -5 72t-31 25q-27 0 -36.5 -32.5t-9.5 -91.5v-240h-53v265q0 48 -5.5 73t-27.5 25q-26 0 -37 -32t-11 -92v-239h-54v408h54v-24q10 15 24.5 25t35.5 10q26 0 40 -15t21 -38q9 23 26 38t43 15q47 0 62.5 -33.5t15.5 -116.5v-269zM414 45h-68l-125 209
l-56 -58v-151h-55v564h55v-336l169 180h73l-144 -154z" />
    <glyph glyph-name="uni339F" unicode="&#x339f;" horiz-adv-x="850" 
d="M752 492h-123q1 18 5.5 30.5t12 22t18 17.5t23.5 16q16 10 24.5 17.5t8.5 24.5q0 25 -27 25q-14 0 -22 -9t-8 -32h-30q0 35 16 52t44 17q26 0 41.5 -13t15.5 -40q0 -29 -17 -43.5t-42 -29.5q-8 -5 -14.5 -10.5t-9.5 -15.5h84v-29zM756 52h-51v267q0 48 -4 73t-29 25
q-27 0 -37 -33t-10 -91v-241h-53v266q0 48 -4 73t-26 25q-26 0 -37 -32t-11 -93v-239h-53v408h53v-23q9 16 23.5 25.5t34.5 9.5q26 0 40 -15.5t20 -37.5q8 22 25 37.5t43 15.5q45 0 60.5 -35t15.5 -115v-270zM418 52h-51v267q0 48 -4 73t-29 25q-27 0 -37 -33t-10 -91v-241
h-53v266q0 48 -4.5 73t-25.5 25q-26 0 -37 -32t-11 -93v-239h-53v408h53v-23q9 16 23.5 25.5t34.5 9.5q25 0 39.5 -15.5t20.5 -37.5q8 22 25 37.5t43 15.5q44 0 60 -34.5t16 -115.5v-270z" />
    <glyph glyph-name="uni33A0" unicode="&#x33a0;" horiz-adv-x="850" 
d="M753 490h-123q1 18 5.5 30.5t12 22t18 17.5t23.5 16q16 10 25 17.5t9 24.5q0 25 -28 25q-13 0 -21.5 -9t-8.5 -32h-30q0 35 16.5 52t43.5 17q26 0 41.5 -13t15.5 -40q0 -29 -17 -43t-42 -30q-8 -5 -14.5 -10.5t-9.5 -15.5h84v-29zM755 51h-52v267q0 46 -4.5 71.5
t-29.5 25.5q-27 0 -37 -33t-10 -91v-240h-54v265q0 48 -6.5 73t-26.5 25q-27 0 -37.5 -32t-10.5 -93v-238h-53v407h53v-23q10 15 25 25t35 10q26 0 40 -15t21 -38q9 23 24.5 38t41.5 15q45 0 63 -34.5t18 -115.5v-269zM417 203q-10 -81 -49.5 -122.5t-100.5 -41.5
q-78 0 -122 58t-44 158q0 48 11 87.5t32.5 68t52 44t69.5 15.5q57 0 98.5 -41t50.5 -116h-59q-6 46 -29.5 73.5t-60.5 27.5q-27 0 -47 -12.5t-33 -34t-19.5 -50.5t-6.5 -62q0 -73 27 -116.5t80 -43.5q35 0 60.5 28.5t30.5 79.5h59z" />
    <glyph glyph-name="uni33A1" unicode="&#x33a1;" horiz-adv-x="850" 
d="M711 492h-123q0 18 4.5 30.5t12.5 22t18.5 17.5t23.5 16q15 10 24 17.5t9 24.5q0 25 -28 25q-13 0 -21.5 -9t-8.5 -32h-30q0 35 16.5 52t43.5 17q26 0 41.5 -13t15.5 -40q0 -29 -16.5 -43.5t-41.5 -29.5q-8 -5 -15 -10.5t-10 -15.5h85v-29zM664 52h-60v267q0 45 -13.5 71
t-57.5 26q-23 0 -38.5 -11t-25.5 -30t-14.5 -44.5t-4.5 -54.5v-224h-61v266q0 19 -2 37t-9 31.5t-19 21.5t-31 8q-26 0 -43.5 -10.5t-28.5 -29.5t-15.5 -45t-4.5 -56v-223h-60v408h60v-42q15 24 40 39t60 15q38 0 64.5 -17.5t37.5 -46.5q13 27 39 45.5t66 18.5
q121 0 121 -150v-270z" />
    <glyph glyph-name="uni33A2" unicode="&#x33a2;" horiz-adv-x="850" 
d="M757 492h-123q0 18 4.5 30.5t12.5 22t18.5 17.5t23.5 16q15 10 24 17.5t9 24.5q0 25 -27 25q-14 0 -22 -9t-8 -32h-30q0 35 16 52t44 17q26 0 41.5 -13t15.5 -40q0 -29 -17 -43.5t-42 -29.5q-8 -5 -14.5 -10.5t-9.5 -15.5h84v-29zM752 52h-53v267q0 47 -5 72.5t-30 25.5
q-27 0 -36.5 -33t-9.5 -91v-241h-54v266q0 48 -5 73t-27 25q-26 0 -37 -32t-11 -93v-239h-54v408h54v-24q9 16 24 26t36 10q26 0 40 -15.5t21 -38.5q8 23 25.5 38.5t43.5 15.5q47 0 62.5 -34t15.5 -116v-270zM414 52h-67l-126 210l-55 -59v-151h-55v564h55v-335l168 179h74
l-145 -153z" />
    <glyph glyph-name="uni33CA" unicode="&#x33ca;" horiz-adv-x="850" 
d="M755 48q-12 -3 -18.5 -4t-15.5 -1q-24 0 -36.5 12.5t-17.5 35.5q-15 -27 -45 -43t-73 -16q-25 0 -47.5 5.5t-39 18.5t-26 34t-9.5 51q0 41 14.5 65t40 38.5t60 22.5t75.5 17q22 5 34 15t12 30q0 43 -23 60.5t-59 17.5q-33 0 -57 -22t-27 -73h-56q3 79 43.5 115t101.5 36
q27 0 51 -6t42 -21.5t28.5 -42.5t10.5 -68v-203q0 -23 16 -23q3 0 7 1t14 4v-56zM412 43h-55v248q0 48 -17.5 82t-61.5 34q-48 0 -73.5 -38t-25.5 -95v-231h-56v564h56v-203q16 26 43 42.5t59 16.5q72 0 101.5 -44.5t29.5 -119.5v-256zM663 246q-13 -10 -28 -13
q-37 -8 -65 -14t-47 -15t-29 -23t-10 -38q0 -32 19 -44.5t51 -12.5q48 0 78.5 29t30.5 86v45z" />
    <glyph glyph-name="uni338D" unicode="&#x338d;" horiz-adv-x="850" 
d="M744 73q0 -88 -35.5 -138.5t-113.5 -50.5q-55 0 -94.5 31t-47.5 106h54q5 -46 29.5 -63.5t58.5 -17.5q52 0 73 35t21 104q-15 -23 -40.5 -37.5t-54.5 -14.5q-70 0 -111 51.5t-41 148.5q0 45 11 82t31 64t48 41.5t62 14.5q30 0 55.5 -14t39.5 -37v39h55v-344zM455 402
l-114 -342q6 -7 19 -7t23.5 11.5t23.5 36.5l39 -34q-18 -37 -39.5 -51.5t-45.5 -14.5q-39 0 -57 26q-15 -14 -32.5 -19t-34.5 -5q-36 0 -59 28l-38 -118l-51 20l157 485l54 -19l-104 -311q6 -14 17 -23t25 -9q34 0 53 25l112 337zM689 224q0 29 -5.5 56t-16.5 47.5t-29.5 33
t-43.5 12.5q-24 0 -42.5 -11t-30.5 -30.5t-18 -46.5t-6 -58q0 -68 24 -106t73 -38q48 0 71.5 40t23.5 101z" />
    <glyph glyph-name="uni338E" unicode="&#x338e;" horiz-adv-x="850" 
d="M752 73q0 -88 -35.5 -139t-114.5 -51q-27 0 -51 7.5t-43 24t-31.5 42.5t-15.5 64h54q5 -46 29 -64t58 -18q53 0 74 35.5t21 104.5q-15 -23 -40.5 -38t-54.5 -15q-71 0 -111.5 52t-40.5 149q0 45 11 82t31 64t48 41.5t62 14.5q30 0 55 -14t40 -37v39h55v-344zM425 9h-52
v267q0 48 -4.5 72.5t-29.5 24.5q-26 0 -36 -32.5t-10 -91.5v-240h-52v265q0 48 -5.5 73t-26.5 25q-27 0 -37 -32t-10 -92v-239h-53v408h53v-23q9 15 24 25t35 10q25 0 39 -15.5t21 -37.5q8 22 25 37.5t43 15.5q44 0 60 -34.5t16 -116.5v-269zM697 224q0 29 -5.5 56t-17 47.5
t-29.5 32.5t-43 12q-24 0 -42.5 -11t-30.5 -30.5t-18 -46t-6 -57.5q0 -68 24 -106t73 -38q48 0 71.5 40t23.5 101z" />
    <glyph glyph-name="uni338F" unicode="&#x338f;" horiz-adv-x="850" 
d="M738 92q0 -88 -35.5 -138.5t-113.5 -50.5q-55 0 -94.5 31.5t-46.5 105.5h53q5 -46 29.5 -64t58.5 -18q52 0 73.5 35.5t21.5 104.5q-16 -23 -41 -37.5t-55 -14.5q-70 0 -111 51.5t-41 148.5q0 45 11 82t31 64t48 41.5t62 14.5q30 0 55.5 -14t40.5 -37v39h54v-344zM443 28
h-67l-131 205l-59 -65v-140h-55v564h55v-343l171 187h76l-146 -158zM684 243q0 29 -5.5 56t-17 47.5t-30 33t-43.5 12.5q-24 0 -42 -11t-30 -30.5t-18 -46.5t-6 -58q0 -68 23.5 -106t72.5 -38q48 0 72 40t24 101z" />
    <glyph glyph-name="uni33CF" unicode="&#x33cf;" horiz-adv-x="850" 
d="M705 40q-17 -1 -27.5 -1.5t-21.5 -0.5q-51 0 -70.5 20t-19.5 76v262h-68v56h68v122h60v-122h79v-56h-79v-261q0 -22 7 -31.5t24 -9.5q11 0 21.5 0.5t26.5 2.5v-57zM486 44h-68l-132 206l-62 -65v-141h-56v564h56v-341l177 185h77l-150 -158z" />
    </font>
</defs>
</svg>
